<svg id="allbet" xmlns="http://www.w3.org/2000/svg" xmlns:xlink="http://www.w3.org/1999/xlink" width="300" height="176.758" viewBox="0 0 300 176.758">
  <defs>
    <linearGradient id="linear-gradient" x1="0.288" y1="0.047" x2="0.688" y2="0.933" gradientUnits="objectBoundingBox">
      <stop offset="0" stop-color="#fff"/>
      <stop offset="0.338" stop-color="#fff"/>
      <stop offset="1" stop-color="#fff"/>
    </linearGradient>
    <filter id="패스_102393" x="23.761" y="41.392" width="66.485" height="62.399" filterUnits="userSpaceOnUse">
      <feOffset dx="2" dy="2" input="SourceAlpha"/>
      <feGaussianBlur result="blur"/>
      <feFlood flood-color="#525252"/>
      <feComposite operator="in" in2="blur"/>
      <feComposite in="SourceGraphic"/>
    </filter>
    <linearGradient id="linear-gradient-2" x1="0.5" y1="0" x2="0.5" y2="1" xlink:href="#linear-gradient"/>
    <linearGradient id="linear-gradient-3" x1="0.389" y1="0" x2="0.627" y2="1" xlink:href="#linear-gradient"/>
    <filter id="패스_102394" x="60.889" y="91.887" width="62.933" height="65.553" filterUnits="userSpaceOnUse">
      <feOffset dx="2" dy="2" input="SourceAlpha"/>
      <feGaussianBlur result="blur-2"/>
      <feFlood flood-color="#525252"/>
      <feComposite operator="in" in2="blur-2"/>
      <feComposite in="SourceGraphic"/>
    </filter>
    <linearGradient id="linear-gradient-4" x1="0.39" y1="0.014" x2="0.56" y2="1" gradientUnits="objectBoundingBox">
      <stop offset="0" stop-color="#fff"/>
      <stop offset="0.098" stop-color="#fff"/>
      <stop offset="0.192" stop-color="#fff"/>
      <stop offset="0.315" stop-color="#fff"/>
      <stop offset="0.438" stop-color="#fff"/>
      <stop offset="0.6" stop-color="#fff"/>
      <stop offset="0.784" stop-color="#fff"/>
      <stop offset="1" stop-color="#fff"/>
    </linearGradient>
  </defs>
  <g transform="matrix(1, 0, 0, 1, 0, 0)" filter="url(#패스_102393)">
    <path id="패스_102393-2" data-name="패스 102393" d="M78.053,80.247V79c0-.355-.178-.533-.355-.888a1.357,1.357,0,0,1-.355-.888c-.178-.355-.178-.533-.355-.888,0-.178-.178-.178-.178-.355-.178-.355-.355-.533-.355-.888,0-.178,0-.178-.178-.355a.174.174,0,0,0-.178-.178,3.571,3.571,0,0,0-.711-1.421,3.883,3.883,0,0,0-.533-.888,2.865,2.865,0,0,1-.533-1.6c0-.178,0-.178-.178-.355s-.355-.355-.533-.355h-.178c-.178.178-.355,0-.533,0l-.178-.178c-.178-.178-.178-.178-.355-.178s-.355-.178-.533-.178a2.017,2.017,0,0,0-1.421-.533h-.178V68.7H68.815c-.355-.178-.533-.178-.888-.355-.178,0-.533-.178-.711-.178a.653.653,0,0,0-.533-.178h-.888a.653.653,0,0,1-.533-.178h-.178l-.178.178-.178-.178-.355-.355c-.355-.178-.711-.178-1.066-.355-.178,0-.178,0-.355-.178-.178,0-.533-.178-.711-.178a1.6,1.6,0,0,0-.888-.178.653.653,0,0,1-.533-.178l-.178-.178a.62.62,0,0,1-.355-.178c-.178-.178-.355-.178-.533-.355l-.533-.533a3.716,3.716,0,0,1-.711-1.066h.178c-.178-.178-.355-.355-.533-.355-.178-.178-.178-.355-.355-.533v-.178c0-.178-.178-.355-.178-.533a.653.653,0,0,1,.533-.178v-.533c0-.178,0-.355.178-.355.178-.178.355-.178.355-.355.178-.178.178-.355.533-.178.178,0,.355-.178.533-.178q.533-.266.533-.533V60c.178-.178.178-.355.355-.711v-.711c0,.178,0,.178-.178.178-.178-.178-.355-.178-.533-.355v-.355c.178,0,.178-.178.355-.178v.178l-.178.178c0,.178.178,0,.178,0l.178-.178c.178-.178.355-.178.533-.355.178,0,.355-.178.533-.355a3.875,3.875,0,0,1,.888-.711.174.174,0,0,0,.178-.178c.178-.178.178-.178.355,0,0-.178,0-.178.178-.178.178-.178.355-.355.533-.355a1.347,1.347,0,0,0,.711-.355c.355,0,.533-.178.888-.178a.62.62,0,0,0,.355-.178c.178-.178.533-.355.711-.533a.174.174,0,0,0,.178-.178h-.178a.62.62,0,0,1,.178-.355c.178,0,.355,0,.355-.178.178,0,.178-.178.355-.178.178-.178.533-.178.711-.355a1.357,1.357,0,0,1,.888-.355h.355a1.068,1.068,0,0,1,.711.178.653.653,0,0,0,.533.178c.178,0,.355.178.533,0s.355-.178.711-.355a1.6,1.6,0,0,0,.888-.178h.178c.178,0,.178,0,.178-.178a.653.653,0,0,1,.178-.533v-.355c-.355-.355-.533-.888-.888-1.066l-.178-.178a3.717,3.717,0,0,0-1.066-.711.174.174,0,0,0-.178-.178c-.178,0-.178,0-.178-.178s0-.178-.178-.355-.355-.178-.355-.533c0,0-.178-.178-.178,0-.178,0-.178,0-.355-.178a1.357,1.357,0,0,1-.355-.888c0-.178-.178-.355-.178-.533a1.357,1.357,0,0,0-.355-.888.62.62,0,0,0-.178-.355v-.178c-.178-.178-.178-.178-.178-.355s-.178-.178-.178-.355l-.533-.533c-.178-.178-.533-.355-.711-.711-.178-.178-.178-.355-.533-.355v-.178c-.355-.355-.355-.355-.533-.178.178,0,.178.178.355.178h-.888a.174.174,0,0,1-.178-.178c-.178-.178-.533-.178-.533-.355h-.178a1.068,1.068,0,0,1-.711-.178h-.178c0,.178-.178.178-.355.178H62.6a1.343,1.343,0,0,0-.711.178c-.178,0-.355.178-.533,0a.923.923,0,0,1-.711.355l-.178.178c-.355.178-.711.178-.888.355a2.525,2.525,0,0,1-1.066.355c-.178,0-.355.178-.533.355a1.357,1.357,0,0,1-.888.355.174.174,0,0,1-.178.178c-.178,0-.355.178-.711.355a9.41,9.41,0,0,0-1.776,1.066.174.174,0,0,0-.178.178c-.178.178-.355.178-.533.355s-.355.355-.533.355c-.178.178-.355.178-.533.355s-.355.178-.533.355a1.347,1.347,0,0,0-.711.355l-.355.355c-.178,0-.355,0-.355.178h-.178a.653.653,0,0,0-.533.178c-.178.178-.355.178-.355,0a8.661,8.661,0,0,0,.533-1.244V47.56c.178-.178.355-.533.533-.711,0-.178.178-.178.355-.355a.653.653,0,0,0,.178-.533,3.883,3.883,0,0,1,.533-.888c0-.178.178-.178.178-.355.178,0,.178-.178.178-.355v-.711c0-.178,0-.355.355-.178,0-.178-.178-.178-.178-.355h.355c.178,0,.178,0,.355-.178,0-.178.178-.178.355-.355.178,0,.178-.178.178-.355s.178-.355.355-.533a.62.62,0,0,0,.178-.355c0-.178,0-.178.178-.355a1.347,1.347,0,0,0,.355-.711.653.653,0,0,0,.178-.533c0-.178.178-.178.178-.355,0-.355.355-.533.533-.711l.533-1.066c.178-.178.178-.533.355-.888a.62.62,0,0,1,.355-.178.246.246,0,0,1,0-.355c0-.178.178-.178.178-.355a.174.174,0,0,1,.178-.178c0-.178,0-.178.178-.355s.355-.533.178-.711v-.533a1.068,1.068,0,0,1,.178-.711,1.774,1.774,0,0,1,.711-.888c.178-.178.178-.178.178-.355a.174.174,0,0,1,.178-.178l.533-.533a.653.653,0,0,0,.178-.533.174.174,0,0,0-.178-.178.653.653,0,0,0-.178-.533c0-.178,0-.355-.178-.355-.178-.355-.533-.711-.711-1.066-.178-.178-.178-.355-.355-.533l-.533-1.066a.653.653,0,0,1-.178-.533,2.525,2.525,0,0,0-.355-1.066c0-.178-.178-.178-.178-.355a2.611,2.611,0,0,0-.888-1.066,7.724,7.724,0,0,0-1.244-.711H53.36c-.178,0-.178,0-.178.178v.533a2.253,2.253,0,0,1,.178,1.066v.533c-.178.355,0,.533,0,.888v1.244a.653.653,0,0,1-.178.533v.533a1.357,1.357,0,0,1-.355.888c-.178.355-.178.533-.355.888v.178a7.693,7.693,0,0,1-.178.888c-.178.355-.355.888-.533,1.244v.178c0,.355-.178.533-.355.888,0,.178-.178.355-.178.533s-.178.355-.178.533-.178.178-.178,0l-.178-.178a.62.62,0,0,1-.178.355.333.333,0,0,1,0,.533,2.653,2.653,0,0,1-.533,1.244c-.178.178-.355.533-.533.711s-.178.355-.355.533a.653.653,0,0,0-.178.533l-.533,1.066c0,.178-.178.178-.178.355s0,.178-.178.178-.178.178-.178.355c-.178,0-.178,0-.355.178-.178.355-.178.533-.355.888,0,.178-.178.355-.355.711v.178h.178c.178-.178.178-.355.355-.533s.178-.355.355-.533v.178c-.178.178-.178.533-.355.711s-.178.355-.533.178c-.178.355-.178.711-.533.888v.178c0,.178-.178.355-.178.533v.711c0,.178-.178.178-.178.355s-.178.355-.178.533c-.178.355-.178.533-.355.711,0,.178-.178.178,0,.355V47.2c0,.178-.178.355-.355.533,0,.178,0,.178-.178.355l-.178.178c0,.178,0,.355-.178.355,0,.178,0,.355-.178.355-.178.178-.178.178-.355,0a.923.923,0,0,1-.355.711.55.55,0,0,0-.355.178H42.7v-.178c-.178-.178-.178-.355,0-.355v-.711c0-.178-.178-.178-.178-.355a1.331,1.331,0,0,1-.178-.888.653.653,0,0,0-.178-.533c-.178-.178-.355-.533-.533-.711l-.178-.178c-.178-.178-.178-.355-.533-.355-.178.178-.355.178-.355,0V45.25a1.774,1.774,0,0,0,.711-.888c0-.178.178-.178.178-.355s.178-.178.178-.355c.178-.355.355-.533.533-.888.178-.178.178-.355.355-.533a.174.174,0,0,1,.178-.178.174.174,0,0,0,.178-.178c.178-.178.178-.355.355-.355.178-.178.533-.178.711-.355a.174.174,0,0,0,.178-.178c.178,0,.178-.178,0-.178,0-.178-.178-.178-.178-.355s-.178-.178-.178-.355c-.355-.355-.533-.711-1.066-.888-.178,0-.178-.178-.355-.178l-.355-.355c-.178-.178-.533-.178-.711-.355H41.1v.355c-.355,0-.355-.178-.355-.533h-.178c-.178,0-.178,0-.355-.178s-.178-.355-.533-.355H39.5a3.348,3.348,0,0,0-1.6-.711c-.178,0-.178,0-.178.178v.178a.178.178,0,0,1-.355,0v-.178c0-.178-.178-.355-.355-.178a.174.174,0,0,1-.178.178l-.178.178c-.178,0-.178,0-.355.178a.174.174,0,0,1-.178-.178l-.178.178h-.178c-.178.178-.355.178-.533.355,0,.178-.178.178-.355.178s-.355.178-.533.355c0,0-.178.178-.178,0H34c-.178.178-.355.178-.711.178a.174.174,0,0,1-.178.178s-.178.178-.178,0c-.178-.178-.355,0-.355.178v.355H32.22c-.178.178-.355.178-.711.178a2.525,2.525,0,0,0-1.066.355c-.178,0-.178.178-.355.178a.174.174,0,0,0-.178-.178c-.178.178-.178.355-.355.355l-.178.178c-.178.178-.355.178-.533.355-.178,0-.178.178-.355,0h-.355c-.178.178-.355,0-.533,0a.174.174,0,0,1,.178-.178c.355-.178.533-.178.888-.355s.533-.355.888-.533c.178,0,.178-.178.355-.178a.174.174,0,0,0,.178.178c.178-.178.178-.533.355-.711,0-.178.178-.178.355-.355s.178-.355.355-.533a.174.174,0,0,0,.178-.178c.178,0,.355-.178.533-.178s.178,0,.355-.178l.355-.355a2.452,2.452,0,0,1,.711-.533c.178-.178.355-.355.533-.355.178-.178.178-.178.355-.178.178-.178.355-.178.533-.355.355-.178.533-.533.888-.711a2.525,2.525,0,0,1,1.066-.355h.888c.178,0,.533-.178.711-.178a1.068,1.068,0,0,0,.711-.178h.178a1.56,1.56,0,0,1,1.244-.178h.533c.178,0,.178,0,.355-.178a.62.62,0,0,0,.355-.178h2.309a3.912,3.912,0,0,0,1.421-.178c.178,0,.178,0,.355-.178a.246.246,0,0,1,.355,0h.355c.178,0,.355-.178.178-.355v-.178c.178-.178,0-.355,0-.533a.709.709,0,0,0-.355-.711v-.178c0-.355-.355-.711-.533-1.066a2.452,2.452,0,0,1-.533-.711c0-.178-.355-.355-.533-.533s-.355-.178-.355-.355c-.178-.355-.355-.533-.711-.533a.62.62,0,0,1-.355-.178l.178-.178h-.888c-.178.178-.355,0-.533,0a1.6,1.6,0,0,0-.888.178c-.178,0-.355.178-.711.178a3.023,3.023,0,0,0-1.244.178H38.97c-.355.178-.711.178-1.066.355h-.178c-.178,0-.178,0-.178-.178,0,0,0-.178-.178,0v.178h-.711c-.355,0-.533.178-.888.178-.178,0-.178,0-.355.178l-.178-.178a.653.653,0,0,1-.533.178,1.331,1.331,0,0,1-.888.178h-.355a1.6,1.6,0,0,0-.888.178c-.178,0-.355,0-.355.178l.178.178-.178.178a12.24,12.24,0,0,0-1.421.533h-.178a.174.174,0,0,1-.178.178c-.178,0-.533.178-.711.178h-.355c0,.355-.178.355-.355.355h-.178a7.2,7.2,0,0,0-1.6.888c-.178.178-.533.355-.711.533-.355.178-.888.533-1.244.711-.178.178-.533.355-.711.533-.355.178-.533.355-.888.533-.178.178-.355.178-.533.355-.178,0-.355.178-.533.178s-.178.178-.355.178c-.355.178-.533.355-.888.533a1.068,1.068,0,0,1-.711.178h-.355a.471.471,0,0,0-.533.533.174.174,0,0,1-.178.178h-.178c0,.355-.178.533-.178.711s-.178.355,0,.533v.178a.653.653,0,0,0,.178.533c.178.178,0,.533.178.711v1.066c0,.355.178.533.178.888v.711a1.535,1.535,0,0,0,.533,1.066c0,.178.178.178.178.355.178.355.355.533.533.888a.62.62,0,0,1,.178.355q.266.533.533.533a.333.333,0,0,0,.533,0h.178c.178,0,.355,0,.355-.178a.653.653,0,0,1,.533-.178.382.382,0,0,1,.355.355v.355c.178.178.178.178,0,.355,0,.178-.178.355-.355.711a.62.62,0,0,1-.178.355v1.066c.178,0,.178,0,.178.178V48.8c0,.178-.178.178-.178.355a.174.174,0,0,1-.178.178v-.355H22.8v.178c-.178,0-.355,0-.355-.178l-.533-.533c-.355-.178-.533-.533-1.066-.711-.178-.178-.533-.178-.711-.355a.174.174,0,0,1-.178-.178c-.178-.178-.178-.355-.355-.355h-.178a1.068,1.068,0,0,0-.711-.178H17.653c-.178-.178-.355,0-.711,0-.178,0-.355.178-.533.355a1.074,1.074,0,0,0-.533,1.066v.178c0,.178-.178.533-.178.711-.178.178,0,.355.178.711.178.178.355.533.533.711v.178c-.178,0-.178-.178-.355,0,0,.178.355.355.355.711h-.178c0,.355-.178.533,0,.711l.178-.178v-.178h.355v.888a.653.653,0,0,1-.178.533c-.178.355-.355.533-.355.888,0,.178-.178.355-.178.533-.178.355-.178.533-.355.888a1.6,1.6,0,0,0-.178.888c-.178.355-.178.711-.355.888a4.181,4.181,0,0,0-.355,1.421v.178c0,.178-.178.533-.178.711v.888c0,.178-.178.533-.178.711s-.178.355-.178.533c0,.355-.178.888-.178,1.244V63.9a.653.653,0,0,0,.178.533c.178.178,0,.178,0,.355v1.6a.174.174,0,0,1,.178.178V67.1a.174.174,0,0,0,.178.178c.178.178.178.355.355.533a1.331,1.331,0,0,0,.178.888v.178c.178.178.178.355.355.711v.355c0,.178.178.355,0,.533v.178l.178-.178.533.533a4.181,4.181,0,0,1,.355,1.421.62.62,0,0,0,.178.355,1.347,1.347,0,0,0,.355.711c.178.178.178.355.355.533a.174.174,0,0,0,.178.178,1.535,1.535,0,0,0,.533,1.066.174.174,0,0,0,.178.178c.178.178.533.355.711.533l-.178.178h.178c.178,0,.178,0,.355.178l.711.711c.355.178.533.355.888.533a3.883,3.883,0,0,1,.888.533c.178.178.355.178.711.355v.178c.178.178,0-.178.178-.178a.62.62,0,0,0,.355.178h.178a.653.653,0,0,1,.533.178h.178c.178,0,.533.178.711.178h.888c.178,0,.355-.178.533-.178s.355-.178.533-.178c.355-.178.711-.178.888-.355a.62.62,0,0,0,.355-.178c.355-.178.711-.178,1.066-.355.355,0,.533-.178.888-.355s.711-.178,1.066-.355c.178,0,.355-.178.533-.355l.178-.178a.382.382,0,0,1,.355-.355c.178,0,.178-.178.355-.178l.178-.178c.178-.178.178-.178.355,0,.178-.178,0-.178,0-.178l.178-.178c.178-.178.533-.178.711-.355.533-.178.888-.355,1.421-.533a1.347,1.347,0,0,0,.711-.355c.178,0,.178-.178.355,0a.382.382,0,0,1,.355-.355h.178c.178-.178.355-.355.533-.355s.178-.178.355-.178.178-.178.355-.178h.355c0-.178.178-.178.178-.355.178-.178.355-.178.711-.178H39.5c.178,0,.178-.178.355-.178h.355a11698.413,11698.413,0,0,0,.355-.355.174.174,0,0,1,.178-.178c.178,0,.355-.178.711-.178.178,0,.355-.178.533-.178.178-.178.355-.178.533-.355s.355-.178.533-.355.355-.355.533-.178c0-.178,0-.178.178-.178a.178.178,0,0,0,.355,0c0-.178.178-.355.355-.533a.174.174,0,0,1,.178.178c0-.355-.355-.711-.178-1.066.178,0,.178,0,.178-.178s.178-.178.178-.355c.178-.178.178-.355.355-.533,0-.178.178-.355.178-.533s0-.178.178-.355c0-.178,0-.178-.178-.178a.174.174,0,0,0-.178.178H45.01v-.178l.178-.178.355-.355c.178-.178.355-.533.533-.711V64.259a.174.174,0,0,1,.178-.178c.355-.178.355-.355.533-.711,0-.178,0-.355-.178-.355.178-.178.178-.178,0-.355s-.178,0-.355,0V61.239a1.068,1.068,0,0,0-.178-.711v-.355c0-.178.178-.178.178-.355a.62.62,0,0,1,.178-.355V56.975c0-.178.178-.533,0-.711v-.355a.653.653,0,0,1,.178-.533.54.54,0,0,1,0-.711.62.62,0,0,0,.355-.178,1.819,1.819,0,0,0,.888-1.066,1.387,1.387,0,0,1,.711-.711,1.6,1.6,0,0,0,.888.178c.355,0,.533.178.888.355v.178c.355.355.888.888,1.421.888a.333.333,0,0,0,.533,0c.178.178.178.178.178.355s0,.178-.178.178c-.178.178-.178.355-.178.711a.807.807,0,0,1,0,.888.653.653,0,0,0,.178.533l.355.355a1.068,1.068,0,0,1,.178.711.382.382,0,0,1-.355.355c0,.178-.178.178-.355.178h-.178c.355.178.355.355.355.533,0,.355-.178.533-.355.888l-.178.178v.178a.653.653,0,0,1-.178.533v.178a2.525,2.525,0,0,0-.355,1.066.382.382,0,0,1-.355.355c0,.178-.178.178-.178.355-.178.178-.355.533-.533.711a.653.653,0,0,0-.178.533c0,.178-.178.355-.178.533a7.725,7.725,0,0,0-.711,1.244c0,.178-.178.178-.178.355h-.178v.178c.178,0,.178.178,0,.178-.178.178-.178.355-.355.355a.174.174,0,0,1-.178.178c0,.178,0,.178-.178.355-.178,0-.178.178-.178.355,0,.355-.178.533-.533.711-.178,0-.178.178-.178.355v.178a.653.653,0,0,0-.178.533.174.174,0,0,1-.178.178l-.178.178a.382.382,0,0,1-.355.355c0,.178,0,.178-.178.355l-.178.178a1.387,1.387,0,0,1-.711.711c-.178.178-.355.355-.355.533-.178.178-.355.533-.533.711-.178,0-.178.178-.355.178-.178.355-.533.533-.711.888-.178.178-.355.533-.711.711,0,.178-.178.178-.178.355a3.876,3.876,0,0,1-.711.888l-.533.533c-.178.178-.355.178-.533.355-.178,0-.355.178-.533.178-.178.178-.533.178-.711.355-.178,0-.355.178-.533.178s-.355.178-.533.355l-.178.178c-.355,0-.533.178-.888.178h-.888c-.178,0-.355.178-.533.178s-.355.178-.533.178a.62.62,0,0,0-.355.178V78.47h-.178c0,.178,0,.178-.178.178h-.711v.178h.355c.178,0,.355,0,.355.178-.178.178-.178.178-.355.178A1.068,1.068,0,0,0,33.463,79h-.178c-.178,0-.355.178-.533.178v.178c.178.178.178.178.178.355s0,.178-.178.178-.178,0-.355.178v.178c0,.178,0,.533.178.533s.178.178.355.355a.653.653,0,0,0,.533.178c.178,0,.178,0,.355.178s.533.355.711.533a1.347,1.347,0,0,1,.711.355c.178.178.355.178.533.355h.178c.178,0,.178,0,.355.178.178,0,.355.178.533.178a1.068,1.068,0,0,1,.711.178,4.918,4.918,0,0,0,1.6.178,1.068,1.068,0,0,1,.711.178h.178a.653.653,0,0,0,.533.178h.711c.178,0,.355-.178.533-.178.355,0,.711-.178,1.066-.178.355-.178.711-.178,1.066-.355a.382.382,0,0,0,.355-.355c.178-.178.355-.355.533-.355h.178a.653.653,0,0,1,.178-.533s.178.178.178-.355a.62.62,0,0,1,.355-.178c0-.178.178-.178.178-.355a.246.246,0,0,0,.355,0l.178-.178.355-.355c.178-.178.355-.178.533-.533l.533-.533c.178-.178.178-.178.355-.178.178-.178.178-.178.178-.355v-.178a.923.923,0,0,0,.355-.711.174.174,0,0,1,.178-.178l.711-.711v-.178l.533-1.066a.174.174,0,0,1,.178-.178c0-.178.178-.355.178-.533.178-.178.178-.533.355-.711,0-.178.178-.178.355-.178,0,0,.178-.178,0-.178,0-.178.178-.355.355-.533h.178c.178,0,.178,0,.178-.178v-.355l.178.178c.355-.355.711-.711.533-1.244h.178V71.72A.174.174,0,0,0,53,71.542v-.178c.178,0,0-.178,0-.178v-.178c0-.178.178-.355.178-.533a1.347,1.347,0,0,1,.355-.711,6.232,6.232,0,0,0,.888-1.421c.178-.355.355-.533.533-.888h.355V67.1c.178-.355.178-.533.355-.888,0-.178.178-.178.178-.355s.178-.178.178-.355l.178-.178c.178,0,.355-.178.533.178v.178h.178v.178a.653.653,0,0,0,.178.533c0,.178.178.355.178.533s0,.178.178.355.178.178.178.355l.178.178c.355.178.355.355.533.533v.178c0,.178-.178.178,0,.355v.178c0,.178,0,.178.178.355l.178.178a.923.923,0,0,0,.355.711c0,.178.178.178.355.178v.178c0,.178,0,.355.178.355h.178l.355.355h.178c.178.355,0,.355.355.355,0,.178,0,.355.178.355.178.178.355.178.533.533l.178.178.178.178v.178a1.357,1.357,0,0,1,.888.355c.178.178.355.178.533.355.178,0,.178.178.355.178a2.653,2.653,0,0,0,1.244.533c.178.178.533.178.711.355.178,0,.178.178.355.178a.62.62,0,0,1,.355.178c.178,0,0,.178.178.355,0,.178,0,.178.355.178v-.178a2.453,2.453,0,0,1,.711.533.174.174,0,0,0,.178.178,3.119,3.119,0,0,1,.888.711c.178.178.355.178.533.355a.62.62,0,0,1,.355.178c.178.178.533.355.533.533a.174.174,0,0,1,.178.178c.355.178.533.355.888.533,0,.178.178.178.355.178.178.178.355.178.533.355l.355.355c.178.178.355.178.533.355l1.066.533c.178,0,.533.178.711.178a.174.174,0,0,1,.178.178.382.382,0,0,0,.355.355c.178-.178.178-.178.355-.178h.178a.62.62,0,0,1,.355.178l.178.178c0,.178.178.355.533.355h.178v-.178H77.7a.653.653,0,0,1,.533.178.382.382,0,0,0,.355-.355V80.78c-.533-.178-.533-.355-.533-.533ZM33.108,32.282c.178.178,0,.178,0,0ZM17.653,51.113ZM14.988,66.746Zm0-.888a.653.653,0,0,1,.178.533C14.988,66.213,14.811,66.035,14.988,65.857Zm24.87-14.745h0c.178.178,0,.178,0,0ZM34,51.823c.178,0,.178-.178.355-.355V51.29h.178a.174.174,0,0,0,.178.178.524.524,0,0,1-.711.355c0,.178-.178.178-.178.355v.178c-.178.178-.355.178-.533.355-.178,0-.355,0-.355-.178v-.355c.355-.178.533-.533.888-.711,0,.355,0,.355.178.355Zm-.355-6.751Zm-2.487.888a.174.174,0,0,0,.178.178l.533-.533a.653.653,0,0,1,.533-.178c.178,0,.355,0,.355-.178a.174.174,0,0,0,.178-.178.377.377,0,1,1,.533.533v.533c0,.178,0,.355-.178.355a.174.174,0,0,0-.178.178c0,.178,0,.178-.178.355a.923.923,0,0,1-.711.355c-.178.178-.355.178-.711.355-.178,0-.355,0-.355-.178a.653.653,0,0,1-.178-.533c.178-.178.178-.533.178-1.066h0Zm-.178,12.08v-.178a.653.653,0,0,1,.178-.533c.178-.178.178-.533.355-.711a3.883,3.883,0,0,1,.533-.888l.178-.178A.62.62,0,0,1,32.4,55.2c.178-.178.178-.178.355-.178a.174.174,0,0,0,.178-.178,1.387,1.387,0,0,1,.711-.711L34,53.777a.62.62,0,0,1,.355-.178h.178l.178-.178c.355-.178.533-.355.888-.355.178-.178.533-.178.711-.355h.178a.653.653,0,0,0,.533-.178h.355v.355h.178a.174.174,0,0,1,.178-.178H37.9a.174.174,0,0,1,.178.178c0,.355.178.533.533.711.178.178.178.178.178.355v1.776a1.691,1.691,0,0,1-.355,1.244A8.9,8.9,0,0,1,37.194,58.4c-.178.178-.355.178-.355.355-.178.178-.355.178-.533.355h-.178a8.661,8.661,0,0,0-1.244.533c-.355,0-.711.178-1.066.178-.355-.178-.533,0-.888,0-.178,0-.355,0-.355-.178-.178,0-.178-.178-.355-.178s-.355-.178-.533-.355v-.178c-.888-.355-.888-.533-.711-.888ZM29.022,70.831a.653.653,0,0,1-.533.178h-.178c-.355.178-.533.355-.888.355h-.178c-.355.178-.711.178-.888.355a.174.174,0,0,0-.178.178c-.178.178-.355.178-.533.355-.178,0-.355.178-.533.178l-.178-.178a.54.54,0,0,0-.711,0,2.64,2.64,0,0,1-1.6.355.382.382,0,0,1-.355-.355.923.923,0,0,1-.355-.711c0-.178-.178-.178-.178-.355s-.178-.178-.355-.355c0-.178-.178-.178-.178-.355a7.521,7.521,0,0,1-.888-1.244,8.661,8.661,0,0,1-.533-1.244c0-.355-.178-.533-.178-.888v-.178c.178-.355.178-.711.355-1.066,0-.178.178-.533,0-.711v-.178a3.911,3.911,0,0,0,.178-1.421c0-.711.178-1.421.178-1.954,0-.178.178-.533.178-.711s0-.178.178-.355c.178-.355.178-.888.533-1.244.178-.355.178-.533.355-.888.178-.178.178-.533.355-.711l.711-.711c0-.178.178-.178.355-.355h.178c.178.178.355.178.533.355s.178.178.178.355a.653.653,0,0,1,.178.533v.355a2.253,2.253,0,0,0-.178,1.066V60.35c0,.355.178.533.355.888a8.661,8.661,0,0,1,.533,1.244v1.954c0,.355.178.533.178.888.355.533.533,1.244,1.066,1.6.178.178.355.178.355.355a.55.55,0,0,0,.178.355c0,.178.178.355.355.533l.355.355c.178.178.178.355.355.355.178.355.533.533.711.888.178.178.178.355.355.533h.711c.178,0,.178,0,.178.178-.355.178-.355.355-.533.355ZM22.449,56.975Zm7.461-3.731h-.178l-.178-.178c-.178,0-.178.178-.178.355s0,.178-.178.178l-.178.178-.533.533a3.119,3.119,0,0,0-.888.711c-.355.178-.533.533-.888.533-.178,0-.178.178-.355.178a46798.047,46798.047,0,0,0-.355.355.653.653,0,0,1-.533.178h-.355l-.355-.355-1.066-.533c-.355-.178-.711-.178-.888-.533a.174.174,0,0,0-.178-.178c0-.178-.178-.355-.178-.533.178-.178.178-.355.355-.355,0-.178.178-.178.355-.178a.653.653,0,0,0,.533-.178c-.178,0-.178,0-.178-.178.178,0,.178-.178.355,0h.355l.178.178h-.355l-.178.178h.711a1.6,1.6,0,0,1,.888-.178c0-.178.178-.355.355-.533L26,52.712a.174.174,0,0,1,.178-.178l.355-.355c0-.178.178-.178.355-.355h.178a1.6,1.6,0,0,0,.888.178.174.174,0,0,1,.178.178c.178.178.533.355.711.533h.178c.178,0,.533.178.711.178s.178,0,.355-.178a.174.174,0,0,1,.178.178c.178,0,.178.178.355.178s.178,0,.178.178c-.888-.178-.888,0-.888,0Zm10.3,11.369c-.178,0-.178.178-.355.178h-.178c-.178.355-.533.355-.711.533-.178,0-.178.178-.355.355a1.387,1.387,0,0,1-.711.711c-.178,0-.178.178-.355.178-.178.178-.533.355-.711.533s-.355.178-.533.355c-.355.178-.533.355-.888.533s-.533.533-.888.533c-.178,0-.355.178-.533.178s-.355.178-.533.355a.62.62,0,0,1-.355.178.653.653,0,0,1-.533-.178c-.178-.178-.178-.178-.355,0s-.355.178-.711,0l-.178-.178a1.932,1.932,0,0,1-.178-.888V66.923l-.533-1.066c-.178-.355-.178-.711-.355-1.066a1.6,1.6,0,0,1-.178-.888c0-.178-.178-.355,0-.533,0-.178,0-.178.178-.355l.178-.178a.174.174,0,0,0,.178-.178c.178-.178.178-.178.355.178a.178.178,0,1,0,0,.355l.178-.178c0,.178.178.178.355.178a.653.653,0,0,1,.533.178,1.068,1.068,0,0,0,.711.178,1.068,1.068,0,0,1,.711.178h.178c.178,0,.355.178.533.355h.533a1.068,1.068,0,0,1,.711.178h.355c.355.178.711.178,1.066.355.178,0,.178,0,.355.178a.793.793,0,0,0,.888,0h.178c.178,0,.178,0,.355.178l.178-.178a1.6,1.6,0,0,0,.888-.178c.178,0,.178,0,.178-.178.178-.178.355-.178.711-.178-.178.178-.355.178-.355.355Zm.533-13.679h0a1.343,1.343,0,0,0-.178.711.174.174,0,0,0,.178.178c0,.355,0,.355-.355.355h-.178c-.178.178-.355,0-.533-.178l-.178-.178c-.178-.178-.178-.355,0-.355h.178c.178,0,.178,0,.355-.178a1.387,1.387,0,0,0,.711-.711c0,.178.178.355,0,.355Zm3.908,3.908h-.178C44.655,54.666,44.655,54.666,44.655,54.843ZM42.346,67.811c0-.178,0-.178.178-.178s.178.178.178.355a.62.62,0,0,1-.355-.178ZM43.589,65.5h0c-.178,0-.178,0-.178-.178v-.178h.178a.174.174,0,0,1,.178.178A.174.174,0,0,0,43.589,65.5Zm1.954-10.659c0,.178-.178.178-.178.355-.178.178-.178.178,0,.355v.355c-.355,0-.355.355-.355.533v.533a1.357,1.357,0,0,1-.355.888c0,.178-.178.178-.178.355,0,.355-.178.355-.355.533a.174.174,0,0,0-.178.178c0,.178-.178.178-.178.355v.355l-.178.178c-.178,0,0-.178,0-.178v-.355c-.178-.178-.178-.178-.355,0,0-.355-.178-.533-.178-.888-.178-.355-.355-.888-.533-1.244a3,3,0,0,1-.355-.888L41.635,55.2v-.711c0-.178,0-.355.178-.355s.178,0,.355.178l.533.533c0,.178.178.178.355.178h.711c.178,0,.355,0,.533.355,0,.178.355.178.355,0a.653.653,0,0,1,.178.533v.533h.178a.54.54,0,0,0,0-.711c0-.178,0-.355.178-.355h.355v-.533Zm.533-9.771a1.347,1.347,0,0,1,.355-.711A.923.923,0,0,1,46.076,45.073Zm.355-.711a1.068,1.068,0,0,1,.178-.711A1.343,1.343,0,0,1,46.432,44.362Zm.355-.711Zm.711-1.6c0-.178,0-.178.178-.355A.55.55,0,0,1,47.5,42.053ZM33.641,80.069a.246.246,0,0,1-.355,0l-.178-.178v-.355h.178c.178,0,.178.178.355.355S33.641,80.069,33.641,80.069ZM62.6,50.047c.178.178.178.178,0,.178ZM61.176,50.4ZM61,49.869a.174.174,0,0,1-.178.178A.174.174,0,0,0,61,49.869Zm-3.375,5.685c-.355.178-.355.178-.533.178s-.178,0-.355-.178h-.178l-.533-.533-.533-.533-.178-.178v-.355a.174.174,0,0,0-.178.178.174.174,0,0,1-.178-.178c0-.178.178-.178.355-.178a1.18,1.18,0,0,1,.711-.888c.178-.178.355-.178.533-.355s.355-.355.533-.355A.174.174,0,0,0,57.268,52l.355-.355c.178,0,.355-.178.533-.178s.178-.178.355-.178c.178-.178.533-.178.711-.355a1.347,1.347,0,0,1,.711-.355.653.653,0,0,1,.533-.178c-.178.178-.178.178,0,.355a.174.174,0,0,0,.178-.178c0,.178.178.178.178.355v.178a.178.178,0,1,0,.355,0c0-.178.178-.178.178-.355V50.4c-.178-.178-.178-.178,0-.355.178,0,.178,0,.355-.178v.178c0,.178,0,.178.178.178h.178c0,.178,0,.178.178.355-.178.178-.355.533-.533.711,0,.178-.178.178-.178.355a.174.174,0,0,1-.178.178c-.178.178-.355.533-.533.711l-.178.178c-.178.178-.355.178-.355.355a.174.174,0,0,1-.178.178h-.355v.178l-.355.355a.174.174,0,0,0-.178.178l-.355.355-.533.533-.178.178C58.156,55.2,57.979,55.2,57.623,55.554ZM58.334,68.877ZM59.044,70.654Zm12.435-.888-.178-.178V69.41a.174.174,0,0,1,.178-.178c.178,0,.178,0,.178.178a.55.55,0,0,1-.178.355ZM75.921,81.49c-.178-.178,0-.178,0,0ZM48.741,65.857ZM50.873,62.3ZM57.268,44.9ZM40.392,72.43ZM40.036,72.608ZM30.976,31.039ZM40.214,72.608ZM46.076,70.3ZM48.386,66.568ZM34.707,78.47ZM48.386,66.39Z" transform="translate(9.66 17.99)" fill="url(#linear-gradient)"/>
  </g>
  <path id="패스_102397" data-name="패스 102397" d="M348.41,247.4c-.711-.533-1.421-2.132-2.487-4.441-1.6-3.908-3.731-9.771-6.4-17.409-.178-.355-.178-.711-.355-.888a41.135,41.135,0,0,1,13.856,7.994c-4.441-4.974-9.593-9.238-14.745-11.014-2.309-6.751-4.8-13.679-7.461-22.561h-6.04c-3.731,10.659-7.106,19.363-10.481,27.535s-5.685,13.856-6.928,16.7a8.015,8.015,0,0,1-2.487,3.2c-.711.533-.178,1.066-3.731,1.066v2.309c3.553-.178,3.2-.178,4.619-.178h7.994c1.421,0,3.553.178,5.329.178v-1.066h-1.954a4.5,4.5,0,0,1-3.2-1.421,4,4,0,0,1-.888-2.665,20.019,20.019,0,0,1,.888-4.264c.178-.711,1.776-4.974,3.908-10.126a8.206,8.206,0,0,1,1.244-1.243,21.4,21.4,0,0,1,13.679-5.685l5.685,18.475a8.257,8.257,0,0,0,.533,1.6,3.469,3.469,0,0,1,.178,1.243,4.52,4.52,0,0,1-.888,2.842,6.08,6.08,0,0,1-3.375,1.243v1.066a41.711,41.711,0,0,1,4.619-.178h7.994c1.421,0,3.375.178,5.152.178v-1.066H351.43a5.353,5.353,0,0,1-3.02-1.421Zm-28.956-21.318-.355.355c3.731-9.415,7.994-20.252,7.994-20.252l4.619,14.745A19.629,19.629,0,0,0,319.454,226.087Zm52.761,11.192,1.066-3.2-1.421-.355a6.188,6.188,0,0,1-2.309,3.553c-.888.533-3.02.888-6.4.888H360.49l1.066-13.5v-3.731c0-2.487-.888-11.192-.533-11.9s0-1.066.888-1.066h3.2v-1.244c-1.776,0-2.842.178-3.553.178h-4.441a20.34,20.34,0,0,1-2.665-.178v1.244h-1.066a2.148,2.148,0,0,1,2.132,1.066c.355.711.533,9.415.533,11.547v11.369c0,4.8-.888,7.106-2.487,7.106h1.066V240.3c1.776,0,2.487-.178,3.731-.178h7.816c1.776,0,3.553,0,5.507.178.178-1.066.355-1.954.533-3.02Zm15.1,2.842h4.8c1.776,0,3.553,0,5.685.178.178-1.066.533-2.132.711-3.02l1.066-3.2-1.421-.355a6.188,6.188,0,0,1-2.309,3.553c-.888.533-3.02.888-6.4.888h-2.487l1.243-13.5v-3.731c0-2.487-1.066-11.192-.711-11.9s-.178-1.066.711-1.066v-1.244a18.5,18.5,0,0,1-1.954.178h-2.842a14.8,14.8,0,0,1-2.132-.178v1.244h-1.6a2.148,2.148,0,0,1,2.132,1.066c.355.711.533,9.415.533,11.547v11.369c0,4.8-.888,7.106-2.487,7.106h1.421V240.3c1.776,0,2.309-.178,3.553-.178Zm22.028,0a31.729,31.729,0,0,1,3.731.178c1.421,0,2.487.178,3.02.178a9.512,9.512,0,0,0,7.106-2.665,9.372,9.372,0,0,0,2.665-6.928,7.957,7.957,0,0,0-1.6-5.329,8.141,8.141,0,0,0-4.8-2.842,11.641,11.641,0,0,0,3.553-3.731,8.653,8.653,0,0,0,1.066-4.441,7.922,7.922,0,0,0-2.132-5.862,8.357,8.357,0,0,0-6.04-2.132,16.886,16.886,0,0,0-2.487.178c-1.244,0-2.309.178-3.2.178h-1.244c-.711,0-1.244,0-1.244-.178v1.243h-2.132a2.423,2.423,0,0,1,2.132.888,5.3,5.3,0,0,1,.533,2.842v18.475c0,5.862-.888,8.882-2.487,8.882h.178v1.6a11.134,11.134,0,0,0,1.954-.178,2.389,2.389,0,0,1,1.421-.355Zm2.309-23.627c0-2.842,0-5.329.178-7.461.711-.178,1.243-.178,1.776-.355.533,0,.888-.178,1.244-.178a4.7,4.7,0,0,1,4.086,1.776,6.744,6.744,0,0,1,1.421,4.8,7.21,7.21,0,0,1-.711,3.375,10.152,10.152,0,0,1-1.954,2.842c-.533,0-1.066.178-1.776.178h-4.263v-4.974Zm0,10.3v-3.02h2.842c2.665,0,4.441.533,5.685,1.776a7.25,7.25,0,0,1,1.954,5.329,7.957,7.957,0,0,1-1.6,5.329,6.017,6.017,0,0,1-4.8,1.954,7.287,7.287,0,0,1-1.954-.178l-2.132-.533V226.8Zm28.956,13.323h4.441c1.6,0,3.553.178,5.329.178.178-1.243.533-2.487.711-3.731.355-1.243.533-2.487,1.066-3.908l-1.421-.533a8.563,8.563,0,0,1-2.309,4.441c-1.066.711-3.02,1.066-6.218,1.066h-2.665c-.711,0-1.421-.178-2.132-.178V224.133h4.8c2.309,0,4.086.178,4.8.711a3.9,3.9,0,0,1,1.421,2.665v.178h.711c0-.178-.355-.711-.355-1.066,0-1.421-.178-2.309-.178-2.665v-2.309a13.441,13.441,0,0,1,.178-2.665l-1.243-.178a2.571,2.571,0,0,1-.888,2.309,7.1,7.1,0,0,1-3.553.711,8.858,8.858,0,0,0-2.132-.533c-1.066,0-1.954-.533-2.665-.533h-.533s0-1.954.178-4.8c0-2.842,0-4.8.178-6.751a7.7,7.7,0,0,0,.888.178h3.731q4,0,5.329,1.066c.888.711,1.243,1.954,1.421,3.908l1.243-.178c0-1.243-.178-2.487-.178-3.731s-.178-2.487-.178-3.731a34.231,34.231,0,0,1-4.264.178h-7.994c-1.776,0-3.553-.178-5.329-.178v1.244H431.9a2.423,2.423,0,0,1,2.132.888,5.3,5.3,0,0,1,.533,2.842v18.475c0,5.862-.888,8.882-2.487,8.882h.888v1.6A47.609,47.609,0,0,1,440.608,240.121Zm38.727-29.489c0-1.066-.178-2.132-.178-3.02v-1.421a4.634,4.634,0,0,1-2.309,1.244,38.092,38.092,0,0,1-7.284.711h-4.441c-2.842,0-4.8-.711-5.862-.711a7.728,7.728,0,0,1-2.309-.888,26.237,26.237,0,0,1-.178,3.731c-.178,1.244-.355,2.665-.533,3.908l1.244.355c.355-1.954.711-3.2,1.421-3.731.711-.711,1.776-.711,3.731-.711h5.507v7.283c0,6.4-.888,11.192-.888,14.212a16.992,16.992,0,0,1-.711,5.329,6.973,6.973,0,0,1-1.066,2.309,3.477,3.477,0,0,1-2.132,1.066h1.244v.178c1.776,0,1.066-.178,2.132-.178h4.263a18.865,18.865,0,0,1,2.665.178v-.533h-.711c-.711,0-1.421-.888-1.776-1.066a1.951,1.951,0,0,1-.711-1.6,36.983,36.983,0,0,1-.355-3.908v-23.8h3.553c1.954,0,3.2.178,3.908.888a5.605,5.605,0,0,1,1.066,3.553l1.244-.355A8.3,8.3,0,0,1,479.335,210.632ZM366.352,244.74c9.948,8.349,29.134,13.856,49.741,13.856s38.549-5.507,48.5-13.856c-11.547,7.106-28.956,11.547-48.5,11.547C396.552,256.109,377.9,251.668,366.352,244.74Z" transform="translate(-179.868 -98.004)" fill="url(#linear-gradient-2)"/>
  <g transform="matrix(1, 0, 0, 1, 0, 0)" filter="url(#패스_102394)">
    <path id="패스_102394-2" data-name="패스 102394" d="M180.574,280.87c0-.178.178-.178.355-.355-.178-.178-.178-.355-.355-.533s-.178-.178,0-.355.178-.355,0-.355l-.178-.178c-.355-.178-.533-.178-.888-.355a1.331,1.331,0,0,1-.888-.178,8.662,8.662,0,0,0-1.243-.533c-.178,0-.178-.178-.355-.178h-.533c-.355,0-.533.178-.888,0h-3.02a.653.653,0,0,0-.533.178.333.333,0,0,1-.533,0c-.178,0-.355,0-.355.178a.653.653,0,0,0-.533.178H169.56c-.355.178-.355,0-.355.355a.174.174,0,0,1-.178-.178l.178-.178c0-.178.178-.178.178-.355s.178-.355.178-.533v-.355c0-.178-.178-.178-.178-.355-.178-.178,0-.355,0-.533a.174.174,0,0,1,.178-.178c0,.178.178.178.178.355,0,0,0,.355.178.355V275.9c0-.178,0-.178-.178-.355,0,.178,0,.178-.178.355,0,0-.178.178-.178,0a.174.174,0,0,0-.178-.178v-.178a.174.174,0,0,1,.178-.178,2.366,2.366,0,0,1,.533-.888l.355-.355a1.347,1.347,0,0,0,.355-.711,11.324,11.324,0,0,0,.355-1.244v-.711a1.347,1.347,0,0,0,.355-.711c.178-.355.178-.888.355-1.243v-.178c0-.178,0-.355.178-.355a1.132,1.132,0,0,0,0-1.066,3.868,3.868,0,0,0-.888-1.421l-.178-.178c0-.178,0-.355-.178-.178l-.711-.711a3.186,3.186,0,0,0-1.244-.888c-.355-.178-.533-.355-.888-.533l-.178-.178c-.178-.178-.355-.178-.533-.355,0-.178-.178-.178-.178-.355-.178-.178-.355-.178-.533-.355-.178,0-.178-.178-.178-.355a.653.653,0,0,1-.533-.178,1.068,1.068,0,0,0-.711-.178c-.178,0-.178,0-.355-.178a.174.174,0,0,1-.178-.178.382.382,0,0,1-.355-.355l-.178-.178a1.068,1.068,0,0,1-.711-.178h-1.243c-.178,0-.355.178-.533,0h-.178a.174.174,0,0,0-.178.178c-.178-.178,0-.355.178-.355.178-.178.355,0,.533.178.178-.355-.178-.355-.355-.533.178,0,.355-.178.533-.178s.178-.178.355-.178h.355c-.178.178-.533.178-.533.533a.174.174,0,0,0,.178.178c.178,0,.355.178.533.178a1.068,1.068,0,0,1,.711.178h.355c0-.178.178-.178.178-.355s.178-.178.178-.355v-.178a.174.174,0,0,0-.178-.178v-.178h.533a1.331,1.331,0,0,1,.888-.178H166.9a1.068,1.068,0,0,1,.711.178h.178a1.331,1.331,0,0,0,.888.178H170.8a.62.62,0,0,1,.355.178.653.653,0,0,1,.178.533,1.068,1.068,0,0,0,.178.711l.533.533.355.355c.355.178.533.533.888.711l.178.178c0,.178,0,.178.178.178s.178,0,.178.178.178.355.178.711a.174.174,0,0,0,.178.178c-.178.178,0,.355.178.355s.178,0,.355.178h.178a.55.55,0,0,1-.355-.178h.533c.178,0,.355.178.711.178h.178c.178.178.355,0,.355-.178V264.7c0-.178.178-.355,0-.355v-.178a.174.174,0,0,1,.178-.178l.178-.178c0-.178.178-.178.178-.355s0-.355.178-.355c.178-.178.178-.178.178-.355v-.533c0-.355.178-.533,0-.888v-.178c.178-.178,0-.355,0-.533v-.533h-.178v-.355s.178-.178,0-.178a2.525,2.525,0,0,0-.355-1.066c0-.178-.178-.355-.178-.533s-.178-.355-.178-.533c-.178-.178-.178-.178-.178-.355s0-.178-.178-.178a.174.174,0,0,0-.178-.178v-.178a3.716,3.716,0,0,0-.711-1.066l-.178-.178a1.774,1.774,0,0,0-.711-.888l-.533-.533c-.355-.178-.533-.533-.888-.888a.923.923,0,0,0-.711-.355,1.068,1.068,0,0,0-.711.178c-.178,0-.355.178-.533.355v.178a.923.923,0,0,0-.355.711v1.776c0,.178,0,.355.178.355a.174.174,0,0,0,.178.178.174.174,0,0,1-.178.178c0,.178-.178.178-.178,0v-.178c-.178-.178-.178-.355-.355-.178h-.178c-.178-.178-.355-.355-.533-.355l-.178-.178-.533-.533c-.355-.178-.711-.178-1.066-.355h-2.132c-.178,0-.355.178-.533.178s-.178,0-.355.178v.178h-.178s-.178-.178,0-.178l.178-.178.178.355h-.355c.178,0,0-.178-.178,0,0,.178-.178,0,0,0,0,.178,0,.178-.178.355H163.7l-.178-.178a.382.382,0,0,1-.355-.355c0-.178-.178,0-.178,0v-.355c.178,0,.178.178.355,0l-.178-.178c-.178-.178-.178-.178-.178-.355s.178-.178.355-.355c-.711.178-.711,0-.355,0,.178-.178.178-.178.355,0,0,0,.178.178.178,0v-.178l-.178-.178c.178-.178.355-.178.355,0,.178-.178.178-.533.355-.711v-.355c-.178-.178-.178-.355-.355-.711a3.186,3.186,0,0,0-.888-1.244l-.533-.533c-.178-.178-.178-.178-.355-.178a1.51,1.51,0,0,1-.888-.533l-.533-.533c-.355-.178-.533-.533-.888-.711-.178-.178-.533-.355-.711-.533l-.533-.533c-.178-.178-.178-.178-.355-.178s-.178,0-.355-.178-.355-.178-.711,0c-.355,0-.533.178-.711.178h-.178a3.717,3.717,0,0,0-1.066.711c-.178,0-.178.178-.355.178a.174.174,0,0,0-.178.178c0,.178-.178.355-.355.533l-.178.178h.178c.178-.178.355-.178.711-.178h.178a1.6,1.6,0,0,1,.888-.178c.178,0,.355,0,.355-.178a1.068,1.068,0,0,1,.711.178c.178.178.355.355.533.355h.178c.355.178.355.533.533.888v.355a.55.55,0,0,0-.178.355h.178c0,.178-.178.355,0,.533v1.421c0,.178-.178.355-.178.533a.653.653,0,0,1-.178.533v.355c0,.178-.178.355,0,.533v.178c0,.178-.178.355-.178.533v.533c.178.178,0,.533,0,.711-.178.178,0,.355,0,.533a.174.174,0,0,1-.178.178c-.178,0-.178.178-.355.178a.174.174,0,0,0-.178.178c-.355.178-.711.178-1.066.533-.178,0-.533.178-.711.178s-.355.178-.533.178-.178,0-.355.178a3.884,3.884,0,0,0-.888.533c-.178.178-.355.178-.533.355s-.533.355-.711.533l-.178.178a3.717,3.717,0,0,1-1.066.711.174.174,0,0,1,.178-.178.653.653,0,0,1-.178-.533,2.253,2.253,0,0,0,.178-1.066v-.533a.333.333,0,0,1,0-.533v-.178a1.068,1.068,0,0,1,.178-.711c0-.178.178-.178.178-.355v-.178a.653.653,0,0,1,.178-.533v-.711c0-.178.178-.355.178-.533a6.309,6.309,0,0,1,.711-1.6v-.355a.333.333,0,0,0,0-.533c-.178-.355-.178-.355.178-.355h.178a.174.174,0,0,0,.178-.178c-.178-.178-.355-.178-.533-.355,0-.178.178-.355.178-.533v-.178c-.178,0-.178,0-.178.178v.178a.653.653,0,0,1-.178.533v.178h.178c-.355.178-.355.178-.355.533v.178c.178.355-.178.533-.178.711H151.8a.174.174,0,0,0-.178.178c0,.178,0,.355.178.355a.952.952,0,0,0-.533.711c.178.178.178-.178.355-.178,0,.178,0,.355-.178.355a.174.174,0,0,0-.178.178,7.7,7.7,0,0,1-.178.888v.178c-.355.355-.355.888-.533,1.421-.178.355-.178.888-.355,1.244a.653.653,0,0,1-.178.533v.355c0,.178-.178.355-.178.711s-.178.711-.178,1.066a.382.382,0,0,1-.355.355h-.178a3.187,3.187,0,0,0-1.244.888l-.178.178a.174.174,0,0,1-.178.178.62.62,0,0,0-.355.178c-.178,0-.178.178-.355.178a8.9,8.9,0,0,0-1.421,1.244v.178l.178.178v.533a.174.174,0,0,1-.178.178c-.178,0-.178.178-.178.355-.178.178-.355.533-.533.355h-.355v-.178l.178-.178c0-.178.178-.178.178-.355a.174.174,0,0,0,.178-.178.174.174,0,0,1,.178-.178l.178-.178s.178-.178,0-.178h-.178c-.178,0-.178.178-.355.355-.355.355-.711.533-.888.888s-.533.533-.711.711a.923.923,0,0,0-.355.711v.178c-.178,0-.178-.178-.355-.178-.355-.178-.533-.533-.888-.888a2.453,2.453,0,0,1-.533-.711c-.178-.355-.355-.355-.533-.533h-.178c-.178,0-.533.178-.711.178a.653.653,0,0,0-.533.178,1.347,1.347,0,0,1-.711.355h-.355c-.178-.178-.178-.355-.355-.533h-.178c-.178,0-.178,0-.178-.178v-.533a7.692,7.692,0,0,1,.178-.888v-.355a3.468,3.468,0,0,1,.178-1.243v-.178a1.068,1.068,0,0,1,.178-.711v-.533c0-.178.178-.355,0-.533,0-.178,0-.355.178-.355a.174.174,0,0,0,.178-.178l.355-.355c.178-.178.533-.178.711-.533l.178-.178c.178,0,.178-.178.178-.355v-.888a.382.382,0,0,0-.355-.355c-.355-.533-1.066-.888-1.421-1.421a4.711,4.711,0,0,1-.888-1.066v-.178a.653.653,0,0,0-.178-.533l-.178-.178a1.387,1.387,0,0,0-.711-.711c-.355-.178-.711-.355-.711-.888-.888.888-.888.533-1.244.355l-.178-.178a.709.709,0,0,0-.711-.355.174.174,0,0,0-.178.178c-.178.355-.533.711-.711,1.066,0,.178,0,.355-.178.355,0,.178,0,.355-.178.355,0,.178-.178.533,0,.711,0,.178,0,.178.178.355v1.243c0,.178-.178.533-.178.711v1.6a.653.653,0,0,0-.178.533v1.066a2.567,2.567,0,0,0-.355,1.243c0,.178-.178.533-.178.711v.711a2.253,2.253,0,0,1-.178,1.066,3.468,3.468,0,0,1-.178,1.244,3.024,3.024,0,0,0-.178,1.243,3.463,3.463,0,0,1-.178,1.421,3.023,3.023,0,0,1-.178,1.244v2.309c0,.178,0,.178-.178.178s-.178,0-.355.178c-.178,0-.178.178-.355.178s-.355,0-.355.178a1.068,1.068,0,0,1-.711.178c-.178,0-.178,0-.355.178s-.533.355-.711.533h-.355c-.178,0-.178,0-.355.178,0,.355-.178.355-.533.178h-.178a.653.653,0,0,1-.533-.178l-.178-.178c0,.355.355.533.533.711a1.347,1.347,0,0,0-.711.355,3,3,0,0,1-.888.355c-.178,0-.178-.178,0-.178s.178,0,.355-.178c.178,0,.178,0,.178-.178-.178-.178-.178,0-.355,0-.355-.178-.355-.533-.178-.888s0-.533,0-.888h-.355c-.178,0-.178,0-.178.178v.178c0,.178,0,.178-.178.178s-.178.178-.355.178l-.533.533-.711.711a.62.62,0,0,1-.355.178c-.178,0-.178,0-.355.178a.174.174,0,0,0,.178.178c0,.178-.178.178-.178.355s-.178.178-.178.355a.174.174,0,0,1-.178.178c-.178,0-.355.178-.533.178v.178a.653.653,0,0,0,.178.533.62.62,0,0,1,.178.355v.533s.178.178,0,.178v.533a.174.174,0,0,0-.178.178c0,.178.178.355.178.533l-.178.178v.178h.355c-.178.178-.178.178,0,.355-.178.178-.178.178,0,.355h.178c0,.178.178.355.178.533h-.178a.174.174,0,0,1,.178.178c.178.178.178.178.178.355v.711a.174.174,0,0,0-.178.178c.178,0,.178.178.355.178s.178.178.355.178.178.355.355.355l.178.355h.355c.178,0,.178-.355.178-.178s.355,0,.533,0c-.178,0-.178-.178-.178-.355a.62.62,0,0,1-.178-.355c.355,0,.533-.178.711,0h.178c0-.178.178-.178.178-.355l.178.178c.178.178.178,0,.355,0a.174.174,0,0,1,.178-.178c.178,0,.178,0,.178-.178s0-.178.178-.178a.174.174,0,0,1,.178.178c.178-.178.355-.178.533-.355,0,.178.178.355.178.533h.533l-.355-.355v-.178h.178a.653.653,0,0,0,.533-.178c.178,0,.178,0,.355-.178h.178a.174.174,0,0,0,.178.178h.178c0-.178.178-.178.355-.178s.533-.178.711-.178h.355v.178a.174.174,0,0,0,.178-.178.55.55,0,0,0-.178-.355h-.178a.55.55,0,0,1-.355-.178h.178c.178,0,.178,0,.355-.178a.246.246,0,0,1,.355,0s.178.178,0,.178v.178a1.068,1.068,0,0,1-.178.711V281.4c0,.178.178.178.178.355a.174.174,0,0,1-.178.178c0,.178.178.178.178.355s.178.178.178.355-.178.178-.355.178c-.178.355,0,.533,0,.711V283c.178,0,.178.178.178.355v.355c0,.178,0,.178-.178.178s-.178-.178-.355-.178c0,.178,0,.355.178.355a.653.653,0,0,1,.178.533.174.174,0,0,1-.178.178h-.178v.178h.178v.178c0,.355-.178.533-.178.888v1.421a4.829,4.829,0,0,0,0,1.6v2.842c.178.533.178,1.066.355,1.421v1.954c-.178.355-.178.711-.533.888a.174.174,0,0,1-.178.178c0,.178-.178.533-.178.711v.711h-.178v.178a.174.174,0,0,1,.178.178c.178.178,0,.355.178.533.178.355,0,.533,0,.888v.711c0,.178,0,.178-.178.355,0,.178,0,.355.178.355s.178.178.178.355c.178.178.178.355.355.355.178.178.355.178.355.533v.178a.471.471,0,0,1,.533.533c.178,0,.178.178.178.355v.178c.178,0,.355,0,.533.355l.178.178c.178.178.355.178.533.355s.178.178.178.355h.178a.174.174,0,0,0,.178.178c.178,0,.178.178.355.178s.178.178.355.178a.923.923,0,0,0,.711.355.333.333,0,0,0,.533,0c.355,0,.533-.355.533-.711V304.5s0,.178.178,0v-.178c0-.178-.178-.178-.178-.355s-.178-.178-.178-.355c0-.355-.178-.533-.178-.888v-.355c.178-.178.178-.178,0-.355v-.178c-.178,0-.178,0-.355-.178.178,0,.178,0,.178-.178-.355-.355-.178-.711-.178-1.066v.178c.178.178.178.178,0,.355h.178v-.533c0-.178,0-.355-.178-.355s-.178-.178-.178-.355l.178.178s.178.178.178,0V299.7l-.178-.178a.246.246,0,0,1,0-.355h.178v-.533c0-.178-.178-.178-.178-.355v-2.842a1.331,1.331,0,0,1,.178-.888v-.355c0-.178,0-.178.178-.355a.55.55,0,0,1-.178-.355c0-.178.178-.178.178-.355a.174.174,0,0,0,.178.178s.178.178.178,0-.178-.355-.178-.533,0-.178.178-.178.178,0,.178-.178c-.355-.178-.355-.355-.178-.533.178,0,.178.178.355.178s.178.178,0,.355v.178c0-.178.178-.355.355-.533v-.533c0-.178.178-.178.178-.355s.178-.355,0-.355a.174.174,0,0,0,.178-.178c.178,0,.178-.178.355-.178,0-.178-.178-.355-.178-.533v-.711l.178.178.355-.355c-.178,0-.178,0-.178-.178a.174.174,0,0,1-.178-.178,1.068,1.068,0,0,1,.178-.711h.178a.174.174,0,0,1,.178.178l-.178.178h.355a.333.333,0,0,0,0-.533h-.355l-.178-.178v-.355c.178,0,.178-.178.355-.178h.178c.178,0,.178.178.355,0v-.355c0,.178,0,.178.178.178l.178-.178c0-.178,0-.355-.178-.355l-.178-.178c.178.178.355-.178.533-.178s.178-.178,0-.533a.174.174,0,0,0-.178.178h-.178v-.355c-.178,0,0-.178,0-.178h.355v.178c.178,0,.355-.178.355-.533a.653.653,0,0,1,.178-.533l.178-.178h.178v-.178c-.178,0-.533-.178-.711,0-.178,0-.178.178-.178.355s0,.355.178.355v.178c-.178,0-.178-.178-.355-.178l-.178.178c0,.178-.178.178-.178.355v-.355l.533-1.066c0-.178.178-.355.178-.533a.382.382,0,0,1,.355-.355c.178,0,.355,0,.355-.178a.174.174,0,0,0,.178-.178c.178,0,.178-.178,0-.355-.178,0-.178.178-.355.178,0-.178-.178-.178-.178-.355l.178-.178v-.178c0-.178.178-.178.178-.355v-.178c0-.178-.178-.178-.178-.355,0,.178-.178.355-.178.533s-.178.178-.178.355,0,.355-.178.355v.355c-.178,0-.178,0-.178.178a.62.62,0,0,1-.178.355v.355c-.178.178-.178.355-.355.533a.174.174,0,0,1-.178.178v-.355a2.525,2.525,0,0,0,.355-1.066.923.923,0,0,1,.355-.711,7.424,7.424,0,0,1,.711-1.776c0-.178.178-.178.178-.355s.178-.355.178-.533v-.178c-.178,0-.178-.355-.178-.533-.178.178-.178.355-.355.533,0,.178-.178.178-.178.355-.178,0-.178.178-.178.355.178,0,.178,0,.178.178s0,.355-.355.533l-.178.178c.178.178,0,.355-.178.355a.174.174,0,0,0-.178.178c0,.178,0,.355-.178.355a.62.62,0,0,1-.178.355.382.382,0,0,1-.355.355c-.178-.178,0-.178,0-.355l-.178.178a.174.174,0,0,0,.178.178.62.62,0,0,1-.178.355c-.178.355-.533.888-.711,1.244s-.355.533-.533.888a3.716,3.716,0,0,1-.711,1.066v.178a.923.923,0,0,1-.355.711c-.178.178-.178.355-.355.533v.178c.178.178,0,.355-.178.533v-.888c0-.355-.178-.533.178-.888h.178v-.178a.174.174,0,0,0-.178-.178h-.178c-.178,0-.178-.178-.178-.355v-.888c0-.355-.178-.888,0-1.243-.178-.355,0-.711,0-1.066V279.8a1.6,1.6,0,0,1,.178-.888v-2.842c0-.355.178-.533.178-.888.178.178.178.178.355,0H133.5c0-.178,0-.178-.178-.355,0-.178,0-.178.178-.355h.355c.178,0,0,.178,0,.178s-.178.178,0,.178c.178-.178.178-.355.355-.533a.55.55,0,0,1,.178-.355h-.355a.55.55,0,0,1-.355-.178.174.174,0,0,0,.178-.178c.355-.178.533-.355.888-.533.178-.178.355-.355.533-.355l1.066-.533c.178,0,.178-.178.355,0l.178-.178a1.357,1.357,0,0,1,.888-.355.174.174,0,0,0,.178-.178v.355c.178-.178.178-.178.178-.533.355-.178.711-.533,1.066-.711.178-.178.533-.178.711-.355a4.452,4.452,0,0,1,1.244-.711h.178v.178c-.178,0-.178.178-.355.178a.174.174,0,0,0-.178.178v.178h.178c.178,0,.178-.178.355-.178s.178-.178.355-.355v-.533c0-.178,0-.178.178-.355,0-.178,0-.355.178-.355.178-.355.178-.355-.178-.533-.178-.178-.178-.178-.178-.355s.178-.178.178-.355.178-.178.355,0,.178.178.178.355,0,.178.178.355c0-.178.178-.355.178-.711a.382.382,0,0,1-.355-.355c0-.178,0-.178.178-.355a.174.174,0,0,0,.178-.178l.533-.533.178-.178.533-.533a3.12,3.12,0,0,1,.888-.711,2.452,2.452,0,0,1,.711-.533c.178,0,.178,0,.355-.178.178,0,.178-.178.355-.178s.355-.178.533-.178.178-.178.355-.178.178,0,.178.178v3.553c-.178.178-.178.355-.355.711-.178.178-.178.533-.355.711a.62.62,0,0,1-.178.355c0,.355-.178.533-.355.888v.178c0,.178-.178.533-.178.711a.62.62,0,0,1-.178.355c0,.178-.178.355-.178.533a2.567,2.567,0,0,0-.355,1.243c0,.355-.178.533-.178.888a.653.653,0,0,1-.178.533c0,.178-.178.355-.178.711v.178a.62.62,0,0,1-.178.355.382.382,0,0,1-.355.355c-.178,0-.355.355-.711.355,0,.178-.178.355-.178.533s0,.178.178.355l.178.178a.653.653,0,0,0-.178-.533l.178-.178h.178v.178c-.178.178,0,.355,0,.533v.178c.178.178.355.533.533.711v.178c.178.178.178.178,0,.355s0,.178.178.355h.178a.174.174,0,0,0-.178.178c.178.178.355.178.533.355s.178.178.178.355c.178.355.178.711.355,1.066,0,.178.178.178.178.355s.178.178.178.355a1.6,1.6,0,0,1,.178.888v.178a.54.54,0,0,1,0,.711.174.174,0,0,1,.178.178c.178,0,.355.178.533.178.178.178.178.178.178.355v.178c0,.178,0,.178-.178.178-.178.178-.533.178-.711.355h-.178c-.178,0-.178,0-.355.178l-.178.178c-.178,0-.355.178-.533.178-.355.178-.711.178-1.066.533-.178.178-.355.355-.711.178,0,.178,0,.178-.178.178,0,0-.178.178-.178,0-.178,0-.178,0-.355.178l-.178.178c-.178,0-.178.178-.355.178h-.178c-.178.178-.533.178-.711.355-.178,0-.178,0-.178-.178l.355-.355c0-.178.178-.178.178-.355a.174.174,0,0,1,.178-.178l.711-.711c0-.178.178-.178.178-.355.178-.355.355-.533.533-.888,0,0,.178-.178,0-.178-.178.178-.355.178-.355.355-.178.355-.533.355-.711.711-.178.178-.533.355-.711.533s-.178.178-.355.178-.355.178-.533.355l-.533.533c-.178.178-.178.178-.178.533,0,.178-.178.178-.355.178a.174.174,0,0,1-.178-.178h-.533c0,.178-.178.178-.355.355l-.178.178-.178.178c-.178.178-.355.178-.355.355a.382.382,0,0,1-.355.355c-.178,0-.178.178-.178.355.178.178.355.533.533.711a.174.174,0,0,0,.178.178c0,.355.355.533.533.711,0,.178.178.178.178.355s.178.178.355.355l.355.355.355.355h.178c0,.178.178.178.355.178h.533c.178-.178.533,0,.711-.178a.653.653,0,0,0,.533-.178l.178-.178v.178l-.178.178v.178h.178c.178,0,.178-.178.355-.178.178.178.178,0,.355,0s.355-.178.533-.178h.178c.178-.178.355-.178.533-.355.178,0,.355-.178.533-.178v.178l-.178.178c-.178.178-.355.355-.533.355h-.178c-.178.178-.355.178-.533.355v.178c.178.178.178,0,.355,0s.178-.178.355-.178.355-.178.533-.178l.178-.178c.178,0,.178,0,.178-.178v-.178c.178.178.178.178.355,0s.178-.178.178-.355c-.178,0-.355.178-.355-.178l.178-.178c.178-.178.178-.178.355-.178a.174.174,0,0,0,.178-.178l.533-.533.533-.533a.174.174,0,0,1,.178-.178c.178,0,.178,0,.355-.178v-.178c.178,0,.178.178.355.178a.62.62,0,0,0-.355.178.174.174,0,0,0-.178.178l.178.178.178.178c.178.178,0,.178-.178.178h-.533c-.355.178-.533.355-.533.711s-.178.533-.178.888a.54.54,0,0,0,0,.711c0,.355.178.711.178,1.066,0-.178-.178-.355-.178-.533a1.931,1.931,0,0,0-.178-.888c0-.178,0-.178-.178-.355h-.178c-.178,0-.178.178-.355.178v.178c.178.178.178.178.178.355v.178c.178,0,.355,0,.355.178a.653.653,0,0,0,.178.533v.178h-.355v.355c0,.178,0,.178.178.355a1.068,1.068,0,0,0,.178.711c0,.178.178.355.178.533v.178c.178,0,.355-.178.355,0,.178.178.355.533.533.711,0,.355.178.533.355.888s.355.533.355.888a.174.174,0,0,0,.178.178.923.923,0,0,1,.355.711v.355c0,.178.178.178.178.355.178.178.178.178.178.355s.178.355.355.533v-.178c.178.178.178.178,0,.355.178,0,.178.178.355.355a.923.923,0,0,0,.711.355.174.174,0,0,1,.178.178c0,.178,0,.178.178.178v.178h-.355c0,.178.178.178.355.178h.533c.178.178.355.178.533.355a1.51,1.51,0,0,0,.888.533c.355.178.533.533.888.711l.178.178c.178,0,.178.178.355.178.178.178.355.178.533.355.178,0,.178.178.355.355h.178l.533.533h.178c.178,0,.355,0,.355.178.355-.178.533,0,.711.178,0,.178,0,.355.178.178.178,0,.355,0,.355.178.178,0,.178.178.355.178h.711c.178,0,.178,0,.178.178a.174.174,0,0,1,.178-.178c.178.178.711.355.888.178.178.178.178.178.355,0h.178a1.068,1.068,0,0,0,.711.178.653.653,0,0,1,.533.178c.178,0,.355,0,.355-.178a1.068,1.068,0,0,1,.711.178l-.178.178h.711c.178,0,.355-.178.711-.178h3.2c.178,0,.355-.178.533-.178h.711c-.178.178-.178.178-.355.178a.333.333,0,0,0,.533,0c0-.178.178-.178.178-.355s0-.178-.178-.355h-.355c-.178.178-.178.178-.355.178s-.178,0-.178-.178a.174.174,0,0,1,.178-.178.653.653,0,0,0,.533-.178c.178,0,.178-.178.355,0h.178l.178-.178a.174.174,0,0,1,.178-.178v-1.244c-.178-.355,0-.533,0-.888,0-.178,0-.178.178-.178h-.178v-1.066a.174.174,0,0,1,.178.178v-.355c0-.178,0-.178-.178-.178,0,.178.178.355-.178.355v-.533c0-.178,0,.355.178.178v.711h-.178v-3.375c0-.178,0-.178.178-.355v-.355c0-.178,0-.178-.178-.355,0-.178,0-.178-.178-.178h-.178c0-.355,0-.533.178-.711a.174.174,0,0,0,.178.178c.178,0,.178.178.178.355a1.331,1.331,0,0,0,.178.888c0,.178,0,.178.178.178v-.888c0-.178-.178-.533,0-.711V296.5c-.178,0-.178.178-.355,0h-.178c-.178,0-.178,0-.355-.178a.55.55,0,0,0-.178-.355c.178,0,.178-.178.355,0,.178,0,.178.178.355.178l-.355-.355c-.178,0-.355.178-.355,0v-.178a.653.653,0,0,0,.178-.533v-.355a.888.888,0,0,1,0-1.066v-.711a.174.174,0,0,0,.178-.178c0-.178-.178-.355-.178-.533a.653.653,0,0,1-.178-.533v-.888c0-.178.178-.355,0-.711v-1.954c0-.178,0-.178.178-.355s.178-.178.178-.355v-.711c0-.178.178-.355,0-.533l.533-1.066v-.178c.178-.178.355-.355.533-.355v-.178h.178a1.347,1.347,0,0,0,.711-.355c.178,0,.178-.178,0-.355a.55.55,0,0,1-.355-.178l.178-.178c.178-.178.178-.178,0-.355,0-.178-.178-.178-.178-.355v-.178c-.178-.355-.355-.888-.533-1.243,0-.178-.178-.355-.355-.533s-.178-.355-.355-.355c1.421,3.908,1.244,3.731,1.244,3.553-.178-.178-.355-.533-.533-.711a2.453,2.453,0,0,0-.711-.533c-.178,0-.178-.178-.355-.355a2.253,2.253,0,0,1,1.066-.178c.178,0,.178,0,.178-.178v-.178c.533-.178.888-.533,1.421-.355.178,0,.178,0,.355.178h.355c.178,0,.355.178.533,0a.174.174,0,0,1,.178-.178h.711a3.912,3.912,0,0,0,1.421-.178h.533a.62.62,0,0,1,.355.178h.178c.178,0,.355-.178.711-.178H177.2c.355,0,.533.178.888.178h.355c.178,0,.178,0,.355.178h.178V281.4c.178,0,.355-.178.533-.178s.355-.178.533,0a2.2,2.2,0,0,1,.533-.355c-.178.178,0,.178,0,0ZM162.81,260.264c.355,0,.533-.178.888-.178a.382.382,0,0,1-.355.355c.178.178.178.355,0,.355h-.178c0-.178,0-.178-.178-.355-.355,0-.178-.178-.178-.178Zm-.533-4.619Zm-.178-.178c0,.178,0,.178-.178.178Zm-6.4-7.816c.178-.178.178-.178.355,0Zm2.132,0h0c-.178,0,0-.178,0,0Zm-6.218,4.441Zm-.533,1.421Zm-27.89,21.673h0Zm5.152,4.8-.178.178h-.355c-.178.178-.355,0-.533.178a.174.174,0,0,0,.178-.178c.178,0,.355-.178.711-.178,0-.178.178-.178.178,0Zm6.218,22.561Zm3.553-21.673v-.355a.174.174,0,0,0,.178-.178.174.174,0,0,1,.178-.178c0,.178,0,.355-.178.355C138.295,280.87,138.295,280.87,138.117,280.87Zm-1.066,5.152v.178a.174.174,0,0,1-.178.178A.62.62,0,0,1,137.051,286.022Zm-.178.533Zm-.178.355Zm.355.533a.174.174,0,0,1,.178-.178c.178.178.178.355-.178.711a.62.62,0,0,0-.355-.178c.178,0,.178-.178.355-.355Zm-1.776,5.329a.653.653,0,0,1-.178-.533.62.62,0,0,1,.355-.178.174.174,0,0,1,.178.178C135.63,292.417,135.452,292.6,135.275,292.773Zm.355-1.244h.355C135.808,291.707,135.808,291.707,135.63,291.529ZM135.985,290.819Zm.355-3.2h0v.355A.246.246,0,0,1,136.341,287.621ZM136.163,288.332Zm-.178.888h0c.178,0,.178,0,.178.178C135.808,289.4,135.808,289.4,135.985,289.22Zm-.355.888c0,.178.178.178.178.355l-.355.355C135.452,290.463,135.63,290.286,135.63,290.108Zm.178.888c-.178.178-.178.178-.355.178C135.452,291,135.63,291,135.808,291Zm-.355.355a.174.174,0,0,1-.178.178c.178.178.178,0,.355,0,0,.178,0,.178-.178.178s-.178-.178-.178-.355Zm.888-23.627h0l-.178-.178c.178,0,.178,0,.178.178Zm.711-.711c0,.355-.355.355-.533.533v-.178h.355c0-.178,0-.178-.178-.178s-.178,0,0-.178a.174.174,0,0,1,.178.178v-.355c.178,0,.355,0,.355.178l.178.178C137.229,267.014,137.229,267.014,137.051,267.014Zm5.329,1.244h0c-.178-.178,0-.178,0-.178s.178,0,0,.178Zm1.6-1.6-1.066,1.066a.62.62,0,0,1-.355.178c-.178-.178-.178-.178,0-.355l.355-.355a1.347,1.347,0,0,0,.711-.355c0-.178.178-.355.355-.178Zm1.066-1.954Zm-.178,13.856a.174.174,0,0,1,.178-.178C145.045,278.561,145.045,278.561,144.868,278.561Zm-3.02,11.369v-.178h.355C142.2,289.93,142.025,289.93,141.848,289.93Zm4.974,6.928a1.357,1.357,0,0,1-.355-.888c0,.178.178.178.178.355a.62.62,0,0,1,.178.355v.178ZM160.5,267.369v.711c-.178,0-.178-.178-.355-.178C160.145,267.547,160.323,267.369,160.5,267.369Zm-.178,7.994c.178,0,.355,0,.178-.178v-.533c0-.178,0-.178.178-.178h.355s.178.178.178,0V274.3h-.178a.649.649,0,0,1,.888-.355h.178a.174.174,0,0,1,.178-.178c.178-.178.533-.178.533-.355a.174.174,0,0,1,.178-.178c.178,0,.355,0,.355-.178,0,.178,0,.178.178.178s.178,0,.178.178-.178.178-.178.355a.653.653,0,0,1-.178.533.174.174,0,0,1-.178.178c.178.178.178.355,0,.711s-.178.355-.533.355c0,.178,0,.178-.178.178a.174.174,0,0,0-.178.178c-.178.178-.355.178-.533.355h-.178a.174.174,0,0,0-.178.178c0,.178-.178.178-.355.355h-.178a.174.174,0,0,0-.178-.178.174.174,0,0,1-.178-.178v-.178h.355l-.533-.533c.178.355-.178,0,0-.355Zm0-.533Zm3.375-1.6c0-.178.178-.178.178,0C163.876,273.232,163.7,273.054,163.7,273.232Zm-2.665,3.731h0c-.178.178-.178,0,0,0Zm-1.066-.533c0-.355.178-.355.355-.178h.178v.178a.174.174,0,0,1-.178.178h.178c0,.178-.178.355-.355.533,0,.178-.178.178-.355.178s-.178-.178-.178-.355C159.967,276.962,159.967,276.607,159.967,276.429Zm-5.152-13.679a.174.174,0,0,0,.178-.178h.178a.62.62,0,0,0,.355-.178c.178,0,.178-.178.355-.178h.178v.178a.174.174,0,0,0-.178.178H155.7v.178h.178a2.453,2.453,0,0,1,.711-.533.174.174,0,0,0,.178.178c-.178.178-.178.355-.355.711v.533c0,.355-.178.533-.178.888l-.178.178-.178.178c-.178.178-.355.355-.533.355-.355,0-.355.178-.533.355s-.355.533-.711.533l-.178.178a.62.62,0,0,1-.355.178c-.178,0-.178,0-.178.178v.178c-.178.178-.355.533-.533.711a.174.174,0,0,0-.178.178l-.178.178c-.178.178-.178.178-.355,0,.178-.178.178-.355.355-.355v-.178c0-.178.178-.178.178-.355.178-.178.178-.355.355-.533l.178-.178.355-.355a.382.382,0,0,1,.355-.355c0-.178.178-.178.178-.355l.178-.178v-.178l-.178-.178a.174.174,0,0,0-.178-.178v-.355a.174.174,0,0,1,.178-.178c.178-.178.178-.355.355-.533.178-.533.178-.533.355-.711Zm.711,14.922c-.178-.178-.533-.355-.711-.178v.178c.178.178.355.355.533.355-.178.178-.178.178-.355.178s-.178-.178-.355-.178c0-.178-.178-.178-.178-.355a.382.382,0,0,0-.355-.355l-.178-.178a.174.174,0,0,0-.178-.178c-.178,0-.178-.178,0-.355V275.9c-.178,0-.178-.178-.178-.355l-.355.355a.653.653,0,0,1-.178-.533c0-.178,0-.178.178-.178h.355c.178,0,.178,0,.178.178a.174.174,0,0,0,.178.178c0-.355,0-.355.355-.355h.178c.178,0,.178,0,.355.178.178,0,.178,0,.355.178a1.068,1.068,0,0,1,.711.178.174.174,0,0,1,.178.178v.888a.653.653,0,0,1-.178.533v.178a.653.653,0,0,1-.178.533c.178-.178,0-.178-.178-.355Zm.178.711ZM153.572,272.7Zm2.665-1.421c-.178.178-.355.178-.533.355s-.355.178-.533.355c-.178,0-.355.178-.533.178,0-.355.178-.355.355-.355h-.533c-.178,0-.355.178-.178.355v.178h-.355c-.355,0-.355,0-.355.355-.178,0-.178,0-.178-.178s.178-.355.355-.533h.178v-.355c0-.178.178-.355.355-.711,0-.178.178-.355.355-.533l.178-.178a.174.174,0,0,1,.178-.178c.178,0,.178.178.178.355a.382.382,0,0,1-.355.355v.178h.178a2.453,2.453,0,0,1,.711-.533.174.174,0,0,0,.178-.178v-.178c0,.178,0,.355-.178.355v.355a.178.178,0,1,0,0,.355c.711,0,.711,0,.533.178Zm-.355-1.6v.355l-.178-.178c-.178,0-.178-.178.178-.178Zm0-.355Zm-2.665-6.4Zm-2.309,1.954c0-.178,0-.355.355-.533.178,0,.178-.178.355-.178a.174.174,0,0,0,.178-.178c.178,0,.178-.178.355-.178a.653.653,0,0,1,.533-.178l.178-.178s.178-.178.178,0h.178c.178-.178.355-.178.533-.355v-.178c.178,0,.533-.178.711-.178a.174.174,0,0,1-.178.178c-.355.178-.533.355-.888.533l-.355.355-.533.533c-.178.178-.355.355-.533.355a.62.62,0,0,0-.355.178c.178.178.178.178,0,.355l-.178.178a2.453,2.453,0,0,0-.533.711h-.178v-.178A2.64,2.64,0,0,0,150.908,264.882Zm.533,13.679Zm-1.244,5.507a2.253,2.253,0,0,0,.178-1.066v-.533c0-.178,0-.178.178-.178,0,.178.178.178.178.355V283s-.178.178,0,.178.355-.178.178-.355a7.692,7.692,0,0,1,.178-.888c-.178-.178-.178-.178-.178-.355s0-.178-.178-.355c-.178.178,0,.355-.178.533a.653.653,0,0,1-.178.533v-1.066c0-.178.178-.355.178-.711,0-.178.178-.533.178-.711s.178-.355.178-.533h.355c.178.178.178.355.355.533a.174.174,0,0,0,.178.178.174.174,0,0,1,.178.178l.533,1.066a.174.174,0,0,0,.178.178c.178.355.178.355.533.533v.178h.355v.355h.355c-.178.178,0,.355.178.533l.178.178a.174.174,0,0,0,.178.178c.178,0,.178,0,.178.178s0,.178-.178.178h-.178c-.533.178-.888.533-1.421.711-.178.178-.533.178-.711.355l-1.066.533H150.2a.653.653,0,0,1,.178-.533c0,.178,0,.178.178.355.355,0,.533-.355.888-.355-.178-.178-.355,0-.533.178l-.178-.178a.174.174,0,0,0,.178-.178v-.178c0-.178,0-.178-.178-.178h-.178a.55.55,0,0,0-.355-.178v.355C150.019,284.246,150.019,284.068,150.2,284.068Zm-2.132,7.283c-.178,0-.178-.178,0-.178l.178-.178c.178,0,.178-.178.355-.178a.62.62,0,0,1,.355-.178h.178l-.178.178c-.178.178-.178.178-.178.533v.178c0,.178-.178.178-.355.178C148.243,291.352,148.243,291.352,148.065,291.352Zm1.6,12.258Zm7.816.178c.355-.355.355-.355.355-.178C157.658,303.609,157.658,303.787,157.48,303.787ZM163.7,310h-.178a.174.174,0,0,0,.178-.178Zm1.066-21.5v1.244l.178.178a.174.174,0,0,0-.178.178l-.178.178c.178.178.178.178.178.355v2.309c0,.533,0,.355-.178.711,0,.178.178.178.178.355a.174.174,0,0,1-.178.178v2.665c.178.178,0,.355.178.533v.178a.653.653,0,0,0-.178.533v.178c-.178.355,0,.711-.178.888v1.6c0,.178,0,.178-.355.355,0,.178.355.178.178.355-.178,0-.355,0-.355.178h.355c0,.355-.355.533-.711.355,0,.178.178.355.355.533v.178a.62.62,0,0,0-.178.355.382.382,0,0,1-.355.355h-.178c-.178.178-.355.178-.711.178h-.178a1.331,1.331,0,0,1-.888.178v.178a2.525,2.525,0,0,0-1.066.355h-1.244c-.178,0-.178,0-.178-.178h-.711a.174.174,0,0,0,.178-.178l-.533-.533h-.178c-.355-.178-.533-.178-.888-.355h-.533c.178,0,.355.178.533.178s.355.178.533.178c0,.178,0,.178-.178.178v-.178c-.178.178-.355.178-.533-.178a.653.653,0,0,0-.533-.178h-.178c-.178-.178-.178-.178-.355-.178h-.355c-.178,0-.355-.178-.533-.178,0-.178-.355-.178-.355-.355a.653.653,0,0,0-.533-.178h-.178c-.355,0-.533,0-.711-.355a.174.174,0,0,0-.178-.178.174.174,0,0,1-.178.178c-.178,0-.178,0-.178-.178v-.178c-.355-.178-.355-.355-.533-.711a.174.174,0,0,0-.178-.178.382.382,0,0,1-.355-.355c0-.178-.178-.178-.178-.355-.178-.178-.355-.533-.533-.711a.62.62,0,0,1-.178-.355c0-.178-.178-.355,0-.533l-.178-.178a.62.62,0,0,1-.178-.355v-.178a.653.653,0,0,1-.178-.533c0-.178-.178-.178-.355-.355V296.5c-.355,0-.355-.355-.355-.533,0,0,.178-.178.178,0,.178,0,0,.178,0,.355.178.178.178.178.355.178v-.178c0-.178-.178-.178,0-.355v-.533c0-.178.178-.533.178-.711a.174.174,0,0,1,.178-.178v-.178c0-.178,0-.178.178-.355-.178,0-.178.178-.355.178v-.178h-.178a1.6,1.6,0,0,1-.178.888v.178c0,.178,0,.178-.178.178l-.178-.178c0-.178-.178-.355-.178-.533s0-.355.178-.355c.178-.178.178-.355.178-.711,0-.178,0-.178.178-.355,0-.178.178-.178.178-.355a.174.174,0,0,0,.178-.178c.178.178,0,.178,0,.355.178.178.355,0,.355-.178h.355V292.6l-.178-.178a.246.246,0,0,1,0-.355l.355-.355h.711c.178,0,.178,0,.178-.178h-.178c0-.178.178-.355.178-.533a.653.653,0,0,1,.533-.178c.178.178.533.178.711.355,0-.178-.178-.355-.355-.533h1.6a.174.174,0,0,0,.178-.178l.178.178h-1.066l-.355.355c-.178.178,0,.178.178.355h.178a.174.174,0,0,1-.178.178.649.649,0,0,1,.888.355c0,.178-.178.178,0,.355s.178,0,.355,0h.533c.178,0,.178.178.355.178.178.178.533.355.711.533.178.355.533.533.711.711s.178.355.533.533c.178,0,0,.178,0,.355.178.178.355.355.533.355l.178.178.178.178a.382.382,0,0,0,.355.355.382.382,0,0,1,.355.355h.178a.178.178,0,1,0,0,.355v-.178a.174.174,0,0,1,.178-.178H160.5c.178,0,.355-.178.533-.178v-.178c0-.178,0-.178.178-.178s.178,0,.178-.178h.178c.178,0,.178-.178.178-.355s0-.178.178-.355c0-.178.178-.533.178-.711-.178-.178-.178-.178-.178-.355v-.178c-.178-.178-.178-.355-.355-.711v-.355c.178-.355,0-.533,0-.711s-.178-.355-.178-.533v-.355a.8.8,0,0,0-.533-.533.62.62,0,0,1-.355-.178.174.174,0,0,0-.178-.178,4.711,4.711,0,0,1-1.066-.888c-.355-.178-.533-.355-.888-.533-.178-.178-.533-.178-.711-.355-.178,0-.178-.178-.355,0a1.343,1.343,0,0,1-.711-.178,1.6,1.6,0,0,0-.888-.178H153.75a.653.653,0,0,0,.533-.178h1.066a.174.174,0,0,0,.178-.178c0-.178,0-.178-.178-.178h-1.066a.653.653,0,0,0-.533.178c-.355.178-.533.178-.888.355h-.178c-.178.178-.533.355-.711.533a1.068,1.068,0,0,1-.711.178,1.6,1.6,0,0,0-.888.178s-.178.178-.178,0c-.178,0-.178-.178-.355,0h-.178l.355-.355h.178a1.357,1.357,0,0,1,.888-.355l1.066-.533c.178,0,.178-.178.355-.178,0,.178-.178.355-.178.533.178.178.355,0,.533,0a.382.382,0,0,0,.355-.355h-.178c-.178,0-.178,0-.178-.178a.923.923,0,0,1,.711-.355c.178,0,.355-.178.533-.178.355-.178.533-.355.888-.355h.178a5849.52,5849.52,0,0,1,.711-.711c0-.178.178-.178.355-.355.178,0,.178-.178.355-.178l.178-.178a.174.174,0,0,0,.178-.178c.178,0,.178.178.355,0a.55.55,0,0,1,.355.178l.178-.178c0-.178.178-.178.355-.178.355-.178.888-.178,1.244-.533a1.347,1.347,0,0,1,.711-.355c.178,0,.355-.178.711-.355.178,0,.355-.178.533-.178.178-.178.355-.178.711-.355h.178c.178,0,.355-.178.533-.178s.178,0,.355.178c.178,0,.178,0,.178-.178l.178-.178c.178,0,.355-.178.533-.178a.174.174,0,0,1-.178.178h.355v.178s0,.178.178,0v-.178h.178c0,.178.178.355.178.533s0,.178-.178.178h-.355c0,.178,0,.178.178.178h.355v.178a1.347,1.347,0,0,0,.355.711c-.178.178-.178.178,0,.355v.178a.653.653,0,0,0,.178.533v.533c-.178,0-.178.355-.355.355v.178a.174.174,0,0,0,.178-.178c.178-.178.178-.178.355,0l-.178.178C164.942,288.154,164.942,288.332,164.764,288.509Zm-14.389,3.908c0-.178.355-.355.533-.533C150.73,292.24,150.73,292.24,150.375,292.417Zm2.842-3.2Zm6.218,8.527h0c.178-.178.178-.178.355-.178h.533l-.178.178Zm6.218-29.667H165.3c-.355-.178-.533-.178-.888-.355h-.178a1.6,1.6,0,0,0-.888.178h-.178c-.355-.178-.533,0-.711,0a7.693,7.693,0,0,0-.888.178c-.178,0-.355,0-.355.178l-.533.533h-.355c.178-.178.178-.355,0-.355,0-.178,0-.178.178-.178a1.175,1.175,0,0,1,1.066-.178c.178,0,.178,0,.178-.178a.174.174,0,0,0-.178-.178c-.178,0-.355-.178-.533-.355l.178-.178c.178-.178.178-.178.178-.355a.174.174,0,0,1,.178-.178.653.653,0,0,0-.533.178l-.178.178a.62.62,0,0,1-.355.178c-.178,0-.355,0-.355-.178.178,0,.178-.178.355,0a.174.174,0,0,0,.178-.178c0-.178.178-.355.178-.533s.178-.178.178-.355a.174.174,0,0,0,.178-.178c.178-.355.533-.355.888-.533h.178a1.068,1.068,0,0,0,.711-.178h.888a.174.174,0,0,0,.178-.178c.178-.178.355-.355.533-.178h.533c.178.178.355.355.355.533v.355c0,.355.178.533,0,.888V267.9l.178.178Zm1.244-4.619h0c.178,0,0,.178,0,0Zm2.665,37.483Zm-.178-4.8a.62.62,0,0,0,.178.355C169.383,296.326,169.383,296.326,169.383,296.148Zm1.421-8.172h.355v.178c-.178,0-.178,0-.355.178Zm-2.309,20.785ZM168.85,308.761Zm-.178-.711h0Zm.178-.355c-.178.178-.355,0-.533,0C168.494,307.7,168.672,307.517,168.85,307.7Zm-.533.533Zm-.178-25.936h0l-.178-.178h.178a.174.174,0,0,1,.178.178C168.317,282.114,168.317,282.292,168.139,282.292ZM171.337,282.292Zm.533-.888ZM166.007,262.573ZM161.389,266.659ZM144.157,265.593ZM157.658,303.254ZM156.947,303.254ZM149.664,294.549ZM144.512,265.593ZM136.873,283.358ZM145.756,296.681Z" transform="translate(-59.11 -154.56)" fill="url(#linear-gradient-3)"/>
  </g>
  <path id="합치기_46" data-name="합치기 46" d="M59.645,176.758a3.024,3.024,0,0,1-1.244-.178c-1.421-.711-3.02-1.6-4.441-2.31a1.466,1.466,0,0,1-.888-1.777v-.533c-.178-.533-.711-.71-1.066-.355-.355.177-.533.71-1.066.533a3.969,3.969,0,0,0-2.487,0,3.084,3.084,0,0,1-2.487-.533A4.626,4.626,0,0,0,43.3,170.9a2.565,2.565,0,0,1-1.243-.355,10.644,10.644,0,0,0-4.441-1.777,4.172,4.172,0,0,1-2.487-1.244,44.5,44.5,0,0,0-6.04-5.507c-3.375-2.842-6.4-5.862-9.415-8.882a4.275,4.275,0,0,1-1.066-1.421c-.533-1.954-2.31-3.375-3.2-5.329-1.776-1.6-2.665-3.73-3.553-5.862-1.066-2.309-2.309-4.8-3.553-7.284a50.084,50.084,0,0,1-3.375-8.527c-.888-3.2-2.309-6.218-3.02-9.593C1.377,112.45.134,109.963.489,107.12a7.694,7.694,0,0,1-.178-.888,3.022,3.022,0,0,1-.178-1.243A15.773,15.773,0,0,0,.311,100.9a10.8,10.8,0,0,0-.178-3.375C-.4,96.284.844,95.4.667,94.152c-.355-1.6.355-3.02.711-4.619.355-1.954,1.066-3.73.888-5.862a5.185,5.185,0,0,1,.355-1.6c1.066-3.02,2.132-6.4,3.375-9.415a52.743,52.743,0,0,0,2.665-7.994,16.684,16.684,0,0,1,2.664-5.685,2.073,2.073,0,0,1,1.066-1.066c2.487-.888,3.73-2.842,5.152-4.8,0-.533-.533-1.066-.178-1.6,1.954-1.954,4.086-3.553,5.685-5.862a4.789,4.789,0,0,1,1.421-1.244c1.066-.71.888-2.132,1.6-3.02,0-.178-.178-.533-.355-.533a2.234,2.234,0,0,0-2.309.355,22.879,22.879,0,0,0-3.02,2.842,20.11,20.11,0,0,0-1.776,2.309,23.146,23.146,0,0,0-1.777,2.665l-3.2,5.862a3.714,3.714,0,0,1-.711,1.066,2.452,2.452,0,0,1-.711.533c-.178,0-.355.178-.533,0-.178,0-.178-.355-.178-.533a44.147,44.147,0,0,0,2.665-4.974A16.707,16.707,0,0,1,16.3,47.076c1.421-1.954,3.02-3.908,4.441-5.862.355-.355.711-.888,1.066-1.244a1.08,1.08,0,0,0,0-1.421c-.178-.178-.178-.533-.355-.711.533-1.066,1.6-1.244,2.132-1.954a25.471,25.471,0,0,1,4.8-4.086c3.02-2.487,6.218-5.152,9.237-7.639a14.819,14.819,0,0,1,2.132-1.421c1.954-.71,4.086-1.421,6.04-1.954a2.9,2.9,0,0,1,2.664.355,2.01,2.01,0,0,0,2.843-.533,3.013,3.013,0,0,0-3.2-2.842,11.9,11.9,0,0,1,4.264-.178A3.947,3.947,0,0,1,55.2,19.363c.178-1.244.533-2.665.711-3.908.178-.533,1.244-.888.355-1.777a43.425,43.425,0,0,0-8.349,0,15.647,15.647,0,0,1,9.238-1.244,3.183,3.183,0,0,1,1.243.888,10.853,10.853,0,0,1,1.244,2.487c.178.533.711.533,1.244.178l.888-.888a9.919,9.919,0,0,1,1.421.888l1.066,1.066c1.243-.355,2.487-.71,3.2-.888a2.36,2.36,0,0,0-1.6-2.842,8.2,8.2,0,0,1,2.841.533,2.915,2.915,0,0,1,1.6,1.777c1.066-.178,2.31-.355,3.553-.533a2.683,2.683,0,0,0-1.946-2.84,7.913,7.913,0,0,1,3.545.886,3.8,3.8,0,0,1,1.954,2.31h.178c1.954.533,2.487.711,3.02,1.244a12.3,12.3,0,0,1,.533-1.421,4.377,4.377,0,0,0,.355-3.02c0-.178-.178-.178-.355-.355-.888.178-.888,1.421-1.776,1.777a7.724,7.724,0,0,1,1.243-3.553c.356-.533.888-.888,1.244-.711a3.875,3.875,0,0,1,.711.888c.178.533.533,1.243.355,1.776a34.56,34.56,0,0,1-.888,3.553c0,.178-.178.355-.178.533-.178.355.178,1.066.533,1.066a1.331,1.331,0,0,0,.888-.178c.178-.178.355-.533.533-.71.355-.355.711-.888,1.066-1.244.178-.178.355,0,.533,0v.178h.355c1.066-1.421,1.421-3.731-.888-4.974a17.4,17.4,0,0,1,3.908,1.954c1.6,1.244,1.777,1.954,1.777,2.665.711,0,1.243.178,1.954.178,1.244-.888,1.954-2.665,0-3.908a7.378,7.378,0,0,1,2.842,1.421A3.35,3.35,0,0,1,96.446,15.7a2.318,2.318,0,0,1,.328-.249A6.04,6.04,0,0,1,99.438,16.7a1.812,1.812,0,0,0-.355-1.6c-.355-.533-.888-.888-1.244-1.421-.533-.533-.355-1.421.355-2.132a2.46,2.46,0,0,1,.355-.266v1.332a1.357,1.357,0,0,0,.355.888,1.557,1.557,0,0,0,1.777.888.8.8,0,0,0,.533-.533,1.434,1.434,0,0,0-.71-1.6,4.207,4.207,0,0,0-1.859-1.041,1.847,1.847,0,0,0,.26-.2c.178-.711-.178-1.066-.711-1.6-1.243-1.244-2.664-2.487-3.908-3.908-.178-.178-.178-.533-.178-1.066,1.954,1.244,3.73,2.132,4.974,3.73.533.711,1.244.711,2.132.178a.174.174,0,0,1,.178-.178c-.355-.533-.533-1.244-.888-1.777a8.717,8.717,0,0,1-1.954-.178c.888-1.066,0-2.309.711-3.375,1.244,0,1.777.711,2.487,1.421.355.355.711.888,1.243.711.711-.355.711-1.244,1.244-1.954a28.3,28.3,0,0,0,2.309,2.31.174.174,0,0,1,.178.178v.355c0,.178.178.178.178.355v.355c.355.711.888,1.421,1.244,2.132a.652.652,0,0,0,.533.178,3.717,3.717,0,0,0,.711,1.066.377.377,0,0,0,.533-.533,3.414,3.414,0,0,1-.711-2.132,11.251,11.251,0,0,1,2.842,4.619,6.041,6.041,0,0,1,.178,1.777,13.883,13.883,0,0,0,1.6,6.04A.174.174,0,0,1,114,19.9a3.139,3.139,0,0,0-.349-4.435,11.482,11.482,0,0,1,3.191,2.481,4.505,4.505,0,0,1,1.066,3.2c.355,0,.533.178.888.355.178.178.533.178.711.355,1.6-.355,3.553-2.132,2.842-4.086a8.609,8.609,0,0,1,1.244,3.02,5.3,5.3,0,0,1-.711,2.665l.711.711a4.734,4.734,0,0,1,1.066,1.777l.177-.178c0-.178.355,0,.533,0a3.088,3.088,0,0,0,1.777-4.263A11.656,11.656,0,0,1,129.1,25.4a4.326,4.326,0,0,1-.533,3.73c.178.355.355.533.533.888.178.178.178.355.355.533a2.5,2.5,0,0,0,1.444-3.127,9.4,9.4,0,0,1,1.221,2.771,3.335,3.335,0,0,1-1.066,3.2,10.48,10.48,0,0,1-1.421-.888v.355l3.2,4.974v-.355a9.505,9.505,0,0,1,1.066-4.619l.355-2.132v-.711a37.036,37.036,0,0,1,0-4.441v-.888c-.178-1.421-.533-2.487-.533-3.02V19.9a18.593,18.593,0,0,0-1.954-1.421,10.13,10.13,0,0,0,1.954-4.974V10.836c.711,2.487,1.776,8.172,2.487,10.481l1.777-1.066c.355.178.888.355,1.244.533-.888.178-1.777,1.6-2.487,2.309.888,1.777,3.553,7.461,4.264,9.238v.178a.55.55,0,0,1,.178.355,18.89,18.89,0,0,1-.533,4.974,15.652,15.652,0,0,1,.888,2.665,2.971,2.971,0,0,1-.178,2.132c0,.178-.177.533-.177.711a12.162,12.162,0,0,1,3.73,3.02l.355-.888-.178-.178a12.361,12.361,0,0,1-.888-5.685c-.178-.355,0-.711.355-1.066a1.473,1.473,0,0,0,.533-1.421V34.641c0-.355.178-.533.355-.888a15.866,15.866,0,0,0,.888,2.31,1.331,1.331,0,0,0,.888.178.382.382,0,0,0,.355-.355,34.826,34.826,0,0,0,.178-6.04,17.234,17.234,0,0,1-.178-3.02c2.843-.888,3.02-1.066,4.264-3.553l.533-1.066c.177-.177.533-.177,1.066-.533a36.885,36.885,0,0,1-1.421,3.553,5.547,5.547,0,0,0-.533,3.73c.178.888.355,1.954.533,3.02a5.975,5.975,0,0,1-.533,4.619,13.216,13.216,0,0,0-1.954,7.284c0,1.421.533,3.2-1.421,4.086-.355,1.6-1.066,3.2,0,4.8a5.506,5.506,0,0,1,1.066,2.31,5.921,5.921,0,0,0,1.6,3.73,2.017,2.017,0,0,1,.533,1.421c.178,1.066.178,2.309.355,3.375a1.915,1.915,0,0,0,.355,1.421c.888,1.066,1.6,2.309,3.02,2.665,1.6.533,3.02,1.244,3.73,2.842a1.7,1.7,0,0,0,1.777.533,8.375,8.375,0,0,0,2.665-1.066c.355-.355.711-.533,1.066-.888l.711-1.6c.178,0,.178-.178.178-.355a11.6,11.6,0,0,1,.888-3.553,2.882,2.882,0,0,1,2.842-1.954c1.6,0,3.376.178,4.974.178,1.421,0,3.908,1.6,5.329,3.908a1.159,1.159,0,0,1,.133.488c-.133-.134-.133-.149-.133-.31a11.308,11.308,0,0,0-4.619-3.553,30.113,30.113,0,0,0-4.086-.178,3.111,3.111,0,0,0-3.02,1.954,6.568,6.568,0,0,1-.888,1.954l-.711.71c0,.355-.178.533-.178.711-.178.178-.355.888-.711,1.421l.178-.178a4.6,4.6,0,0,1-4.8,3.73,1.343,1.343,0,0,1-.71.178,1,1,0,0,0-.888,1.066,6.223,6.223,0,0,0,1.066,3.908l1.066,1.6a1.266,1.266,0,0,1-1.243,1.777,12.447,12.447,0,0,1-2.487-.533,14.8,14.8,0,0,0-2.665-.711,2.633,2.633,0,0,0-1.243-.178l-1.6-.533-.533-1.066a7.2,7.2,0,0,1-1.6.888c-1.421.533,1.6-.711.888-2.665-.178-.355-.178-.533-.355-.711.178-.711.178-1.066-.711-1.244-1.421-.355-.711-1.244-.888-2.132a31.717,31.717,0,0,0-2.487-2.309,2.192,2.192,0,0,0-3.2.888v.711c0,.355,0,.533.178.711,0,.177.177.177.177.355a.62.62,0,0,1,.178.355.55.55,0,0,0,.178.355c0,.178.178.178.355.355l.178.178c0,.178.178.178.178.355h-.178c.355.178.355.178-.178,1.244-.355,1.066-.711,3.2-.355,3.908l.355.355c0-.178.178-.178.355-.355l.533.533a1.511,1.511,0,0,0,.888.533c.533.533,1.6.888,2.132.178a3.722,3.722,0,0,0,.71-1.066h.178a6.043,6.043,0,0,0-.178,1.777.55.55,0,0,1-.178.355c-.178.178-.355.355-.355.533v.178h-.177a3.865,3.865,0,0,0-.711.888c0,.177-.178.177-.178.355l-.178.533c-.178,0-.178-.178-.355-.178s-.355.178-.533.178a.653.653,0,0,0-.178-.533l-1.777-.355c-.533,0-1.066-.533-1.6-.711s-.888-.355-1.421-.533a3.687,3.687,0,0,1-1.777-1.066l-.355.355a20.318,20.318,0,0,1-1.954,1.954c-.356.533-1.066,1.066-1.421,1.6a3.572,3.572,0,0,0-.711,1.421c-.355.533.355,1.066,1.066,1.066.355,0,.71-.533,1.243-.178-.533,1.066-.533,1.066-.888,1.244a1.737,1.737,0,0,1-2.665-1.6,4.364,4.364,0,0,1,.888-2.665,17.358,17.358,0,0,1,3.2-3.02,7.75,7.75,0,0,1-3.375-2.665,7.52,7.52,0,0,1-1.066-4.086,8.363,8.363,0,0,0,2.309,2.665,3.752,3.752,0,0,0,1.776.711c-.178-.533-.355-.888-.533-1.421-.178-.711-.711-1.066-1.421-1.421.178-.355.355-.533.355-.888a10.419,10.419,0,0,1-3.2-2.487,7.175,7.175,0,0,1-1.6-3.908,13.356,13.356,0,0,0,2.842,2.665,4.453,4.453,0,0,0,1.244.711A4.183,4.183,0,0,0,133.9,69.1a9.762,9.762,0,0,1-1.244-1.6,9.587,9.587,0,0,1-3.375-2.487c-1.954-2.132-1.421-3.731-1.421-3.731.888,1.421,1.244,1.777,2.665,2.132h.355a32.368,32.368,0,0,0-2.077-2.6,2.254,2.254,0,0,0,.3-.956c.178-.533,0-1.066.178-1.6,0-.355.355-.711.533-1.066-1.421.355-1.776.888-1.6,1.777.158.633.317,1.126.475,1.728a3.922,3.922,0,0,1-1.719-3.149,2.245,2.245,0,0,1,.961-1.991q.234.188.46.392c.71.533,1.6,1.066,2.487,1.777a1.77,1.77,0,0,0,.178-.711c-1.066-1.244-2.31-2.665-3.553-3.908a4.545,4.545,0,0,0-4.619-1.421c-.178.178-.533.178-.888.355-.178.355-.178.711-.355,1.066.178.178.355.355.533.355a9.01,9.01,0,0,1,5.372,1.8c-.992-.105-2.646-.265-2.529-.733-1.776-.888-3.375-1.421-4.974,0-.711.533-1.421,0-1.6-.888-.178-.711-1.244-.888-.711-.888.355-.711.178-.711.355-1.421l.355-.711.533-.355c.888-.533.71-.888,1.066-1.776a8.364,8.364,0,0,0,1.6.533,3.717,3.717,0,0,0,1.066-.711c0-.178-.533-.533-.533-.711-.355-.711-.474-.632-.934-.553a3.276,3.276,0,0,1-1.02.02c-1.066,0-1.066,1.066-1.954,1.421-.355.178-1.954,1.6-2.31,1.6-.178,0-1.066-2.487-1.244-2.665,0-.178-1.776-.711-1.6-.888.711-.533-.888-1.421,0-1.421.533,0,.533-.533.711-.888l-1.243-.888c0,.178-.178,0-.178,0a.55.55,0,0,0-.355-.178.174.174,0,0,1-.178-.178,1.358,1.358,0,0,0,.355-.888v-.178a.174.174,0,0,0-.178-.178c-1.244-.533-4.086,0-3.731.533-.177,0-2.132-1.244-2.309-1.244-.355.178-.533.888-.888,1.066-1.066,0-.711.178-1.244.888-.355.178-.711.178-.888.355a.652.652,0,0,0-.178.533,4.672,4.672,0,0,0-1.6,2.665l-.355,1.066c-.533.178-1.244,1.066-1.6,1.066-.711,0-.888,1.244-1.244,1.421a9.528,9.528,0,0,1-1.954.888c-1.6-.178-1.954-.888-2.842-1.066-1.066,1.6-2.487,3.908-3.908,3.553-1.6-.355-2.31,0-2.842-3.02-.327-1.964.083-1.046.777-.128.436.576.984,1.153,1.533,1.016a5.633,5.633,0,0,0,1.954-1.776v-.178c-.533-1.421-1.066-1.421-2.487-1.421a16.257,16.257,0,0,1-2.842.178,5.921,5.921,0,0,1-1.066-.533c-1.777-.178-3.908-.355-4.263-1.6-.355-1.6-1.066-2.132,1.243-4.086s-.711,1.421.355,2.487a5.244,5.244,0,0,0,2.665.888,11.206,11.206,0,0,1,.888-3.908c.177-.178.355-.533.533-.711,1.421-1.776,3.02-2.487,5.862-2.132a1.865,1.865,0,0,1-1.6.888,5.414,5.414,0,0,0-2.842,1.421,2.7,2.7,0,0,0-1.066,3.2c.711.533,1.244,1.066,1.954,1.6a1.7,1.7,0,0,0,1.777.355,9.51,9.51,0,0,0,1.954-.888,7.986,7.986,0,0,0,1.6-1.066,1.866,1.866,0,0,1,1.109-.038c.323.073.558.147.845-.14a1.686,1.686,0,0,0-.711-1.954,3.2,3.2,0,0,0-1.777-.355c-.533,0-1.6-.888-.533-1.421,1.244-.533,3.02-1.066,2.842-2.665-.178-.355.355-.711.533-1.066.355-.355.533-.711.888-1.066A41.37,41.37,0,0,1,101.57,33.4c.178.178.178.178.355,0,.177,0,.355-.177.533-.177a26.469,26.469,0,0,1,6.928,2.309,7.889,7.889,0,0,0,1.954,1.421.653.653,0,0,0,.533-.178.174.174,0,0,0,.178.178l1.066,1.066c.533.711.533-.178.888-.711a.333.333,0,0,0,0-.533c-.178-.178-.355-.178-.533-.355V36.24a.382.382,0,0,0-.356-.355c-.355,0-.71-.178-1.066-.178a.62.62,0,0,0-.355-.178c-.178,0-.355,0-.355.178h-.178V35c0-.178,0-.355-.178-.355a7.85,7.85,0,0,0-2.843-1.066c-.177,0-.355,0-.355.178a8.3,8.3,0,0,0-1.777-.888.653.653,0,0,0-.178-.533,4.408,4.408,0,0,0-4.441,0h-.355c0-.178-.178-.178-.355-.178H99.615c-.178,0-.355,0-.355.178-.711.355-1.6.888-2.487,1.243H96.24a.174.174,0,0,1-.178.178h-.178c-1.066,0-1.777.178-2.132.888A1.881,1.881,0,0,0,91.8,33.575c0-.178-.533,2.487-.533,2.487-1.244,0-2.665,0-3.02-.533-.533-1.066-.711-2.132-1.421-2.132-.711-.888-.533-1.421-.711-2.309a2.174,2.174,0,0,0-2.487-1.777c-1.6.355-3.02-.533-4.263-1.066C78.476,27.89,78.12,27,77.41,26.292v-.178c-.533,0-1.066.178-1.421.178-1.066.178-1.776.355-2.664.533a1.052,1.052,0,0,1-.178,1.243,21.766,21.766,0,0,1-3.375.355h-.178c-.178-.178-.178-.355-.355-.355a7.856,7.856,0,0,1-2.665,1.421c-1.066.178-.355-.533-1.954-.888a4.948,4.948,0,0,1-1.776-.178c-.178.178-.355.355-.355.533H62.31a1.511,1.511,0,0,0,.533.888,22.333,22.333,0,0,0-5.862.888H53.96a.174.174,0,0,1,.178-.178c.178,0,.178-.178.178-.355l.711-.711c.178-.178.178-.178.178-.355a28.857,28.857,0,0,1,3.375-.711.333.333,0,0,0,.533,0c.355-.355.888-.71,1.244-1.066.178-.178,0-.355-.178-.533.533-.355.888-.711,1.421-1.066.355-.355,0-1.066-.355-.711a12.454,12.454,0,0,0-1.777,1.421A3.063,3.063,0,0,0,58.4,27.535v.178h-.533c-.178,0-.355,0-.355.177-2.309.355-5.329,1.066-5.685,3.02h-.178a6.381,6.381,0,0,0-4.264,2.31c0,.177-.355.177-.533.355-.355,0-.888-.178-1.421-.178-.178.178-.533.355-.711.533a13.225,13.225,0,0,1-4.8,2.842,14.239,14.239,0,0,0-3.375,2.309c-.711.711-.711,1.244.355,1.6.711.178-2.487,4.974-3.2,3.73-.888,0-1.066,2.31-1.777,2.31a2.713,2.713,0,0,1-1.776-.711h-.017a.889.889,0,0,1,.017.178.59.59,0,0,1-.122-.171c-.315.032-.629.171-.944.171a2.857,2.857,0,0,0-2.843.711c-.355.355-.711.533-1.066.888-.178,0-.533,0-.533,1.066A.62.62,0,0,0,25,49.03c-.533.533-.888,1.066-1.421,1.6-1.066,1.066-2.132,1.954-3.2,3.02-.178.355-.533.711-.533,1.066,0,.888-.711,1.421-1.421,1.954-.533.533-1.244.711-1.777,1.244a2.056,2.056,0,0,0-.888,1.244.567.567,0,0,0,.533.533h.888c-.533,1.6-1.777,1.954-3.02,2.132-.711,1.066-1.244,2.132-1.954,3.02a17.766,17.766,0,0,0-1.421,2.487c-1.066,2.487-2.487,4.619-3.02,7.284,0,.533-.355.888-.533,1.421-1.954,3.553-2.487,7.461-3.2,11.192-.355,1.6-.355,3.375-.711,4.974-.71,3.73-.533,7.639-.533,11.369a.652.652,0,0,0,.178.533,7.128,7.128,0,0,1,.533,3.375,19.315,19.315,0,0,0,.178,3.2c.355,2.842.888,5.684,1.244,8.527,1.421,1.066,1.954,2.665,2.132,4.619a3.2,3.2,0,0,0,.355,1.777,9.253,9.253,0,0,1,1.421,5.329,10.825,10.825,0,0,1,3.2,4.263,7.228,7.228,0,0,0,2.487,3.553,1.461,1.461,0,0,1,.711,1.066c.355,1.244,1.421,1.954,1.777,3.2a3.777,3.777,0,0,0,1.6,1.776c2.487,1.6,3.375,2.665,5.507,5.507a3.186,3.186,0,0,0,1.244.888,10.63,10.63,0,0,1,4.441,2.842,4.786,4.786,0,0,0,1.243,1.421,12.135,12.135,0,0,0,2.309.711,14.918,14.918,0,0,1-2.132.711c.178.178.355.533.533.711.711.355,1.421.888,2.132,1.244a55.658,55.658,0,0,0,5.685,2.665c1.954.711,3.553,1.954,5.507,2.842.533.178.888.533,1.244.533a5.839,5.839,0,0,1,2.842,1.244,5.238,5.238,0,0,0,2.31.888,2.567,2.567,0,0,1,1.244.355,4.351,4.351,0,0,0,3.553.888,7.363,7.363,0,0,1,2.842.533c1.066.355,1.954.711,3.02,1.066a6.865,6.865,0,0,1,4.974,0,13.654,13.654,0,0,0,5.329.533c2.132-.178,4.441,0,6.573,0a8.065,8.065,0,0,0,3.02-.533c2.132-.533,4.441-1.066,6.751-1.421a49.846,49.846,0,0,0,5.507-1.421c1.777-.533,3.553-1.421,5.329-1.954,1.6-.533,3.2-.888,4.441-2.132a5.913,5.913,0,0,1,1.066-.533c2.665-1.244,5.685-1.777,7.994-3.73a3.944,3.944,0,0,1,1.954-.888,43.659,43.659,0,0,0,5.152-1.6,3,3,0,0,1,.888.355c-.888,1.066-1.777,1.954-2.665,2.842-.355.178-.711.533-1.066.711-1.066.71-2.31,1.6-3.375,2.309-.711.533-1.6.888-1.954,1.954-.178.355-.711.533-1.066.711a15.073,15.073,0,0,0-4.619,1.954c-.178.355-.711.355-1.066.533-2.665,1.066-5.329,1.954-7.994,2.842-.355.178-.533.355-.888.355-2.309-.355-4.441,1.243-6.75,1.243-.533,0-.888.178-.888.711.355.711,1.421,0,1.954,1.066a6.981,6.981,0,0,1-2.665.178,15.771,15.771,0,0,0-4.086.178,32.842,32.842,0,0,1-4.086-.178H76.344a1.265,1.265,0,0,0-1.066.533,1.031,1.031,0,0,1-1.6.355,3.724,3.724,0,0,0-3.553-.711c-.355.178-.711.533-1.066.711a2.832,2.832,0,0,1-2.665,0c-.355-.178-.711-.178-.888-.355a2.475,2.475,0,0,0-2.665-.355,4.415,4.415,0,0,1-1.421.178c-.533-.533-.888-1.244-1.421-1.421a37.823,37.823,0,0,0-4.8-1.244c-.178,0-.533.355-.711.533-.178,0,0,.355,0,.533s.178.355.355.533c2.132,1.777,4.264,3.02,7.106,3.02.178,0,.355.178.888.533Zm96.284-106.41a18.552,18.552,0,0,1-1.421,1.954c.178.888.711.888,1.244.711a1.9,1.9,0,0,0,1.066-2.487.382.382,0,0,0-.355-.355A.653.653,0,0,0,155.929,70.348Zm-21.318-4.619a5.153,5.153,0,0,0,.888,3.2c.355.178.711.533,1.066.533.533.178.711-.355.888-.711.178-.178.178-.178.178-.355a1.357,1.357,0,0,1-.888-.355c-.355-.711.355-1.421.888-1.6-.533-.533-1.066-.888-1.6-1.421a1.331,1.331,0,0,0-.888-.178C134.79,64.841,134.611,65.374,134.611,65.729Zm6.751-9.06c0,1.777.178,1.6,1.954,2.31,1.6.533,3.02,1.244,4.619,1.954v-.888a4.914,4.914,0,0,0-1.954-2.31c-.178-.178-.533-.355-.711-.533-1.066-.711-2.31-1.421-3.731-2.487A8.713,8.713,0,0,0,141.362,56.669Zm-9.593-2.842a9.855,9.855,0,0,0,1.066,1.421,7.333,7.333,0,0,0-1.244-2.665c-.355-.178-.711-.178-1.066-.355A9.755,9.755,0,0,1,131.769,53.827ZM118.979,34.108a31.662,31.662,0,0,1,.711,4.619V38.9l.355.355c.711.711,1.6,1.421,2.309,2.132.178,0,.178.178.355.178.178.178.178.178.533.178a3.193,3.193,0,0,1,1.6,1.066,4.181,4.181,0,0,1,1.421.355c-.178.711-.711,1.243-.888,1.954-.178.178-.178.178-.178.355v.178a.174.174,0,0,1,.178.178,9.923,9.923,0,0,0,.888,1.421h.355c-.178.178,0,.533.178.711v.178l.355.355a4.6,4.6,0,0,1,1.954,1.243.653.653,0,0,0-.533.178l.178.178c.533.355,1.243.888,1.776,1.244a21.294,21.294,0,0,1,2.132,1.954l-.711-5.685a4.789,4.789,0,0,0-1.421-1.244,2.543,2.543,0,0,0-.711-3.553c-2.131-1.421-3.73-3.375-6.217-4.263a3.586,3.586,0,0,1-2.843-3.375c0-.355-.178-.711-.178-1.066a1.166,1.166,0,0,0-.7-.281A2.962,2.962,0,0,0,118.979,34.108ZM97.306,46.01c0,.178.178.355.355.533h.355c.355-.711.888-1.421,1.244-2.132a1.22,1.22,0,0,0-.533-1.6C97.484,44.411,97.306,44.766,97.306,46.01Zm-67.683-.533.178.178a.286.286,0,0,1,.178.065c0-.022,0-.043,0-.065,0-.178-.178-.178-.356-.355Zm73.546-4.8c-.178.178-.355.355-.355.533a1.074,1.074,0,0,0,1.066.533c.178-.178.533-.355.533-.533.145-.29-.421-.58-.923-.58A1.022,1.022,0,0,0,103.168,40.681Zm13.857-14.034a2.66,2.66,0,0,0,2.487,2.132,12.059,12.059,0,0,1,3.553,1.244,10.068,10.068,0,0,1,.533,3.2c0,.533,2.487,2.31,3.02,2.487.888.178,1.6,1.954,2.487,2.132.355.533-.355,1.776,0,2.309h.533a2.541,2.541,0,0,0,.533-3.375c-1.954-2.665-3.2-5.685-6.04-7.639-1.954-1.066-5.152-2.842-7.106-3.2h-.178C116.847,26.114,117.025,26.469,117.025,26.647ZM33.354,34.463l-.533,2.132c1.777,1.066,3.2.178,4.619-.711.355-.178.711-.711,1.066-1.066A6.269,6.269,0,0,1,40.814,33.4c2.132-.355,3.553-1.6,5.33-3.02.177-.711-.355-.711-.711-.888a6.381,6.381,0,0,1-1.777-1.244,6.058,6.058,0,0,0-5.152-1.066,7.211,7.211,0,0,0-1.6.888c-1.421,1.066-2.487,2.487-3.908,3.553a13.9,13.9,0,0,1-3.908,2.665,1.789,1.789,0,0,0-.178.533.8.8,0,0,0,.533.533A5.493,5.493,0,0,0,30.866,35a3.968,3.968,0,0,1,1.8-.65A2.166,2.166,0,0,1,33.354,34.463Zm17.587-6.04a.355.355,0,0,0,0,.711c.711.178,1.421.355,1.776-.533a1.2,1.2,0,0,0-.888-.355A2.872,2.872,0,0,0,50.941,28.423ZM107.787,27l2.309.533a.524.524,0,0,0,.355-.711c-.888-1.954-3.375-2.31-4.974-3.553,0-.178-.355-.355-.533-.355a.55.55,0,0,0-.355.178.174.174,0,0,0-.178.178.174.174,0,0,1-.178.178c-.178.178-.533.178-.711.355-.178,0-.178.178-.178.355a7.424,7.424,0,0,0,.711,1.777v.711c0,.178.355.355.533.355a.4.4,0,0,0,.711-.355.174.174,0,0,1-.178-.178c.178-.355.355-.533.711-.533.355.178.533.178.888.355.178,0,.356,0,.356-.178A3.13,3.13,0,0,1,107.787,27ZM83.805,19.363s1.777,0,1.954.888,1.6-1.777,3.02-2.31c.193-.055.245-.08.189-.08A21.936,21.936,0,0,0,83.805,19.363ZM95.174,175.692c.888-.533,1.066-.711,1.421-.711.178-.178.355,0,.533,0,.355,0,0,.533-.355.711Zm4.8-1.421c-.178-.178-.355-.533-.533-.711a2.556,2.556,0,0,0,.355-.533.967.967,0,0,1,.888.533c.178.178.178.355.178.711-.237,0-.474.079-.658.079A.309.309,0,0,1,99.971,174.27Zm-65.2-1.777a1.218,1.218,0,0,1-.888-1.776,19.574,19.574,0,0,1,3.2-.355,4.182,4.182,0,0,1,1.421.355c.355.178.711.711.533,1.066a.793.793,0,0,1-.533.71,13.124,13.124,0,0,1-3.731,0Zm144.6-103.212.176-1.321a6.944,6.944,0,0,0,.179.788v.178c-.355,2.132-.888,2.665-2.487,2.665C177.957,70.881,178.668,69.992,179.379,69.282Zm.355-.533v0Zm-.533-1.777h0v-.533c.089,0,.133-.089.133-.222l.045.045.355.355-.179,1.343A2.718,2.718,0,0,0,179.2,66.972Zm-50.51-6.266.058.049.055.068-.055.11Q128.72,60.816,128.691,60.706Zm-1.143-5.436c.514.055.851.095.669.155a1.886,1.886,0,0,0-.282.141Q127.744,55.413,127.548,55.27Zm13.459-22.939v0Zm-10.126-4.974c.008.024.015.047.023.071C130.862,27.355,130.85,27.327,130.881,27.357Zm-93.8-7.639a4.714,4.714,0,0,1,2.665-1.6c-.178,1.066-1.244,1.244-1.954,1.777A1.343,1.343,0,0,1,37.084,19.719Zm76.566-4.263.006.006C113.606,15.433,113.6,15.43,113.65,15.455ZM64.264,14.212c-.355-.711-.711-1.6-1.066-2.31.533-1.066.711-1.954,1.6-2.665.178.178.355.533.533.711a.977.977,0,0,0-.533.888,19.574,19.574,0,0,1,.355,3.2c0,.178-.355.355-.533.355S64.264,14.389,64.264,14.212Zm1.6-.888h0C65.848,13.323,65.847,13.323,65.863,13.323Zm24.87-1.066a16.225,16.225,0,0,0-1.421-2.309c-.178-.178,0-.888-.178-2.132a6.422,6.422,0,0,0,1.6,2.31,4.652,4.652,0,0,1,.888,1.6c.178.178-.178.533-.355.711A.877.877,0,0,1,90.733,12.257Zm-18.83,0,.008,0C71.862,12.257,71.855,12.257,71.9,12.257Zm-4.619-.888c-.888-.178-1.244-.888-1.954-1.421a2.178,2.178,0,0,1,2.842.355.807.807,0,0,1,0,.888.856.856,0,0,1-.581.251A.682.682,0,0,1,67.284,11.369Zm31.266-.178.1.025-.1.064ZM68.35,9.06a2.554,2.554,0,0,1,1.776-1.777c.533.355,1.066.711.533,1.244-.711.711-.178,1.244-.178,1.954A8.926,8.926,0,0,1,68.35,9.06ZM88.424,3.02c-.355-.355-.533-.711-.888-.888C87,1.421,87.713.177,88.6,0h1.777c-.356.177-.711.177-1.066.355A1.261,1.261,0,0,0,88.6,2.309l1.6,1.6A2.128,2.128,0,0,1,88.424,3.02Z" transform="translate(0 0)" fill="url(#linear-gradient-4)"/>
</svg>
