<svg xmlns="http://www.w3.org/2000/svg" xmlns:xlink="http://www.w3.org/1999/xlink" width="492.3" height="148.9" viewBox="0 0 492.3 148.9">
  <defs>
    <linearGradient id="linear-gradient" x1="-0.135" y1="0.223" x2="2.997" y2="1.745" gradientUnits="objectBoundingBox">
      <stop offset="0" stop-color="#fff"/>
      <stop offset="1" stop-color="#fff"/>
    </linearGradient>
    <linearGradient id="linear-gradient-2" x1="-1.45" y1="-0.456" x2="2.79" y2="1.699" xlink:href="#linear-gradient"/>
    <linearGradient id="linear-gradient-3" x1="-2.373" y1="-0.832" x2="2.03" y2="1.211" xlink:href="#linear-gradient"/>
    <linearGradient id="linear-gradient-4" x1="-3" y1="-1.246" x2="1.118" y2="0.801" xlink:href="#linear-gradient"/>
  </defs>
  <g id="logo_full" transform="translate(-13.7 -15.6)">
    <path id="패스_417855" data-name="패스 417855" d="M139.2,60.6h0A72.12,72.12,0,0,1,145,90v1.8a77,77,0,0,1-5.8,27.7,76.836,76.836,0,0,1-16,23.1c-14.5,14.5-32,21.9-52.6,21.9S32.5,157.2,18,142.6l-.9-1.1-1.2-1.2a6.968,6.968,0,0,1-1.3-4.4,6.787,6.787,0,0,1,2.1-5.1,6.871,6.871,0,0,1,5.1-2.1,7.117,7.117,0,0,1,3.4.8l2.8,2.9.5.4a57.591,57.591,0,0,0,42.1,17.3q24.9,0,42.4-17.7A63.981,63.981,0,0,0,123.3,119a58.561,58.561,0,0,0,7.4-27.3V89.9q0-24.9-17.7-42.6C102.3,36.6,89.7,30.8,75,29.9l-4.5-.1a59.174,59.174,0,0,0-32.6,9.4,66.186,66.186,0,0,0-10.2,8.3l-2.9,3.2a6.373,6.373,0,0,1-3.7.9,7.671,7.671,0,0,1-5.3-2.2,6.512,6.512,0,0,1-2.1-5,7.072,7.072,0,0,1,1.2-4.1l1.8-2,.9-.9A79.687,79.687,0,0,1,37.6,23a72.3,72.3,0,0,1,32.6-7.4l4.5.1c18.7.9,34.7,8.2,48.1,21.6a70.849,70.849,0,0,1,16.4,23.3ZM76.5,72.9h0a27.454,27.454,0,0,1,20.4,8.7,30.591,30.591,0,0,1,4.2,5.3,45.9,45.9,0,0,1,2.4,5,31.792,31.792,0,0,1,1.8,10.8,30.8,30.8,0,0,1-4.2,15.8l-.3.1-1.7,2.5-2.2,2.5a29.089,29.089,0,0,1-20.8,9.2l-20.4-.5,1.2.1a6.655,6.655,0,0,1-5-2.2,6.168,6.168,0,0,1-2.1-4.9,6.943,6.943,0,0,1,2.1-5.1l.9-.7a7.012,7.012,0,0,1,4.1-1.1l23.2-.9a14.781,14.781,0,0,0,5.1-3.7,14.5,14.5,0,0,0,4.6-11.2,15.185,15.185,0,0,0-4.1-10.8l-.7-.5a14.454,14.454,0,0,0-7.5-4.4,183.9,183.9,0,0,0-21,0h-.7a6.278,6.278,0,0,1-3.2-1.2l-1.1-.9a5.568,5.568,0,0,1-2-4.1V52.3a7.829,7.829,0,0,1,1.8-5,7.628,7.628,0,0,1,5.1-2,7.33,7.33,0,0,1,4.9,2,6.611,6.611,0,0,1,2.2,5V76a27.985,27.985,0,0,1,13-3.1ZM61.4,95.4h0a6.943,6.943,0,0,1,5.1,2.1,7.011,7.011,0,0,1,0,10.2,6.385,6.385,0,0,1-5.1,2.2h-.9a8.37,8.37,0,0,1-4.4-2.2,6.58,6.58,0,0,1-2.1-5.1,7.071,7.071,0,0,1,6.3-7.1l1.1-.1Z" fill="url(#linear-gradient)"/>
    <g id="그룹_246095" data-name="그룹 246095">
      <path id="패스_417856" data-name="패스 417856" d="M275.5,113.8c0,11.2-3.6,19.8-10.7,25.6q-9.9,7.8-27.3,7.8h-47c-12.2,0-18.4-5.3-18.4-16V50.1a13.864,13.864,0,0,1,5.3-11.4c3.1-2.4,7.2-3.6,12.2-3.6h45.6q35.1,0,35.1,26.8c0,6.2-1.3,11.3-3.9,15.2s-6.7,7.4-12.3,10.4c6,.6,11.1,3.6,15.2,9A27.809,27.809,0,0,1,275.5,113.8ZM249.6,66.7c0-8.3-4.6-12.5-13.9-12.5H204.8q-11.7,0-11.7,11.1V80.1h42.8a14.074,14.074,0,0,0,9.9-3.5C248.3,74.2,249.6,70.9,249.6,66.7Zm5.2,46.4c0-9.3-5.8-14-17.3-14H193.1v18.2c0,7.2,3.8,10.8,11.3,10.8h33.1c5.1,0,9.2-1.2,12.2-3.6Q254.8,120.45,254.8,113.1Z" fill="url(#linear-gradient-2)"/>
      <path id="패스_417857" data-name="패스 417857" d="M386.4,136.7c0,7-2.9,10.6-8.7,10.6-3.9,0-7.3-1.8-10.1-5.4L311.7,70v67.2c0,6.8-3.5,10.1-10.4,10.1-6.2,0-9.3-3.4-9.3-10.3V45.2c0-6.8,3.1-10.1,9.3-10.1a13.114,13.114,0,0,1,10.6,5.1l54.9,70.6V45.2c0-6.8,3.1-10.1,9.3-10.1,7,0,10.4,3.4,10.4,10.1v91.5Z" fill="url(#linear-gradient-3)"/>
      <path id="패스_417858" data-name="패스 417858" d="M506,135.2c0,8.6-3.5,13-10.5,13-6.6,0-9.9-4.4-9.8-13.1-8,8.4-20,13.1-34,13.1-15.8,0-27.2-5.9-36.2-16.9-8.4-10.2-12.5-23.4-12.5-39.5,0-17.2,4.5-30.9,13.4-41.2,9.4-11,22.6-16.5,39.5-16.5,17.9,0,32.8,6.7,42.2,16.7,5.2,5.3,7.9,10.2,7.9,14.7a9.851,9.851,0,0,1-2.3,6.4,7.375,7.375,0,0,1-5.8,2.6,12.618,12.618,0,0,1-10.5-5.2c-7.9-10-19.6-16.8-32.5-16.8-9.6,0-17.4,4.2-23.4,12.5a43.668,43.668,0,0,0-8.2,26.2c0,11.1,2.5,20.1,7.6,26.9q8.7,11.7,24.6,11.7c14.7,0,24.8-7.7,30.3-23H466.1q-8.7,0-8.7-9t8.7-9h27.1c8.5,0,12.8,3.9,12.8,11.8Z" fill="url(#linear-gradient-4)"/>
    </g>
  </g>
</svg>
