<svg xmlns="http://www.w3.org/2000/svg" xmlns:xlink="http://www.w3.org/1999/xlink" width="206.435" height="100.001" viewBox="0 0 206.435 100.001">
  <defs>
    <linearGradient id="linear-gradient" x1="0.5" x2="0.5" y2="1" gradientUnits="objectBoundingBox">
      <stop offset="0" stop-color="#fff"/>
      <stop offset="0.26" stop-color="#fff"/>
      <stop offset="0.56" stop-color="#fff"/>
      <stop offset="0.82" stop-color="#fff"/>
      <stop offset="1" stop-color="#fff"/>
    </linearGradient>
  </defs>
  <g id="CQ9" transform="translate(11.055 12.738)">
    <path id="패스_97060" data-name="패스 97060" d="M364.614,12.62c-17.054,0-30.875,12.549-30.875,28.036s13.821,28.028,30.875,28.028c11.031,0,20.7-5.255,26.165-13.156a26.982,26.982,0,0,1-26.165,20.315c-15.528-.033-25.537-5.411-35.691-11.339L327,63.375a36.208,36.208,0,1,0-65.905.911l-.525.349c-9.128,5.994-17.292,11.232-29.948,11.212A27.018,27.018,0,1,1,253.48,34.519a42.5,42.5,0,0,1,4.607-9.235A36.208,36.208,0,1,0,230.6,85.044c15.4,0,25.985-6.765,35.01-12.717l.41-.283a36.191,36.191,0,0,0,56.2-.779l2.022,1.19c10.256,6.022,22.612,12.6,40.351,12.6a36.212,36.212,0,1,0,0-72.424Zm0,46.87c-11.971,0-21.681-8.435-21.681-18.834S352.643,21.8,364.614,21.8s21.677,8.451,21.677,18.871S376.585,59.49,364.614,59.49Zm-70.8,16.356a27.076,27.076,0,1,1,25.115-17.058c-7.179-3.8-15.068-6.876-24.9-6.884a44.909,44.909,0,0,0-19.2,4.32,20.4,20.4,0,0,0,5.313,7.7A35.281,35.281,0,0,1,294.032,61.1c7.565,0,13.763,2.26,20.077,5.551A27,27,0,0,1,293.819,75.846Z" transform="translate(-205.43 -25.358)" fill="url(#linear-gradient)"/>
    <path id="패스_97061" data-name="패스 97061" d="M387.341,231.834h2.786V215.1h-2.777Zm-39.207-14.58a10.929,10.929,0,0,0-3.085-1.858,10.035,10.035,0,0,0-3.61-.636,9.55,9.55,0,0,0-2.392.291,8.917,8.917,0,0,0-2.137.82,8.684,8.684,0,0,0-1.813,1.309,8.086,8.086,0,0,0-1.395,1.711,8.653,8.653,0,0,0-.9,2.051,8.418,8.418,0,0,0-.32,2.31,9.457,9.457,0,0,0,.345,2.626,7.8,7.8,0,0,0,.976,2.154,7.244,7.244,0,0,0,1.51,1.67,8.614,8.614,0,0,0,1.961,1.182,10.552,10.552,0,0,0,2.306.706,13.467,13.467,0,0,0,2.539.234h6.01v-9.243h-2.765V230.4h-2.236a9.51,9.51,0,0,1-3.22-.509,6.7,6.7,0,0,1-2.412-1.436,6.354,6.354,0,0,1-1.518-2.248,7.794,7.794,0,0,1-.529-2.946,8.422,8.422,0,0,1,.451-2.806,6.5,6.5,0,0,1,1.3-2.215,5.841,5.841,0,0,1,2.051-1.469,6.715,6.715,0,0,1,2.72-.537,7.2,7.2,0,0,1,1.448.148,8.482,8.482,0,0,1,1.4.41,8.363,8.363,0,0,1,1.272.636,10.608,10.608,0,0,1,1.231.911Zm77.486,0a11.008,11.008,0,0,0-3.089-1.858,10.035,10.035,0,0,0-3.61-.636,9.55,9.55,0,0,0-2.392.291,8.916,8.916,0,0,0-2.137.82,8.686,8.686,0,0,0-1.813,1.309,8.205,8.205,0,0,0-1.395,1.711,8.478,8.478,0,0,0-.9,2.051,8.268,8.268,0,0,0-.32,2.31,9.462,9.462,0,0,0,.34,2.626,7.8,7.8,0,0,0,.976,2.154,7.339,7.339,0,0,0,1.51,1.67,8.715,8.715,0,0,0,1.961,1.182,10.552,10.552,0,0,0,2.306.706,13.5,13.5,0,0,0,2.539.234h6.01v-9.243h-2.765V230.4h-2.236a9.484,9.484,0,0,1-3.216-.509,6.71,6.71,0,0,1-2.416-1.436,6.288,6.288,0,0,1-1.514-2.248,7.794,7.794,0,0,1-.533-2.946,8.42,8.42,0,0,1,.451-2.806,6.5,6.5,0,0,1,1.3-2.215,5.879,5.879,0,0,1,2.051-1.469,6.716,6.716,0,0,1,2.72-.537,7.2,7.2,0,0,1,1.448.148,8.36,8.36,0,0,1,1.4.41,8.177,8.177,0,0,1,1.272.636,10.611,10.611,0,0,1,1.231.911ZM357.307,215.1l-.96,2.281-6.08,14.453h1.707l1.2-2.872h8.094l1.231,2.872h2.929L358.353,215.1Zm-3.528,12.443,3.417-8.172,3.471,8.156Zm51.735.41-9.165-12.865H394.6v16.734h1.477v-12.34l8.82,12.352h2.117V215.1h-1.485ZM375.3,221.582l-5.514-6.494h-2.2v16.734h1.477V218.1l5.571,6.49,5.608-6.474v13.718h2.769V215.1h-2.076Z" transform="translate(-286.878 -144.572)" fill="#fff"/>
  </g>
</svg>
