<svg xmlns="http://www.w3.org/2000/svg" width="300" height="54.892" viewBox="0 0 300 54.892">
  <g id="evolution_logo" transform="translate(-58 -10.621)">
    <g id="그룹_87580" data-name="그룹 87580" transform="translate(109.216 15.704)">
      <g id="그룹_87579" data-name="그룹 87579" transform="translate(0)">
        <path id="패스_247097" data-name="패스 247097" d="M271.4,34.3h31.56v7.152H279.608v10.44H295.16v7.152H279.608V70.708H303.68V77.86H271.4Z" transform="translate(-271.4 -33.7)" fill="#fff"/>
        <path id="패스_247098" data-name="패스 247098" d="M402.9,86.8h8.4l7.344,21.576L425.46,86.8H433.6l-11.28,30.96H414.78Z" transform="translate(-371.34 -73.6)" fill="#fff"/>
        <path id="패스_247099" data-name="패스 247099" d="M531.9,100.528c0-9.456,6.552-16.128,15.936-16.128,9.312,0,15.888,6.7,15.888,16.128,0,9.312-6.7,16.008-16.08,16.008C538.332,116.536,531.9,109.96,531.9,100.528Zm23.568.192v-.264c0-5.9-2.88-9.456-7.608-9.456-4.8,0-7.68,3.552-7.68,9.456v.264c0,5.784,2.808,9.192,7.536,9.192C552.516,109.912,555.468,106.48,555.468,100.72Z" transform="translate(-469.38 -71.776)" fill="#fff"/>
        <path id="패스_247100" data-name="패스 247100" d="M686.4,31.8h8.208V75.96H686.4Z" transform="translate(-586.8 -31.8)" fill="#fff"/>
        <path id="패스_247101" data-name="패스 247101" d="M746.5,105.352V86.8h8.136v18.1c0,4.128,1.968,6.552,5.64,6.552,4.272,0,6.048-3.6,6.048-8.928V86.8h8.136v30.96h-8.136v-4.392a8.843,8.843,0,0,1-8.472,4.992C750.844,118.36,746.5,113.368,746.5,105.352Z" transform="translate(-632.476 -73.6)" fill="#fff"/>
        <path id="패스_247102" data-name="패스 247102" d="M886.492,76.872v-16.2H882.1V54.12h4.392V48.264l7.944-4.464V54.1h6.1v6.552h-6.168V76.056c0,1.512.72,2.16,2.232,2.232h3.6v6.768h-6.288C887.932,84.744,886.636,82.008,886.492,76.872Z" transform="translate(-735.532 -40.92)" fill="#fff"/>
        <path id="패스_247103" data-name="패스 247103" d="M980.8,34.8h8.472v7.944H980.8Zm.12,12.48h8.208V78.24H980.92V47.28Z" transform="translate(-810.544 -34.08)" fill="#fff"/>
        <path id="패스_247104" data-name="패스 247104" d="M1037.4,100.528c0-9.456,6.552-16.128,15.936-16.128,9.312,0,15.888,6.7,15.888,16.128,0,9.312-6.7,16.008-16.08,16.008C1043.832,116.536,1037.4,109.96,1037.4,100.528Zm23.544.192v-.264c0-5.9-2.88-9.456-7.608-9.456-4.8,0-7.68,3.552-7.68,9.456v.264c0,5.784,2.808,9.192,7.536,9.192C1057.992,109.912,1060.944,106.48,1060.944,100.72Z" transform="translate(-853.56 -71.776)" fill="#fff"/>
        <path id="패스_247105" data-name="패스 247105" d="M1191.524,84.672h8.136v5.04A9.289,9.289,0,0,1,1208.708,84c6.768,0,10.752,4.536,10.752,13.056v18.576h-8.136v-18.1c0-4.32-1.632-6.552-5.448-6.552-3.864,0-6.24,3.144-6.24,8.928v15.744H1191.5l.024-30.984Z" transform="translate(-970.676 -71.472)" fill="#fff"/>
      </g>
    </g>
    <g id="그룹_87583" data-name="그룹 87583" transform="translate(58 10.621)">
      <g id="그룹_87582" data-name="그룹 87582">
        <g id="그룹_87581" data-name="그룹 87581">
          <path id="패스_247106" data-name="패스 247106" d="M90.064,20.312C82.648,10.544,69.184,7.784,58,13.76c4.368,9.816,7.632,21.36,29.16,22.032a78.306,78.306,0,0,0,8.352-.24,28.127,28.127,0,0,0-5.448-15.24" transform="translate(-58 -10.621)" fill="#fff"/>
          <path id="패스_247107" data-name="패스 247107" d="M86.1,134.447c-12.96.648-19.032,5.352-22.824,11.184-2.232,3.432-3.672,7.224-5.28,10.8,15.7,8.376,35.976-.456,37.512-21.816a74.462,74.462,0,0,0-9.408-.168" transform="translate(-58 -104.668)" fill="#fff"/>
        </g>
      </g>
    </g>
  </g>
</svg>
