<svg xmlns="http://www.w3.org/2000/svg" xmlns:xlink="http://www.w3.org/1999/xlink" width="500" height="103.726" viewBox="0 0 500 103.726">
  <defs>
    <linearGradient id="linear-gradient" y1="0.818" x2="1" y2="0.812" gradientUnits="objectBoundingBox">
      <stop offset="0" stop-color="#fff"/>
      <stop offset="1" stop-color="#fff"/>
    </linearGradient>
  </defs>
  <g id="habanero" transform="translate(4467 -1078.448)">
    <path id="빼기_12" data-name="빼기 12" d="M34.232,103.725h0L0,83.966V40.937a2.341,2.341,0,0,1,4.683,0v3.555a2.235,2.235,0,0,0,4.469,0V33.771a2.341,2.341,0,0,1,4.683,0v3.946a2.2,2.2,0,0,0,4.4,0V30.862c0-.021,0-.041,0-.062V23.058a2.341,2.341,0,0,1,4.683,0v9.586a2.235,2.235,0,0,0,4.47,0v-6.89a2.341,2.341,0,1,1,4.682,0v3.164a2.2,2.2,0,1,0,4.4,0V20.007a2.341,2.341,0,0,1,4.683,0V30.231a2.235,2.235,0,0,0,4.273.918l.2.113V26.606a2.341,2.341,0,1,1,4.683,0v9.55a2.2,2.2,0,0,0,4.373.334l.025.014v-.463a2.341,2.341,0,0,1,4.683,0V41.76a2.2,2.2,0,0,0,4.4,0V40.588a2.341,2.341,0,0,1,4.682.065V83.966L34.232,103.725ZM28.8,68.961H39.588V77.12H50.231V51.579H39.588v8.3H28.8v-8.3H18.163V77.12H28.8V68.962ZM47.96,21.71A2.341,2.341,0,1,1,50.3,19.369,2.344,2.344,0,0,1,47.96,21.71ZM29.727,19.838A2.344,2.344,0,0,1,27.386,17.5V10.926a2.341,2.341,0,1,1,4.682,0V17.5A2.344,2.344,0,0,1,29.727,19.838Zm9.081-6.03a2.344,2.344,0,0,1-2.341-2.342V4.9a2.341,2.341,0,0,1,4.683,0v6.571A2.344,2.344,0,0,1,38.808,13.808ZM29.727,4.683a2.341,2.341,0,1,1,2.341-2.342A2.344,2.344,0,0,1,29.727,4.683Z" transform="translate(-4467 1078.448)" fill="url(#linear-gradient)"/>
    <path id="합치기_25" data-name="합치기 25" d="M324.139,41.418c-3.908-4.167-3.712-11.158-3.712-18.137v-.51c0-6.9.268-11.666,1.849-14.9C325.439,1.384,332.861.008,342.509,0c9.484,0,15.444,1.715,18.259,7.252,1.766,3.472,2.174,8.243,2.174,15.009v.51c0,7.225-1.189,15.208-3.968,18.647-3.152,3.641-9.32,4.944-16.465,4.944C335.276,46.363,327.722,45.24,324.139,41.418Zm10.488-29.2c-1.345,1.4-1.637,6.151-1.637,10.553v.51c0,4.933-.018,9.2,1.831,10.953,1.647,1.468,5.131,1.471,7.688,1.471,2.8,0,5.242-.947,6.117-2.047,1.639-2.183,1.71-5.765,1.71-10.377v-.51c0-4.349.026-8.022-1.172-9.985-1.157-1.966-3.672-2.315-6.655-2.315C339.489,10.472,335.958,10.724,334.627,12.218ZM237.258.244l33.051-.1V10.22L249.5,10.21l.014,8.253h19.428v8.489H249.511l-.014,8.7h21.152V45.73l-33.39.111Zm65.594,45.442V41.162s.246-3.5-.772-5.222c-.79-2.178-4.142-2.178-4.142-2.178H288.7v11.98H276.386V.144h24.047c11.926,0,15.343,4.939,15.343,14.568v.255c0,3.539-.455,7.571-2.144,9.793-1.589,2.092-4.213,2.583-6.395,3.427,0,0,5.9.864,7.359,4.884s.9,12.67.9,12.67ZM288.7,23.281h10c4.125,0,4.4-2.479,4.4-6.178v-.255c0-3.7-.576-6.057-4.6-6.057h-9.8ZM210.5,45.73,197.32,10.868l.468,34.862H185.8V.133H206.28L219.4,34.863,219.159.244,231.345.133v45.6Zm-40.464,0-2.433-7.77H151.321l-2.2,7.77H136.375L150.1.133h18.627l13.976,45.6ZM153.985,29.065h11.236l-5.674-19.5ZM95.635,45.73V.133h25.343c10.778,0,13.369,4.847,13.369,11.925v.255c0,5.1-.806,9.307-7.063,10.36C133,23.23,135.1,26.5,135.1,32.81v.255c0,8.163-2.142,12.665-13.43,12.665Zm12.5-10.025h8.667c4.145,0,6.066-.628,6.066-4.008v-.255c0-3.444-.857-4.475-5.449-4.475h-9.285Zm0-17.235h9.285c4.081,0,4.725-1.309,4.725-4.36v-.255c0-2.781-1.39-3.507-5.344-3.507h-8.642ZM78.567,45.73l-2.423-7.482H60.53L58.106,45.73H44.926L59.03.133h18.4l13.977,45.6ZM62.581,29.257H74.093L68.119,9.72ZM28.123,45.73V27.747H12.637V45.73H0V.133H12.637v17.41H28.123V.133H40.7v45.6Zm362.555-34.01.143-8.292-2.657,8.292h-2.573l-2.743-8.292.121,8.292h-2.816V.921h4.571L386.882,7.7,388.844.921h4.671v10.8Zm-17.822,0V3.429h-2.841V.921h8.546V3.429H375.72v8.292Z" transform="translate(-4360.515 1116.603)" fill="#fff"/>
  </g>
</svg>
