<svg id="PINNACLE" xmlns="http://www.w3.org/2000/svg" width="300" height="78.753" viewBox="0 0 300 78.753">
  <g id="primary-logo-white">
    <path id="패스_203602" data-name="패스 203602" d="M0,296.59H118.274l-5.141,10.892H0Z" transform="translate(0 -233.813)" fill="#fff"/>
    <path id="패스_203603" data-name="패스 203603" d="M1111.56,14.5h11.618V52.144h18.77v11.17H1111.56Z" transform="translate(-876.283 -11.431)" fill="#fff"/>
    <path id="패스_203604" data-name="패스 203604" d="M1268.93,14.5h31.341V25.329h-19.786v8.016h19.786V44.173h-19.786v8.293h19.786V63.295H1268.93Z" transform="translate(-1000.343 -11.431)" fill="#fff"/>
    <path id="패스_203605" data-name="패스 203605" d="M0,14.5H18.389c11.343,0,18.58,8.079,18.58,17.841S29.8,50.46,18.326,50.46H11.618V63.293H0ZM11.618,25.136V39.652h6.327a6.957,6.957,0,0,0,7.3-7.226,7.009,7.009,0,0,0-7.3-7.29Z" transform="translate(0 -11.431)" fill="#fff"/>
    <path id="패스_203606" data-name="패스 203606" d="M188.86,14.5h11.682V63.293H188.86Z" transform="translate(-148.885 -11.431)" fill="#fff"/>
    <path id="패스_203607" data-name="패스 203607" d="M260.261,14.5H272.6l20.506,29.2V14.5H304.6V63.293H293.105l-21.31-31.165V63.314H260.24V14.5Z" transform="translate(-205.157 -11.431)" fill="#fff"/>
    <path id="패스_203608" data-name="패스 203608" d="M713.623,51.883h13.523L702.661,0h-.826L677.35,51.883h13.523l2.434-5.33h17.9ZM697.9,36.451l4.36-9.571,4.36,9.571H697.9Z" transform="translate(-533.979)" fill="#fff"/>
    <path id="패스_203609" data-name="패스 203609" d="M914.016,41.991c-1.99,4.6-5.967,7.95-11.745,7.95-7.7,0-12.952-6.075-12.952-13.494s5.374-13.642,13.079-13.642a12.176,12.176,0,0,1,11.343,7.078L923.9,23.4A24.814,24.814,0,0,0,902.334,11.38c-14.264,0-24.824,10.829-24.824,25.067v.127l9.417,19.973a24.884,24.884,0,0,0,15.384,4.968,24.563,24.563,0,0,0,22.369-13.771l-10.666-5.755Z" transform="translate(-691.772 -8.971)" fill="#fff"/>
    <path id="패스_203610" data-name="패스 203610" d="M523.563,62.186l7.47-15.818V14.5H519.542V43.724L499.057,14.5H486.7V63.314h11.555V32.13l21.287,31.184h3.492Z" transform="translate(-383.683 -11.431)" fill="#fff"/>
  </g>
  <g id="그룹_87274" data-name="그룹 87274" transform="translate(139.817 63.004)">
    <path id="패스_203633" data-name="패스 203633" d="M293.731,131.766a3.026,3.026,0,0,0-3.189-2.551,2.653,2.653,0,0,0-2.895,2.5,2.2,2.2,0,0,0,1.913,2.208l2.257.491c2.5.54,3.925,2.11,3.925,4.219,0,2.355-2.011,4.465-5.2,4.465-3.63,0-5.348-2.355-5.642-4.465l2.011-.638a3.432,3.432,0,0,0,3.63,3.238c2.061,0,3.091-1.079,3.091-2.4,0-1.079-.736-2.011-2.257-2.355l-2.159-.491c-2.159-.491-3.68-1.864-3.68-4.121a4.8,4.8,0,0,1,4.955-4.465c3.385,0,4.759,2.11,5.1,3.729Z" transform="translate(-284.9 -127.351)" fill="#fff"/>
    <path id="패스_203634" data-name="패스 203634" d="M314.861,136.88v6.182H312.8V128h5.495a4.469,4.469,0,1,1,0,8.929h-3.434Zm3.042-1.864c1.815,0,2.895-.981,2.895-2.551,0-1.619-1.128-2.6-2.895-2.6h-3.042v5.151Z" transform="translate(-299.112 -127.657)" fill="#fff"/>
    <path id="패스_203635" data-name="패스 203635" d="M344.355,127.3a7.855,7.855,0,1,1-7.555,7.85A7.5,7.5,0,0,1,344.355,127.3Zm0,13.835c2.8,0,5.446-2.011,5.446-5.936s-2.649-5.936-5.446-5.936-5.446,2.011-5.446,5.936S341.509,141.135,344.355,141.135Z" transform="translate(-311.337 -127.3)" fill="#fff"/>
    <path id="패스_203636" data-name="패스 203636" d="M377.866,136.88H375.61v6.182H373.5V128h5.642a4.368,4.368,0,0,1,4.612,4.465,4.227,4.227,0,0,1-3.68,4.268l3.581,6.329h-2.4Zm.932-1.864a2.588,2.588,0,1,0,0-5.151H375.61v5.151Z" transform="translate(-330.032 -127.657)" fill="#fff"/>
    <path id="패스_203637" data-name="패스 203637" d="M404.014,129.913v13.148h-2.061V129.913H396.9V128h12.167v1.913Z" transform="translate(-341.952 -127.657)" fill="#fff"/>
    <path id="패스_203638" data-name="패스 203638" d="M432.631,131.766a3.025,3.025,0,0,0-3.189-2.551,2.653,2.653,0,0,0-2.895,2.5,2.2,2.2,0,0,0,1.913,2.208l2.257.491c2.5.54,3.925,2.11,3.925,4.219,0,2.355-2.011,4.465-5.2,4.465-3.63,0-5.348-2.355-5.642-4.465l2.011-.638a3.432,3.432,0,0,0,3.63,3.238c2.061,0,3.091-1.079,3.091-2.4,0-1.079-.736-2.011-2.257-2.355l-2.159-.491c-2.159-.491-3.68-1.864-3.68-4.121a4.8,4.8,0,0,1,4.955-4.465c3.385,0,4.759,2.11,5.1,3.729Z" transform="translate(-355.655 -127.351)" fill="#fff"/>
    <path id="패스_203639" data-name="패스 203639" d="M462.5,143.062V128h5.3c3.827,0,7.163,2.6,7.163,7.555s-3.385,7.506-7.212,7.506Zm5.2-1.864c2.8,0,5.1-1.864,5.1-5.642,0-3.827-2.306-5.74-5.1-5.74h-3.14V141.2Z" transform="translate(-375.368 -127.657)" fill="#fff"/>
    <path id="패스_203640" data-name="패스 203640" d="M493.8,143.062V128h2.11v15.062Z" transform="translate(-391.312 -127.657)" fill="#fff"/>
    <path id="패스_203641" data-name="패스 203641" d="M510.266,136.88H508.01v6.182H505.9V128h5.691a4.368,4.368,0,0,1,4.612,4.465,4.227,4.227,0,0,1-3.68,4.268l3.581,6.329h-2.4Zm.932-1.864a2.588,2.588,0,1,0,0-5.151H508.01v5.151Z" transform="translate(-397.476 -127.657)" fill="#fff"/>
    <path id="패스_203642" data-name="패스 203642" d="M532.8,143.062V128h9.174v1.913H534.86v4.661h6.427v1.962H534.86v4.612h7.065v1.913H532.8Z" transform="translate(-411.179 -127.657)" fill="#fff"/>
    <path id="패스_203643" data-name="패스 203643" d="M555.8,135.15a7.463,7.463,0,0,1,7.506-7.85c3.434,0,5.887,1.864,6.623,4.808l-1.913.687a4.5,4.5,0,0,0-4.71-3.532c-2.747,0-5.348,2.011-5.348,5.936s2.6,5.936,5.348,5.936a4.845,4.845,0,0,0,4.808-3.63l1.864.687a6.558,6.558,0,0,1-6.672,4.857C559.381,143.048,555.8,140.2,555.8,135.15Z" transform="translate(-422.895 -127.3)" fill="#fff"/>
    <path id="패스_203644" data-name="패스 203644" d="M593.714,129.913v13.148h-2.061V129.913H586.6V128h12.167v1.913Z" transform="translate(-438.584 -127.657)" fill="#fff"/>
  </g>
</svg>
