<svg id="playngo" xmlns="http://www.w3.org/2000/svg" width="300" height="82.653" viewBox="0 0 300 82.653">
  <path id="패스_97504" data-name="패스 97504" d="M186.417,3.705a4.726,4.726,0,0,1,6.718,0,4.653,4.653,0,0,1,1.394,3.377,4.634,4.634,0,0,1-1.394,3.377,4.755,4.755,0,0,1-6.73.011,4.616,4.616,0,0,1-1.394-3.377A4.671,4.671,0,0,1,186.417,3.705Zm.491,8.339a5.682,5.682,0,0,0,2.868.77,5.529,5.529,0,0,0,2.856-.77,5.716,5.716,0,0,0,2.091-2.09,5.6,5.6,0,0,0,.765-2.871,5.587,5.587,0,0,0-.765-2.86,5.747,5.747,0,0,0-2.091-2.1,5.665,5.665,0,0,0-5.7,0,5.72,5.72,0,0,0-2.092,2.09,5.6,5.6,0,0,0-.765,2.871,5.6,5.6,0,0,0,.765,2.871A5.414,5.414,0,0,0,186.909,12.044Z" transform="translate(97.671 0.717)"/>
  <path id="패스_97505" data-name="패스 97505" d="M187.3,3.923h1.131a2.508,2.508,0,0,1,1.211.207.766.766,0,0,1,.343.712.776.776,0,0,1-.354.712,2.2,2.2,0,0,1-1.131.23h-1.211V3.923Zm0,2.7h.594a1.268,1.268,0,0,1,.9.31,5.865,5.865,0,0,1,.926,1.355l.537.965h1.211l-.742-1.206a6.9,6.9,0,0,0-.778-1.08A1.864,1.864,0,0,0,189.3,6.5a1.906,1.906,0,0,0,1.258-.551,1.6,1.6,0,0,0,.491-1.195,1.575,1.575,0,0,0-.275-.884,1.515,1.515,0,0,0-.742-.6,5.02,5.02,0,0,0-1.587-.184h-2.126V9.253h.993V6.623Z" transform="translate(98.86 1.637)"/>
  <path id="패스_97506" data-name="패스 97506" d="M21.9,12.03c-6.97,0-13.849,5.421-15.678,12.359L.45,43.306A12.021,12.021,0,0,0,2.359,53.828a11.377,11.377,0,0,0,9.187,4.158H147.8a24.614,24.614,0,0,1,1.085-8.419l10.432-34.033a28.706,28.706,0,0,1,1.384-3.5Z" transform="translate(0 6.383)" fill="#000"/>
  <path id="패스_97507" data-name="패스 97507" d="M186.817,12.03a23.161,23.161,0,0,1-.972,8.235l-10,33.275A30.966,30.966,0,0,1,174,57.974h9.929c7.119,0,15.906-5.686,17.781-12.761l5.507-18.079a12.206,12.206,0,0,0-1.942-10.716,11.741,11.741,0,0,0-9.36-4.388Z" transform="translate(92.324 6.383)" fill="#fff"/>
  <path id="패스_97508" data-name="패스 97508" d="M229.224,18.791a19.792,19.792,0,0,0-3.68-10.877C221.877,2.883,215.078,0,208.266,0H137.1c-11.359,0-22.981,8.006-28,18.779a28.718,28.718,0,0,0-1.382,3.5L97.437,55.914a24.123,24.123,0,0,0-1.1,8.327,19.459,19.459,0,0,0,3.622,10.648,19.662,19.662,0,0,0,16.192,7.764h66.961l4.378-.057c11.313,0,23.677-7.776,29.013-18.355a28.641,28.641,0,0,0,1.8-4.434l9.805-32.563A24.881,24.881,0,0,0,229.224,18.791Z" transform="translate(51.106)"/>
  <path id="패스_97509" data-name="패스 97509" d="M162.25,21.768H129.7a.281.281,0,0,0-.274.207l-10.365,33.3a.294.294,0,0,0,.276.379H134.86a.284.284,0,0,0,.275-.207l2.844-9.407a.288.288,0,0,0-.274-.379H130.86a.287.287,0,0,1-.274-.379l4.217-13.14a.281.281,0,0,1,.274-.207H158.9a.287.287,0,0,1,.274.379L152.1,55.467c-2.937,9.384-12.136,17.057-21.471,17.057H113.664c-9.337,0-14.581-7.684-11.645-17.057l10.673-34.125c2.937-9.384,12.8-16.39,22.134-16.39h32.59a.287.287,0,0,1,.274.379l-5.164,16.241A.3.3,0,0,1,162.25,21.768Z" transform="translate(53.699 2.628)" fill="#fff"/>
  <path id="패스_97510" data-name="패스 97510" d="M171.793,55.706H155.818a.287.287,0,0,1-.274-.379L165.93,21.949a.282.282,0,0,1,.274-.207h15.849a.287.287,0,0,1,.274.379L172.067,55.5A.281.281,0,0,1,171.793,55.706ZM187.253,4.915h-15.62c-9.611,0-19.723,7.121-22.728,16.781L138.734,54.913c-3.017,9.648,2.16,17.562,11.77,17.562h15.62c9.6,0,20.192-7.96,23.209-17.608l10.033-33.091C202.382,12.117,196.852,4.915,187.253,4.915Z" transform="translate(73.158 2.608)" fill="#fff"/>
  <path id="패스_97511" data-name="패스 97511" d="M70,45.307a.285.285,0,0,1-.286.207l-6.251.011a.288.288,0,0,1-.274-.379l1.862-6.088a.3.3,0,0,0-.274-.379c-3.508-.207-5.5-3.274-4.354-6.915l4.1-13.5a.281.281,0,0,1,.274-.207H71a.288.288,0,0,1,.274.379c-.571,1.826-3.622,11.865-4.057,13.4h6.89c.446-1.493,3.7-12.118,4.159-13.576a.285.285,0,0,1,.286-.207h6.113a.3.3,0,0,1,.286.39L80.872,31.765c-1.154,3.7-4.948,6.754-8.639,6.869a.292.292,0,0,0-.274.207Z" transform="translate(31.893 9.584)" fill="#fff"/>
  <path id="패스_97512" data-name="패스 97512" d="M92.859,22.513c-3.748,0-7.782,3.09-8.959,6.857L79.844,42.831a.289.289,0,0,0,.274.379h6.2A.281.281,0,0,0,86.6,43c.446-1.447,3.451-11.2,4.182-13.5,1.314,0,4.9,0,6.742-.011-.914,2.895-3.485,11.509-4.057,13.335a.289.289,0,0,0,.274.379h6.353a.281.281,0,0,0,.274-.207l4.125-13.634c1.143-3.641-.777-6.639-4.285-6.846C100.024,22.513,92.859,22.513,92.859,22.513Z" transform="translate(42.359 11.945)" fill="#fff"/>
  <path id="패스_97513" data-name="패스 97513" d="M59.5,31.834H52.658l2.114-7.006h6.89Zm4.331-13.772H56.772c-3.748,0-7.782,3.09-8.959,6.857L41.665,45.1a.293.293,0,0,0,.274.379h6.2a.282.282,0,0,0,.274-.207l2.537-8.006a.3.3,0,0,1,.274-.2H57.56a.3.3,0,0,1,.286.367L55.458,45.1a.293.293,0,0,0,.274.379l6.251.011a.281.281,0,0,0,.274-.207L68.484,24.92C69.7,21.152,67.582,18.063,63.834,18.063Z" transform="translate(22.101 9.584)" fill="#fff"/>
  <path id="패스_97514" data-name="패스 97514" d="M28.028,31.857H21.184L23.3,24.851h6.89Zm4.251-13.795H18.669a.281.281,0,0,0-.274.207L10.191,45.1a.293.293,0,0,0,.274.379h6.2a.306.306,0,0,0,.286-.207l2.011-6.444a.285.285,0,0,1,.286-.207h6.6c3.748,0,7.782-3.078,8.959-6.846l2.137-6.846C38.141,21.152,36.039,18.063,32.279,18.063Z" transform="translate(5.4 9.584)" fill="#fff"/>
  <path id="패스_97515" data-name="패스 97515" d="M85.223,26.1H77.384l2.423-8.017H87.68Z" transform="translate(41.061 9.596)" fill="#fff"/>
  <path id="패스_97516" data-name="패스 97516" d="M25.772,45.568,34.2,18.255a.285.285,0,0,1,.286-.207h6.228a.3.3,0,0,1,.286.379L34.993,38.263a.291.291,0,0,0,.286.379h5.988a.306.306,0,0,0,.286-.207L43.6,32a.285.285,0,0,1,.286-.207h6.228a.3.3,0,0,1,.286.391L46.283,45.361a.285.285,0,0,1-.286.207H25.772Z" transform="translate(13.632 9.576)" fill="#fff"/>
</svg>
