<svg xmlns="http://www.w3.org/2000/svg" width="300" height="66.02" viewBox="0 0 300 66.02">
  <g id="playtech" transform="translate(62.642 40.673)">
    <g id="g11933" transform="translate(-62.642 -40.673)">
      <path id="path11125" d="M5.984-23.7c-.048-.115-.075-.226-.123-.344C3-31.057-7.865-33.182-20.391-29.978l-2.055-1.28c6.167-2.661,12.309-4.051,17.455-3.671C2.685-34.347,6.44-29.978,5.984-23.7M-5.153-8.976C-13.185,1.25-27.7,8.328-37.575,7.6-47.435,6.85-48.93-2.037-40.9-12.263c.159-.21.333-.416.5-.626l.025,12.82a3.623,3.623,0,0,0,5.342,3.494L-5.5-14.583a3.634,3.634,0,0,0-.109-6.13L-17.582-27.6a25.645,25.645,0,0,1,9.1-1.227c9.868.746,11.352,9.63,3.327,19.856M-42.71,13.1c-9.063-.682-12.677-6.656-10.318-14.791a9.694,9.694,0,0,0,.7,3.863c3.542,8.708,19.443,9.888,35.511,2.658.33-.148.657-.31.981-.456-9.021,5.823-19.071,9.3-26.876,8.725m10.441-45.524,19.823,12.493a2.492,2.492,0,0,1,.081,4.179L-32.389-3.544a2.468,2.468,0,0,1-3.631-2.4l-.1-24.245a2.559,2.559,0,0,1,3.847-2.242m45.885,4.5C9.462-38.138-7.792-40.386-26.463-33.78l-8.286-5.191a3.779,3.779,0,0,0-5.669,3.307l.006,8.431C-56.5-17.591-65.834-3.712-61.862,6.058c4.6,11.285,25.226,12.834,46.064,3.447s34.01-26.143,29.414-37.434" transform="translate(62.775 47.774)" fill="#fff"/>
      <path id="path11129" d="M-32.939-20.275l-1.8,6.628c-.268,1.009-.475,1.929-.64,2.72a9.813,9.813,0,0,0-.24,1.8,2.269,2.269,0,0,0,.587,1.661,2.238,2.238,0,0,0,1.635.6A4.76,4.76,0,0,0-30.1-8.651a19.788,19.788,0,0,0,3.276-5.135,63.875,63.875,0,0,0,3.1-8.493,26.694,26.694,0,0,0,1.174-6.536,4.835,4.835,0,0,0-.691-2.726,2.052,2.052,0,0,0-1.733-1.04c-1.568,0-3,1.015-4.308,3.011a33.812,33.812,0,0,0-3.651,9.295m-11.31-15.4c2.8-.221,5.448-.514,7.992-.841s4.973-.707,7.33-1.169l-1.982,7.106a24.868,24.868,0,0,1,5.675-6.008,9.3,9.3,0,0,1,5.56-1.893,7.625,7.625,0,0,1,6.111,2.494c1.445,1.677,2.153,4.059,2.153,7.14a25.219,25.219,0,0,1-1.47,8.21,32.166,32.166,0,0,1-4.129,8.015,23.256,23.256,0,0,1-6.522,6.466,13.753,13.753,0,0,1-7.377,2.167,9.29,9.29,0,0,1-3.016-.47,8.708,8.708,0,0,1-2.533-1.392l-2.03,7.7a8.084,8.084,0,0,0-.3,1.44,8.7,8.7,0,0,0-.1,1.428A2.228,2.228,0,0,0-38.074,6.7a7.557,7.557,0,0,0,3.335.707V9.2h-18.92V7.325a1.594,1.594,0,0,0,.277-.031,1.29,1.29,0,0,1,.271-.042,3.466,3.466,0,0,0,2.639-.92c.593-.615,1.194-2.217,1.828-4.828l7.531-30.675c.131-.489.232-.99.313-1.465a7.508,7.508,0,0,0,.12-1.087,1.867,1.867,0,0,0-.746-1.719,5.426,5.426,0,0,0-2.823-.5Z" transform="translate(125.892 54.835)" fill="#fff"/>
      <path id="path11133" d="M-42.9-38.3c2.829-.229,5.529-.537,8.154-.911,2.605-.372,5.082-.8,7.405-1.331L-37.734.589c-.067.226-.145.5-.235.855A4.853,4.853,0,0,0-38.156,2.5a1.947,1.947,0,0,0,.28,1.135.985.985,0,0,0,.85.411,1.936,1.936,0,0,0,1.283-.785,36.333,36.333,0,0,0,2.8-4.084L-31.282.433a29.88,29.88,0,0,1-5.985,7.6,9.133,9.133,0,0,1-5.9,2.348,5.555,5.555,0,0,1-4.2-1.521,6.069,6.069,0,0,1-1.47-4.389,46.978,46.978,0,0,1,1.5-7.425l.1-.405,6.9-26.77c.062-.246.148-.612.26-1.093a18.32,18.32,0,0,0,.632-3.385,1.679,1.679,0,0,0-.7-1.49,3.859,3.859,0,0,0-2.166-.486H-42.9Z" transform="translate(159.26 40.541)" fill="#fff"/>
      <path id="path11137" d="M-23.376-31.292a3.881,3.881,0,0,0-.637-2.351,1.993,1.993,0,0,0-1.683-.869,3.956,3.956,0,0,0-2.863,1.459,24.019,24.019,0,0,0-3.19,4.909,47.272,47.272,0,0,0-3.321,8,23.344,23.344,0,0,0-1.224,6.729,4.627,4.627,0,0,0,.674,2.656,2.153,2.153,0,0,0,1.82.936c1.115,0,2.253-.663,3.433-2.018a21.849,21.849,0,0,0,3.343-5.694,65.424,65.424,0,0,0,2.647-7.917,25.439,25.439,0,0,0,1-5.84m12.535-6.035-5.543,20.345v.073a39.244,39.244,0,0,0-1.269,5.479,2.109,2.109,0,0,0,.28,1.171.8.8,0,0,0,.738.436c.9,0,2.069-1.079,3.475-3.246.425-.618.752-1.107.976-1.448l1.61,1.269a24.861,24.861,0,0,1-5.451,7.019A9.226,9.226,0,0,1-21.97-3.986a6.065,6.065,0,0,1-4.02-1.166,4.286,4.286,0,0,1-1.392-3.466,12.286,12.286,0,0,1,.131-1.722c.081-.7.226-1.6.419-2.695A20.789,20.789,0,0,1-32.3-6.225a10.567,10.567,0,0,1-6.575,2.239,7.653,7.653,0,0,1-5.91-2.337,9.127,9.127,0,0,1-2.175-6.438,26.492,26.492,0,0,1,2.091-9.921,31.333,31.333,0,0,1,5.6-9.175A22.867,22.867,0,0,1-33.5-36.766a11.654,11.654,0,0,1,5.778-1.711,6.254,6.254,0,0,1,4.157,1.283,6.516,6.516,0,0,1,2.007,3.936l1.02-4.07Z" transform="translate(172.265 54.835)" fill="#fff"/>
      <path id="path11141" d="M-37.682-34.512v-1.879c2.7-.3,5.434-.676,8.221-1.1,2.765-.422,4.271-.626,4.481-.626,1.113,0,2.569,4.895,4.333,14.7.716,3.9,1.3,7.047,1.764,9.4q3.153-6.395,4.316-9.32a13.165,13.165,0,0,0,1.155-4.294c0-.713-.649-1.579-1.94-2.566A4.32,4.32,0,0,1-17.3-33.6a4.75,4.75,0,0,1,1.359-3.547,4.862,4.862,0,0,1,3.575-1.328A4.549,4.549,0,0,1-8.9-37.149,5.372,5.372,0,0,1-7.653-33.4q0,3.011-2.874,9.689A135.053,135.053,0,0,1-18.371-8.682c-3.749,6.374-7.17,11-10.24,13.93s-6.03,4.383-8.873,4.383a7.067,7.067,0,0,1-4.45-1.261,4.188,4.188,0,0,1-1.619-3.48,4.319,4.319,0,0,1,1.4-3.313A4.966,4.966,0,0,1-38.6.269a6.507,6.507,0,0,1,3.62,1.336A6.326,6.326,0,0,0-32.4,2.93c.774,0,1.647-.649,2.633-1.943a6.173,6.173,0,0,0,1.521-3.735,30.086,30.086,0,0,0-.235-3.31c-.151-1.345-.394-2.986-.707-4.934-.654-4.179-1.317-8-1.976-11.42q-1.015-5.128-1.817-8.093a8.813,8.813,0,0,0-1.437-3.315,3.136,3.136,0,0,0-2.385-.769h-.087a6.105,6.105,0,0,1-.794.075" transform="translate(195.874 54.834)" fill="#fff"/>
      <path id="path11145" d="M-23.511-3.012a32.1,32.1,0,0,1-6.139,6.762A9.035,9.035,0,0,1-35.081,6.11,3.992,3.992,0,0,1-38.2,4.824a5.079,5.079,0,0,1-1.152-3.48A11.1,11.1,0,0,1-39.2-.373a18.866,18.866,0,0,1,.439-2.108l5.96-23.3h-6.276l.584-2a14.776,14.776,0,0,0,7.165-3.866,27.727,27.727,0,0,0,5.6-8.291h2.141l-2.8,11.7h5.734l-.579,2.463h-5.91L-32.861-3.274c-.131.512-.232.959-.3,1.381a10.311,10.311,0,0,0-.092,1.107,2.582,2.582,0,0,0,.5,1.716,1.634,1.634,0,0,0,1.356.593A4.383,4.383,0,0,0-28.727.172a32.064,32.064,0,0,0,3.936-4.392Z" transform="translate(224.934 44.662)" fill="#fff"/>
      <path id="path11149" d="M-29.98-21.018A20.965,20.965,0,0,0-18.362-24.78c3.142-2.315,4.691-4.912,4.691-7.858a3.008,3.008,0,0,0-.749-2.225,3.09,3.09,0,0,0-2.245-.724c-2.8,0-5.392,1.266-7.769,3.849A26.669,26.669,0,0,0-29.98-21.018m-.545,2.468a19.493,19.493,0,0,0-.45,2.412,13.632,13.632,0,0,0-.145,2.083,6.249,6.249,0,0,0,1.445,4.467A5.611,5.611,0,0,0-25.468-7.8c1.811,0,3.894-.861,6.186-2.1a43.424,43.424,0,0,0,7.8-5.611l1.518,2.3a42.322,42.322,0,0,1-9.695,6.838,20,20,0,0,1-8.9,2.217,8.645,8.645,0,0,1-6.653-2.561c-1.582-1.719-2.368-4.126-2.368-7.265a24.632,24.632,0,0,1,1.845-9.144,27.912,27.912,0,0,1,5.037-8.238,22.775,22.775,0,0,1,6.768-5.256,17.2,17.2,0,0,1,7.6-1.828,8.775,8.775,0,0,1,5.658,1.674,5.529,5.529,0,0,1,2.083,4.568c0,3.492-2.035,6.525-6.066,9.074s-9.331,4.062-15.876,4.587" transform="translate(237.257 54.996)" fill="#fff"/>
      <path id="path11153" d="M-7.588-18.115-7.677-13.7a24.192,24.192,0,0,1-7.089,7.131,15.779,15.779,0,0,1-8.392,2.348,10.552,10.552,0,0,1-8.112-3.357A12.376,12.376,0,0,1-34.379-16.4a21.172,21.172,0,0,1,1.761-8.23,24.622,24.622,0,0,1,4.875-7.52,20.528,20.528,0,0,1,6.407-4.643,16.907,16.907,0,0,1,7.215-1.655A9.871,9.871,0,0,1-7.937-36.66a5.688,5.688,0,0,1,2.3,4.744,4.229,4.229,0,0,1-1.2,3.036A3.735,3.735,0,0,1-9.665-27.62a2.828,2.828,0,0,1-2.178-.878,3.2,3.2,0,0,1-.83-2.3A5.121,5.121,0,0,1-12-33.1a5.564,5.564,0,0,0,.651-1.63,1.106,1.106,0,0,0-.676-.99,3.783,3.783,0,0,0-1.848-.38,9.362,9.362,0,0,0-4.878,1.493,15.009,15.009,0,0,0-4.339,4.146,26.344,26.344,0,0,0-3.5,6.757A21.51,21.51,0,0,0-27.8-16.731a9.079,9.079,0,0,0,1.96,6.156,6.968,6.968,0,0,0,5.353,2.533A9.977,9.977,0,0,0-15.253-9.98a26.384,26.384,0,0,0,7.665-8.135" transform="translate(259.388 55.041)" fill="#fff"/>
      <path id="path11157" d="M-31.492,9.792l11.738-42.528a5.251,5.251,0,0,0,.143-.808,4.575,4.575,0,0,0,.056-.749,1.912,1.912,0,0,0-.559-1.571,7.28,7.28,0,0,0-3.176-.4h-2.672l.414-1.94a39.831,39.831,0,0,0,6.044-.707,32.218,32.218,0,0,0,5.281-1.552H-12.1L-20.226-11.09A77.563,77.563,0,0,1-8.748-20.978c3.478-2.323,6.256-3.5,8.328-3.5a3.283,3.283,0,0,1,2.41.78,3.427,3.427,0,0,1,.788,2.443,6.348,6.348,0,0,1-.157,1.236c-.092.506-.218,1.059-.369,1.655L-3.677,1.643a12.849,12.849,0,0,0-.277,1.28,7.7,7.7,0,0,0-.123,1.359.954.954,0,0,0,.335.688c.212.2.472.545.752.545A5.565,5.565,0,0,0-.582,4.089,21.144,21.144,0,0,0,2.65.857L3.857,1.895a30.372,30.372,0,0,1-5.9,5.812A9.31,9.31,0,0,1-7.277,9.725a3.724,3.724,0,0,1-2.466-.76,2.555,2.555,0,0,1-.9-2.088,5.31,5.31,0,0,1,.1-1.012,8.3,8.3,0,0,1,.321-1.174l6.091-20.695c.112-.453.184-.8.224-1.034a4.113,4.113,0,0,0,.048-.643,1.566,1.566,0,0,0-.45-1.216,1.843,1.843,0,0,0-1.275-.4,8.19,8.19,0,0,0-3.833,1.635,47.15,47.15,0,0,0-5.868,4.677,32.643,32.643,0,0,0-4.392,4.573A13.28,13.28,0,0,0-21.7-4.482L-25.744,9.792c-.461-.07-2.094-.123-2.569-.154s.218-.033-.271-.033-.99,0-1.468.033-.945.084-1.44.154" transform="translate(279.382 41.063)" fill="#fff"/>
      <path id="path11161" d="M-38.82-26.75v.553a2.518,2.518,0,0,0,.106.794c.168.671.713,1.006,1.644,1.006a2.86,2.86,0,0,0,.942-.145,1.355,1.355,0,0,0,.976-1.417,1.374,1.374,0,0,0-.626-1.191,9.122,9.122,0,0,0-1.051-.573l-1.227-.556a6.946,6.946,0,0,1-1.213-.665,2.325,2.325,0,0,1-1.018-2.03,2.173,2.173,0,0,1,1.138-2.055,4.906,4.906,0,0,1,2.3-.47,3.92,3.92,0,0,1,2.566.674,2.774,2.774,0,0,1,.626,2.127v.2h-1.686v-.238l-.033-.514q-.155-1.157-1.5-1.129-1.7,0-1.722,1.364A1.62,1.62,0,0,0-37.536-29.6c.444.232.939.458,1.493.693a10.038,10.038,0,0,1,1.359.66A2.455,2.455,0,0,1-33.463-26c-.017,1.809-1.216,2.72-3.6,2.72a4.331,4.331,0,0,1-2.362-.506,2.171,2.171,0,0,1-1.051-1.767l-.022-.8v-.4Z" transform="translate(216.993 89.303)" fill="#fff"/>
      <path id="path11165" d="M-39.471-30.15a5.571,5.571,0,0,1,.226-1.792,2.2,2.2,0,0,1,1.49-1.278,5.542,5.542,0,0,1,1.789-.28,5.611,5.611,0,0,1,1.786.28A2.206,2.206,0,0,1-32.7-31.941a5.649,5.649,0,0,1,.235,1.792v3.329a10.338,10.338,0,0,1-.1,1.554c-.187,1.311-1.305,1.976-3.352,1.982-1.484,0-2.48-.3-2.986-.923a4.213,4.213,0,0,1-.567-2.614Zm1.688,3.318A4.817,4.817,0,0,0-37.6-25.2a1.27,1.27,0,0,0,.649.593,2.407,2.407,0,0,0,.987.215,2.13,2.13,0,0,0,.881-.182,1.29,1.29,0,0,0,.883-1.138c.028-.31.042-.679.048-1.115v-3.327a3.171,3.171,0,0,0-.24-1.521,1.638,1.638,0,0,0-1.571-.7,2.311,2.311,0,0,0-.853.148,1.283,1.283,0,0,0-.923,1.155,6.135,6.135,0,0,0-.042.92Z" transform="translate(224.128 89.302)" fill="#fff"/>
      <path id="path11169" d="M-38.395-33.48h1.683v6.628l.017.875q.088,1.447,1.683,1.456c1.065,0,1.649-.453,1.75-1.364a9.272,9.272,0,0,0,.064-.967V-33.48h1.686v6.734c-.006.551-.025.976-.059,1.28a1.838,1.838,0,0,1-.562,1.157,3.928,3.928,0,0,1-2.826.9,3.9,3.9,0,0,1-2.846-.883,1.9,1.9,0,0,1-.548-1.174c-.028-.268-.042-.69-.042-1.28Z" transform="translate(231.583 89.427)" fill="#fff"/>
      <path id="path11173" d="M-34.519-33.48h1.006a6.609,6.609,0,0,1,1.071.089,2.131,2.131,0,0,1,1.893,2.385,2.508,2.508,0,0,1-.492,1.669A3.064,3.064,0,0,1-32.9-28.6v-.006a4.1,4.1,0,0,1,1.233.26,1.224,1.224,0,0,1,.676.864,5.475,5.475,0,0,1,.109.92l.073,1.168a5.971,5.971,0,0,0,.14,1.048,5.571,5.571,0,0,0,.249.8h-1.756l-.171-.635a3.4,3.4,0,0,1-.092-.685l-.067-.892-.056-.931a1.311,1.311,0,0,0-1.029-1.28,4.417,4.417,0,0,0-.881-.081h-1.166v4.5h-1.691v-9.93Zm-1.115,1.118v3.187h1.2a6.4,6.4,0,0,0,.934-.062,1.413,1.413,0,0,0,1.071-.623,2.317,2.317,0,0,0,.19-1.1,1.205,1.205,0,0,0-.565-1.149,3.357,3.357,0,0,0-1.535-.252Z" transform="translate(238.984 89.427)" fill="#fff"/>
      <path id="path11177" d="M-31.37-30.736l-.009-.461c-.042-.794-.512-1.188-1.417-1.182q-1.208,0-1.571.626a1.238,1.238,0,0,0-.221.609l-.014.816v3.919a3.066,3.066,0,0,0,.2,1.37,1.594,1.594,0,0,0,1.445.643,1.352,1.352,0,0,0,1.512-1.269l.07-.64v-.341h1.686v.347l-.014.621a2.38,2.38,0,0,1-.763,1.705,2.372,2.372,0,0,1-.981.509,5.477,5.477,0,0,1-1.459.182A5.9,5.9,0,0,1-34.2-23.4a2.474,2.474,0,0,1-2.094-2.784v-3.956a7.11,7.11,0,0,1,.081-1.2,2.239,2.239,0,0,1,.453-1.129A3.564,3.564,0,0,1-32.867-33.5q2.914.017,3.139,1.848a6.688,6.688,0,0,1,.042.783v.386h-1.686Z" transform="translate(246.147 89.302)" fill="#fff"/>
      <path id="path11181" d="M-35.272-33.48h5.515v1.118h-3.83v3.148h3.592V-28.1h-3.592v3.424h3.936v1.121h-5.621Z" transform="translate(253.206 89.427)" fill="#fff"/>
      <path id="path11193" d="M-34.011-30.15a5.354,5.354,0,0,1,.224-1.792A2.179,2.179,0,0,1-32.3-33.219a5.542,5.542,0,0,1,1.789-.28,5.658,5.658,0,0,1,1.792.28,2.225,2.225,0,0,1,1.479,1.278,5.667,5.667,0,0,1,.232,1.792v3.329a11.226,11.226,0,0,1-.1,1.554c-.2,1.311-1.308,1.976-3.36,1.982-1.487,0-2.482-.3-2.983-.923a4.216,4.216,0,0,1-.565-2.614Zm1.683,3.318a4.765,4.765,0,0,0,.187,1.627,1.253,1.253,0,0,0,.646.593,2.394,2.394,0,0,0,.984.215,2.156,2.156,0,0,0,.886-.182,1.293,1.293,0,0,0,.875-1.138c.031-.31.048-.679.051-1.115v-3.327a3.172,3.172,0,0,0-.238-1.521,1.646,1.646,0,0,0-1.574-.7,2.3,2.3,0,0,0-.85.148,1.277,1.277,0,0,0-.92,1.155,5.776,5.776,0,0,0-.048.92Z" transform="translate(261.938 89.302)" fill="#fff"/>
      <path id="path11197" d="M-27.558-33.48v1.118h-3.687v3.139H-27.7v1.115h-3.548v4.557h-1.689v-9.93Z" transform="translate(269.399 89.427)" fill="#fff"/>
      <path id="path11209" d="M-30.073-26.75v.553a2.36,2.36,0,0,0,.1.794c.168.671.718,1.006,1.641,1.006a2.907,2.907,0,0,0,.948-.145,1.363,1.363,0,0,0,.976-1.417,1.368,1.368,0,0,0-.626-1.191,9.177,9.177,0,0,0-1.054-.573l-1.227-.556a7.454,7.454,0,0,1-1.219-.665,2.338,2.338,0,0,1-1.009-2.03A2.175,2.175,0,0,1-30.4-33.029a4.881,4.881,0,0,1,2.289-.47,3.953,3.953,0,0,1,2.572.674A2.775,2.775,0,0,1-24.92-30.7v.2H-26.6v-.238l-.033-.514c-.106-.772-.6-1.149-1.5-1.129-1.141,0-1.705.456-1.722,1.364A1.624,1.624,0,0,0-28.792-29.6c.439.232.939.458,1.493.693a10.437,10.437,0,0,1,1.361.66A2.464,2.464,0,0,1-24.719-26c-.02,1.809-1.219,2.72-3.6,2.72a4.318,4.318,0,0,1-2.362-.506,2.149,2.149,0,0,1-1.048-1.767l-.028-.8v-.4Z" transform="translate(277.522 89.303)" fill="#fff"/>
      <path id="path11213" d="M-30.722-33.48h1.683v6.628l.014.875c.059.964.626,1.451,1.683,1.456s1.649-.453,1.753-1.364c.033-.319.053-.64.059-.967V-33.48h1.688v6.734a11.8,11.8,0,0,1-.064,1.28,1.8,1.8,0,0,1-.554,1.157,3.954,3.954,0,0,1-2.829.9,3.924,3.924,0,0,1-2.851-.883,1.919,1.919,0,0,1-.542-1.174c-.025-.268-.039-.69-.039-1.28Z" transform="translate(284.713 89.427)" fill="#fff"/>
      <path id="path11217" d="M-24.729-30.736l-.009-.461c-.039-.794-.517-1.188-1.423-1.182a1.69,1.69,0,0,0-1.568.626,1.3,1.3,0,0,0-.221.609l-.014.816v3.919a2.956,2.956,0,0,0,.212,1.37,1.572,1.572,0,0,0,1.437.643A1.358,1.358,0,0,0-24.8-25.665l.067-.64v-.341h1.686v.347l-.017.621a2.357,2.357,0,0,1-.763,1.705,2.389,2.389,0,0,1-.981.509,5.5,5.5,0,0,1-1.456.182,5.833,5.833,0,0,1-1.294-.117,2.466,2.466,0,0,1-2.088-2.784v-3.956a6.809,6.809,0,0,1,.075-1.2,2.142,2.142,0,0,1,.45-1.129A3.571,3.571,0,0,1-26.225-33.5q2.918.017,3.139,1.848a7.258,7.258,0,0,1,.042.783v.386H-24.73Z" transform="translate(292.166 89.302)" fill="#fff"/>
      <path id="path11221" d="M-23.7-30.736l-.009-.461c-.042-.794-.509-1.188-1.42-1.182a1.692,1.692,0,0,0-1.571.626,1.176,1.176,0,0,0-.215.609l-.02.816v3.919a3.059,3.059,0,0,0,.207,1.37,1.592,1.592,0,0,0,1.442.643,1.353,1.353,0,0,0,1.515-1.269l.07-.64v-.341h1.686v.347l-.014.621a2.4,2.4,0,0,1-.763,1.705,2.366,2.366,0,0,1-.984.509,5.463,5.463,0,0,1-1.459.182,5.838,5.838,0,0,1-1.292-.117,2.474,2.474,0,0,1-2.094-2.784v-3.956a6.766,6.766,0,0,1,.081-1.2,2.184,2.184,0,0,1,.447-1.129,3.581,3.581,0,0,1,2.9-1.026q2.918.017,3.139,1.848a6.694,6.694,0,0,1,.042.783v.386H-23.7Z" transform="translate(299.274 89.302)" fill="#fff"/>
      <path id="path11225" d="M-27.6-33.48h5.513v1.118h-3.827v3.148h3.59V-28.1h-3.59v3.424h3.936v1.121H-27.6Z" transform="translate(306.332 89.427)" fill="#fff"/>
      <path id="path11237" d="M-25.1-26.75v.553A2.44,2.44,0,0,0-25-25.4q.252,1.006,1.638,1.006a2.9,2.9,0,0,0,.948-.145,1.37,1.37,0,0,0,.981-1.417,1.391,1.391,0,0,0-.632-1.191,9.176,9.176,0,0,0-1.054-.573l-1.224-.556a7.085,7.085,0,0,1-1.216-.665,2.333,2.333,0,0,1-1.012-2.03,2.167,2.167,0,0,1,1.138-2.055,4.877,4.877,0,0,1,2.292-.47,3.953,3.953,0,0,1,2.572.674,2.787,2.787,0,0,1,.621,2.127v.2h-1.686v-.238l-.033-.514c-.1-.772-.607-1.149-1.5-1.129-1.132,0-1.708.456-1.719,1.364A1.622,1.622,0,0,0-23.824-29.6c.442.232.942.458,1.5.693a10.558,10.558,0,0,1,1.359.66A2.466,2.466,0,0,1-19.746-26c-.02,1.809-1.216,2.72-3.606,2.72a4.3,4.3,0,0,1-2.359-.506,2.136,2.136,0,0,1-1.048-1.767l-.031-.8v-.4Z" transform="translate(311.935 89.303)" fill="#fff"/>
      <path id="path11241" d="M-24.114-26.75v.553a2.444,2.444,0,0,0,.1.794c.168.671.718,1.006,1.641,1.006a2.837,2.837,0,0,0,.942-.145,1.367,1.367,0,0,0,.984-1.417,1.386,1.386,0,0,0-.632-1.191,8.949,8.949,0,0,0-1.054-.573l-1.222-.556a7.086,7.086,0,0,1-1.216-.665,2.323,2.323,0,0,1-1.015-2.03,2.177,2.177,0,0,1,1.138-2.055,4.89,4.89,0,0,1,2.3-.47,3.925,3.925,0,0,1,2.566.674,2.774,2.774,0,0,1,.629,2.127v.2h-1.686v-.238l-.039-.514c-.1-.772-.6-1.149-1.5-1.129-1.129,0-1.705.456-1.716,1.364A1.61,1.61,0,0,0-22.83-29.6c.436.232.936.458,1.49.693a9.98,9.98,0,0,1,1.356.66A2.457,2.457,0,0,1-18.76-26c-.02,1.809-1.219,2.72-3.6,2.72a4.32,4.32,0,0,1-2.359-.506,2.139,2.139,0,0,1-1.051-1.767l-.031-.8v-.4Z" transform="translate(318.76 89.303)" fill="#fff"/>
    </g>
  </g>
</svg>
