<svg xmlns="http://www.w3.org/2000/svg" xmlns:xlink="http://www.w3.org/1999/xlink" width="498.2" height="113.706" viewBox="0 0 498.2 113.706">
  <defs>
    <linearGradient id="linear-gradient" x1="1" y1="0.825" x2="0.5" y2="0.827" gradientUnits="objectBoundingBox">
      <stop offset="0" stop-color="#fff"/>
      <stop offset="0.5" stop-color="#fff"/>
    </linearGradient>
    <linearGradient id="linear-gradient-2" y1="1" x2="1" y2="1" gradientUnits="objectBoundingBox">
      <stop offset="0" stop-color="#fff"/>
      <stop offset="0.8" stop-color="#fff"/>
    </linearGradient>
    <linearGradient id="linear-gradient-3" x1="0.737" y1="0.266" x2="0" y2="0.961" gradientUnits="objectBoundingBox">
      <stop offset="0" stop-color="#fff"/>
      <stop offset="0.4" stop-color="#fff"/>
      <stop offset="0.8" stop-color="#fff"/>
    </linearGradient>
  </defs>
  <g id="playace" transform="translate(-573 -494.975)">
    <path id="패스_418145" data-name="패스 418145" d="M717.3,559.1h9.3a22.948,22.948,0,0,0,10.1-2.2,17.882,17.882,0,0,0,10.5-17.2,17.685,17.685,0,0,0-2.2-9.4,17.161,17.161,0,0,0-6.8-7.1c-3.1-1.8-7.2-2.7-12.2-2.7H704V580h13.3V559.1Zm13.9-13.2a8.141,8.141,0,0,1-6,2.3h-8V531.5h7.9a8.058,8.058,0,0,1,6.1,2.4,8.544,8.544,0,0,1,2.3,6.1,8.066,8.066,0,0,1-2.3,5.9Z" fill="#fff"/>
    <path id="패스_418146" data-name="패스 418146" d="M836.3,531.6H821.2l-22.5,48.5H813l4.6-11.1h21.3l4.6,11.1h14.9l-22.1-48.5Zm-8,10.5,7,17.4H821.2l7.1-17.4Z" fill="#fff"/>
    <path id="패스_418147" data-name="패스 418147" d="M887.2,560.5l17.7-28.9H890.1l-9.3,16.9-9.7-16.9H855.6l17.8,29v19.5h13.8Z" fill="#fff"/>
    <path id="패스_418148" data-name="패스 418148" d="M1022.1,571.3l-9.7-8.2a34.364,34.364,0,0,1-2.7,2.7,10.215,10.215,0,0,1-3.5,2.1,15.161,15.161,0,0,1-5.1.8,13.323,13.323,0,0,1-6.4-1.7,11.935,11.935,0,0,1-4.2-4.7,15.713,15.713,0,0,1,0-13.4,11.722,11.722,0,0,1,4.3-4.8,11.86,11.86,0,0,1,6.6-1.8,10.787,10.787,0,0,1,6.2,1.6,16.342,16.342,0,0,1,4.5,4.2l9.6-8.5a23.9,23.9,0,0,0-8.6-7.2,27.263,27.263,0,0,0-12.1-2.5,24.882,24.882,0,0,0-10.5,2,23.254,23.254,0,0,0-8.1,5.5,24.6,24.6,0,0,0-5.3,8.3,28.869,28.869,0,0,0-1.9,10.2,31.523,31.523,0,0,0,3.2,13.2,24.556,24.556,0,0,0,9,9.1,26.244,26.244,0,0,0,13.3,3.3c5,0,6-.5,8.7-1.4a29.466,29.466,0,0,0,7.3-3.7,25.884,25.884,0,0,0,5.3-5.1h.1Z" fill="#fff"/>
    <path id="패스_418149" data-name="패스 418149" d="M1071.2,568.9h-25.4v-8.4h19.5V549.3h-19.5V542h23.6V530.9h-36v49.2h37.8Z" fill="#fff"/>
    <path id="패스_418150" data-name="패스 418150" d="M794.8,568.2H770.4V531.6H756.7v48.5h32.8c1.3-2.8,3.4-7.5,5.3-12h0Z" fill="#fff"/>
    <path id="패스_418151" data-name="패스 418151" d="M967,568.5a.822.822,0,0,0-.6-.4H919.6l16.1-30,11.9,20.5h14.9c.2,0,.3-.2.2-.4l-19-33.4a8.789,8.789,0,0,0-7.3-4.2,8.661,8.661,0,0,0-7.2,4l-27.1,49.7a4.236,4.236,0,0,0,0,3.8,3.6,3.6,0,0,0,3.2,2h67.6c.2,0,.3-.2.2-.4L967,568.5h0Z" fill="#fff"/>
    <path id="패스_418152" data-name="패스 418152" d="M666.6,496.7a13.106,13.106,0,0,0-13,0l-30.7,17.8a1.6,1.6,0,0,0,0,3l14.4,8.3a5.933,5.933,0,0,0,5.2,0l8.1-4.7c1.4-.8,2.6-.2,2.6,1.5v58c0,1.7-1.2,2.4-2.6,1.5l-27.3-15.7a5.933,5.933,0,0,0-5.2,0l-12.4,7.4v4.4s0,.2.1.2L654.3,607a12.929,12.929,0,0,0,18.8-11.3V507a12.786,12.786,0,0,0-6.4-10.5h0Z" fill="url(#linear-gradient)"/>
    <path id="패스_418153" data-name="패스 418153" d="M623.3,566.6a5.933,5.933,0,0,0-5.2,0L605.7,574v4.3a.494.494,0,0,0,.1.3l33.5,19.8V575.8l-16-9.2h0Z" fill="url(#linear-gradient-2)"/>
    <path id="패스_418154" data-name="패스 418154" d="M636.8,539.6l-56-32.4a5.418,5.418,0,0,0-5.1,0,5.3,5.3,0,0,0-2.7,4.6h0v96.5c.1.3.4.5.6.3l18.8-10.8a1.193,1.193,0,0,0,.5-.9V537.4c-.1-.3.1-.5.4-.3L613.8,549q.45.3,0,.6l-7.8,5a1.193,1.193,0,0,0-.5.9v22.7c0,.3.2.5.5.3l30.4-18.3a12.494,12.494,0,0,0,5.7-10.4,12.114,12.114,0,0,0-5.4-10.2h0Z" fill="url(#linear-gradient-3)"/>
  </g>
</svg>
