<svg id="PRAGMATIC_PLAY" data-name="PRAGMATIC PLAY" xmlns="http://www.w3.org/2000/svg" width="300" height="137.711" viewBox="0 0 300 137.711">
  <path id="패스_97136" data-name="패스 97136" d="M669.373,141.83c-14.906.926-8.213,20.34,8.266,19.315C693.759,160.143,685.255,140.843,669.373,141.83Z" transform="translate(-411.104 -88.176)" fill="#fff"/>
  <path id="패스_97137" data-name="패스 97137" d="M587.384,41.663a48.024,48.024,0,1,0,48.024,48.024,48.024,48.024,0,0,0-48.024-48.024Zm0,91.014A42.979,42.979,0,1,1,630.355,89.7a42.981,42.981,0,0,1-42.972,42.977ZM585.935,8.138c-11.4,8.618-9.419,21.834-9.419,21.834S569.35,11.371,560.044,0c-1.255,14.638,3.331,34.032,3.331,34.032s-5.827-12.025-20.106-12.7c11.843,6.806,16.438,19.07,17.489,22.359a47.732,47.732,0,0,1,23.418-7.086C583.243,33.545,579.923,20.639,585.935,8.138Z" transform="translate(-335.407)" fill="#fff"/>
  <path id="패스_97138" data-name="패스 97138" d="M4.182,223.141v10.051H0V207.3H8.8q4.477,0,6.731,2.129a7.681,7.681,0,0,1,2.269,5.831,7.427,7.427,0,0,1-2.31,5.778q-2.31,2.106-6.674,2.106Zm9.351-7.884A4.391,4.391,0,0,0,12.3,211.9a5.606,5.606,0,0,0-3.94-1.153H4.182v8.985H8.364Q13.53,219.73,13.534,215.257Zm21.531,17.935L28.61,222.85H25.638v10.342H21.456V207.3h9.136q4.436,0,6.731,2.163a7.486,7.486,0,0,1,2.292,5.725,7.33,7.33,0,0,1-1.705,4.988,7.97,7.97,0,0,1-4.916,2.492L39.8,233.192Zm-9.427-13.314h4.613q5.067,0,5.063-4.473a4.416,4.416,0,0,0-1.229-3.32,5.336,5.336,0,0,0-3.834-1.191H25.638Zm33.2,7.7H47.9l-1.981,5.612H41.448l9.537-25.49h4.806l9.5,25.49H60.812Zm-1.176-3.226-4.292-12.1-4.292,12.1Zm28.757-15a10.713,10.713,0,0,1,4.073,6.2h-4.4a7.026,7.026,0,0,0-2.772-3.339,8.206,8.206,0,0,0-4.564-1.248A8.38,8.38,0,0,0,74.4,212.1a7.823,7.823,0,0,0-3.006,3.226,10.554,10.554,0,0,0-1.063,4.931,10.966,10.966,0,0,0,1.1,5.1,7.642,7.642,0,0,0,3.1,3.244,9.363,9.363,0,0,0,4.64,1.134,8.175,8.175,0,0,0,5.532-2.027,8.488,8.488,0,0,0,2.787-5.483H77.98v-3.082H91v4a12.384,12.384,0,0,1-2.034,5.192,11.628,11.628,0,0,1-4.216,3.725,12.622,12.622,0,0,1-6,1.392,13.012,13.012,0,0,1-6.678-1.686,11.515,11.515,0,0,1-4.473-4.678,15.625,15.625,0,0,1,0-13.681,11.469,11.469,0,0,1,4.454-4.659,13.054,13.054,0,0,1,6.659-1.668,12.616,12.616,0,0,1,7.7,2.273Zm34.112-1.649v25.49h-4.22V214.085l-7.37,19.107H105.27l-7.412-19.107v19.107H93.68V207.7H98.74l8.436,20.355,8.289-20.355Zm20.465,19.879H130.08l-1.981,5.612H123.61l9.537-25.49h4.8l9.5,25.49h-4.477Zm-1.172-3.226-4.292-12.1-4.292,12.1ZM165.349,207.3v3.373h-7.226v22.522H153.9V210.67h-7.185V207.3Zm6.417,0v25.895h-4.178V207.3Zm23.66,2.163a11.836,11.836,0,0,1,4.254,6.568h-4.439a7.869,7.869,0,0,0-2.915-3.725,8.44,8.44,0,0,0-4.9-1.376,7.627,7.627,0,0,0-4.125,1.134,7.869,7.869,0,0,0-2.863,3.244,12.1,12.1,0,0,0,0,9.832,7.858,7.858,0,0,0,2.863,3.248,7.623,7.623,0,0,0,4.125,1.134,8.44,8.44,0,0,0,4.9-1.373,7.9,7.9,0,0,0,2.915-3.687h4.439a11.722,11.722,0,0,1-4.254,6.546,12.687,12.687,0,0,1-7.922,2.4,12.528,12.528,0,0,1-6.493-1.671,11.284,11.284,0,0,1-4.364-4.659,15.935,15.935,0,0,1,0-13.681,11.423,11.423,0,0,1,4.364-4.678,12.429,12.429,0,0,1,6.493-1.686,12.659,12.659,0,0,1,7.922,2.424Zm23.982,13.681v10.051h-4.178V207.3h8.8q4.47,0,6.731,2.129a7.645,7.645,0,0,1,2.269,5.831,7.427,7.427,0,0,1-2.31,5.778q-2.31,2.106-6.674,2.106Zm9.367-7.884a4.391,4.391,0,0,0-1.229-3.358,5.613,5.613,0,0,0-3.944-1.153h-4.194v8.985h4.182Q228.774,219.73,228.774,215.257ZM240.2,229.929h8.951v3.263H236.023V207.3H240.2Zm28.1-2.348H257.372l-1.981,5.612h-4.477l9.54-25.49h4.8l9.5,25.49h-4.477Zm-1.172-3.226-4.292-12.1-4.292,12.1ZM291.545,207.3l-8.618,16.468v9.427h-4.209v-9.427L270.063,207.3h4.844l5.944,11.995,5.941-11.995Z" transform="translate(0 -128.746)" fill="#fff"/>
</svg>
