<svg xmlns="http://www.w3.org/2000/svg" width="300" height="73.891" viewBox="0 0 300 73.891">
  <g id="sbobet" transform="translate(-0.004 0.002)">
    <path id="Path_1" data-name="Path 1" d="M204.008,526.027a11.366,11.366,0,0,1-11.162.282l9.1-10.849a5.083,5.083,0,0,0-3.891-8.351h-6.931a6.836,6.836,0,0,0-5.246,2.447l-5.525,6.583-5.445-4.567a20.768,20.768,0,0,0-19.387-3.986,3.54,3.54,0,0,0-2.507,3.385v5.287a1.763,1.763,0,0,0,2.675,1.513,11.369,11.369,0,0,1,13.132,1.053l.73.615-14.168,16.882a3.534,3.534,0,0,0,.435,4.978l8.92,7.478-14.08,16.78a1.768,1.768,0,0,0,1.355,2.9h4.236l-3.161,3.774a5.083,5.083,0,0,0,3.891,8.351H163.9a6.829,6.829,0,0,0,5.248-2.446l22.536-26.858a6.853,6.853,0,0,0-.844-9.645l-6.364-5.35,2.22-2.643a20.648,20.648,0,0,0,11.456,3.458q.922,0,1.853-.08a20.682,20.682,0,0,0,4.178-.812,3.538,3.538,0,0,0,2.507-3.385v-5.287a1.763,1.763,0,0,0-2.675-1.513m-15.306,18.149a3.529,3.529,0,0,1,.435,4.971L166.6,576.014a3.531,3.531,0,0,1-2.7,1.262h-6.943a1.765,1.765,0,0,1-1.352-2.9l22.451-26.75-11.61-9.745,21.965-26.174a3.524,3.524,0,0,1,2.7-1.26h6.943a1.763,1.763,0,0,1,1.352,2.9l-19.608,23.37Z" transform="translate(-150.236 -506.697)" fill="#fff"/>
    <path id="Path_2" data-name="Path 2" d="M204.2,525.468a2.318,2.318,0,0,1-2.279-1.766,5.8,5.8,0,0,0-5.54-4.849,5.391,5.391,0,0,0-5.732,5.07c0,8.45,21.4,7.937,21.4,24.844a14.793,14.793,0,0,1-15.15,14.394h-1.177a14.859,14.859,0,0,1-15.216-14.409v-.586a1.765,1.765,0,0,1,1.766-1.766h5.8a1.765,1.765,0,0,1,1.766,1.766v.586a6.016,6.016,0,0,0,6.026,5.807h.81a5.781,5.781,0,0,0,5.956-5.292c0-10.586-21.318-8.526-21.318-24.7a15.041,15.041,0,0,1,29.963-1.046,1.758,1.758,0,0,1-1.758,1.926Z" transform="translate(-105.154 -501.422)" fill="#fff"/>
    <path id="Path_3" data-name="Path 3" d="M223.956,522.64v4.377a13.219,13.219,0,0,1-3.4,8.239,12.889,12.889,0,0,1,3.93,9v5.669c0,7.937-6.955,13.232-14.516,13.232H197.422a2.351,2.351,0,0,1-2.349-2.354V512.592a2.352,2.352,0,0,1,2.349-2.352h12.77c8.025,0,13.759,5.445,13.759,12.4M204.74,519.09v11.948h5.52a4,4,0,0,0,4.234-3.706v-4.543a4,4,0,0,0-4.234-3.7Zm0,35.233h5.233a4.579,4.579,0,0,0,4.762-4.377v-5.593a4.757,4.757,0,0,0-4.762-4.46h-5.219Z" transform="translate(-83.462 -501.418)" fill="#fff"/>
    <path id="Path_3-2" data-name="Path 3" d="M223.956,522.64v4.377a13.219,13.219,0,0,1-3.4,8.239,12.889,12.889,0,0,1,3.93,9v5.669c0,7.937-6.955,13.232-14.516,13.232H197.422a2.351,2.351,0,0,1-2.349-2.354V512.592a2.352,2.352,0,0,1,2.349-2.352h12.77c8.025,0,13.759,5.445,13.759,12.4M204.74,519.09v11.948h5.52a4,4,0,0,0,4.234-3.706v-4.543a4,4,0,0,0-4.234-3.7Zm0,35.233h5.233a4.579,4.579,0,0,0,4.762-4.377v-5.593a4.757,4.757,0,0,0-4.762-4.46h-5.219Z" transform="translate(7.719 -501.418)" fill="#fff"/>
    <path id="Path_4" data-name="Path 4" d="M235.25,563.163A26.463,26.463,0,1,1,261.714,536.7a26.463,26.463,0,0,1-26.463,26.463m0-43.2A16.741,16.741,0,1,0,251.991,536.7a16.741,16.741,0,0,0-16.741-16.741" transform="translate(-63.035 -501.423)" fill="#fff"/>
    <path id="Path_5" data-name="Path 5" d="M232.407,510.241h26.519a2.352,2.352,0,0,1,2.352,2.352v4.134a2.352,2.352,0,0,1-2.352,2.352h-8.458V560.8a2.352,2.352,0,0,1-2.352,2.352h-4.971a2.352,2.352,0,0,1-2.352-2.352V519.088H232.41a2.352,2.352,0,0,1-2.352-2.352V512.6a2.352,2.352,0,0,1,2.352-2.352" transform="translate(38.726 -501.416)" fill="#fff"/>
    <path id="패스_203598" data-name="패스 203598" d="M11312.376,13791.029h-.019a2.355,2.355,0,0,1-2.354-2.354v-48.236a2.353,2.353,0,0,1,2.354-2.35c.307-.045,4.706-.045,5.016,0a2.353,2.353,0,0,1,2.352,2.35v48.236a2.353,2.353,0,0,1-2.352,2.354Z" transform="translate(-11073.692 -13729.263)" fill="#fff"/>
    <path id="패스_203599" data-name="패스 203599" d="M2.372,27.172H2.353A2.353,2.353,0,0,1,0,24.82c0-12.4,0-7.6,0-22.437A2.351,2.351,0,0,1,2.353.034c.308-.045,4.706-.046,5.016,0A2.353,2.353,0,0,1,9.721,2.382V24.82a2.353,2.353,0,0,1-2.353,2.353Z" transform="translate(236.866 18.549) rotate(-90)" fill="#fff"/>
    <path id="패스_203600" data-name="패스 203600" d="M2.372,27.172H2.353A2.353,2.353,0,0,1,0,24.82c0-12.4,0-7.6,0-22.437A2.351,2.351,0,0,1,2.353.034c.308-.045,4.706-.046,5.016,0A2.353,2.353,0,0,1,9.721,2.382V24.82a2.353,2.353,0,0,1-2.353,2.353Z" transform="translate(236.866 39.537) rotate(-90)" fill="#fff"/>
    <path id="패스_203601" data-name="패스 203601" d="M2.372,27.172H2.353A2.353,2.353,0,0,1,0,24.82c0-12.4,0-7.6,0-22.437A2.351,2.351,0,0,1,2.353.034c.308-.045,4.706-.046,5.016,0A2.353,2.353,0,0,1,9.721,2.382V24.82a2.353,2.353,0,0,1-2.353,2.353Z" transform="translate(236.866 61.727) rotate(-90)" fill="#fff"/>
  </g>
</svg>
