<svg xmlns="http://www.w3.org/2000/svg" width="300" height="65.826" viewBox="0 0 300 65.826">
  <g id="logo_SKYWIND" transform="translate(0.02)">
    <g id="그룹_87267" data-name="그룹 87267" transform="translate(-0.02)">
      <path id="패스_117234" data-name="패스 117234" d="M12.1,12.734c15.5-4.47,27.713,6.854,28.607,24.435,2.384-15.793-3.576-27.713-10.43-33.375C27,3.5,23.126,3.2,19.848,2.9c-1.788,2.086-5.96,7.748-7.748,9.834" transform="translate(24.016 5.742)" fill="#fff"/>
      <path id="패스_117235" data-name="패스 117235" d="M48.586,21.315C41.434,7.31,28.621,13.567,21.767,18.037,7.463,27.573.014,6.714,17,1.35,27.131-1.928,45.01,7.012,48.586,21.315" transform="translate(14.349 1.333)" fill="#fff"/>
      <path id="패스_117236" data-name="패스 117236" d="M37.861,14.3C34.285,29.8,18.491,34.861,2.4,27.114c12.814,9.536,26.223,10.43,34.865,7.152,1.788-2.682,3.874-5.96,5.662-8.642-1.192-2.384-4.172-8.642-5.066-11.324" transform="translate(4.811 28.283)" fill="#fff"/>
      <path id="패스_117237" data-name="패스 117237" d="M8.7,43.007c16.091.6,16.687-13.707,16.091-21.455C23.3,4.566,45.353,8.142,41.777,25.425,39.691,35.855,23,46.881,8.7,43.007" transform="translate(17.284 20.733)" fill="#fff"/>
      <path id="패스_117238" data-name="패스 117238" d="M17.185,36.653C5.564,25.329,9.736,9.238,24.933,0,10.034,5.662,1.988,16.389.2,25.329c1.192,2.98,2.98,6.258,4.47,9.238,2.682.6,9.834,1.49,12.516,2.086" transform="translate(0.455)" fill="#fff"/>
      <path id="패스_117239" data-name="패스 117239" d="M8.383,3.8c-8.94,12.814,2.98,21.157,9.834,24.733,15.2,7.748.6,24.435-12.516,12.218C-2.047,33.6-2.643,13.932,8.383,3.8" transform="translate(0.02 7.51)" fill="#fff"/>
    </g>
    <g id="그룹_60308" data-name="그룹 60308" transform="translate(73.211 1.788)">
      <path id="패스_117240" data-name="패스 117240" d="M120.552,17.084h9.238c2.086,0,3.278.3,3.576,1.192.6.894.6,1.788.6,3.278,0,2.086-.6,3.278-1.49,3.576a19.445,19.445,0,0,1-5.066.6h-7.152Zm0,19.071V27.811h8.94a12.223,12.223,0,0,0,3.278-.3,8.924,8.924,0,0,0,2.98-1.192,2.975,2.975,0,0,0,1.192-1.49c.3-.6.3-1.192.6-1.788v-2.98a7.013,7.013,0,0,0-.6-2.384,3.052,3.052,0,0,0-1.49-1.788L133.664,15a3.779,3.779,0,0,0-1.788-.3H117.87V35.857ZM112.209,29.9c0,1.788-.6,3.278-1.49,3.576a9.635,9.635,0,0,1-4.768.894h-2.98c-2.086,0-3.874-.3-4.47-.894-.894-.6-1.192-1.788-1.192-3.576V15h-2.98V29.9c0,2.98.894,4.768,2.682,5.662a26.237,26.237,0,0,0,7.748.894h2.98c2.98,0,5.066-.6,5.96-1.49a7,7,0,0,0,1.49-4.768V15.3h-2.98ZM74.364,22.15c0-2.384.6-3.874,1.192-4.172.894-.6,2.384-.894,4.768-.894h.894a24.094,24.094,0,0,1,5.96.6q1.788.894,1.788,4.47V29.3c0,2.682-.6,4.172-2.086,4.47q-1.788.894-6.258.894c-2.682,0-4.47-.3-5.066-.894A6.283,6.283,0,0,1,74.364,29.6V22.15Zm-2.98,5.96V30.2c.3,2.682,1.192,4.47,2.682,5.066,1.49.894,3.874,1.192,6.854,1.192h2.086c3.278,0,5.662-.6,6.854-1.49s1.788-2.98,2.086-5.364V21.852c0-3.278-.894-5.364-2.682-5.96A25.44,25.44,0,0,0,81.218,14.7H80.026c-4.172,0-6.854.894-7.45,2.682a22.228,22.228,0,0,0-1.192,7.152v3.576ZM51.717,17.084h9.536c2.086,0,3.576.3,3.874,1.192.6.894.6,1.788.6,3.576a3.845,3.845,0,0,1-1.49,3.278,8.375,8.375,0,0,1-4.47.894H51.121Zm0,19.071V27.514h8.94a6.762,6.762,0,0,1,3.874.894c.894.6,1.192,1.49,1.192,2.98v4.768H68.7V30.791a5.034,5.034,0,0,0-.894-2.98A4.765,4.765,0,0,0,64.53,26.62c2.384-.3,3.576-.894,4.172-2.086a6.987,6.987,0,0,0,.6-3.576c0-2.384-.6-3.874-1.788-4.768a10.249,10.249,0,0,0-5.96-1.49H49.035V35.857ZM35.03,27.811h8.642V29.6c0,2.086-.3,3.278-1.192,3.874s-2.384.894-5.066.894H31.156c-1.788-.3-2.98-.894-3.278-2.086a14.957,14.957,0,0,1-.6-3.576V23.044c0-2.384.6-4.172,1.192-4.768s2.384-.894,5.364-.894H39.2c1.788,0,2.98.6,3.278,1.192a7.477,7.477,0,0,1,.6,2.98h2.98V20.66a5.148,5.148,0,0,0-1.49-3.874c-.894-.894-2.384-1.49-4.768-1.49h-5.96q-5.364,0-7.152,1.788a8.411,8.411,0,0,0-2.086,5.96V29c0,3.278.894,5.364,2.384,6.258s4.47,1.49,8.642,1.49h2.682a8.25,8.25,0,0,0,2.682-.3c2.384-.3,3.874-.894,4.47-2.384a9.951,9.951,0,0,0,.894-4.47V25.726H35.03Z" transform="translate(-24.6 27.287)" fill="#fff"/>
      <path id="패스_117241" data-name="패스 117241" d="M224.75,3.878h12.814a16.741,16.741,0,0,1,5.96.894,5.093,5.093,0,0,1,2.98,4.172,14.51,14.51,0,0,1,.3,3.576v8.046a10.586,10.586,0,0,1-.6,2.98,17.09,17.09,0,0,1-1.192,2.086,3.679,3.679,0,0,1-2.384,1.192c-.894.3-1.788.3-2.98.6h-14.9ZM238.756,30.1c5.662,0,9.238-1.49,10.43-4.172a25.175,25.175,0,0,0,1.788-9.834v-2.98c0-4.172-.894-7.152-2.682-9.238S242.928.6,237.564.6H220.578V30.1ZM213.129.9V27.717L192.568.9h-6.556V30.4h3.874V3.58L210.447,30.1H217V.9ZM178.264,30.1h4.172V.9h-4.172ZM171.112.9l-10.43,26.819L150.849.9h-5.96l-9.834,26.819L124.924.9h-4.172l11.324,29.5h6.258l9.834-26.521L157.7,30.4h6.258L175.582.9h-4.47ZM113.9.9,102.873,14.605,91.847.9H87.08l13.409,16.985V30.1h4.172V17.883L118.666.9ZM55.493.9V30.4h4.172V16.691h3.576L79.928,30.4H85.59L66.816,15.2,83.5.9H78.14l-14.9,12.814H59.665V.9ZM51.619,8.646c0-3.874-1.192-5.96-3.874-6.854A39.332,39.332,0,0,0,38.209.6h-.894a36.671,36.671,0,0,0-9.238,1.192c-2.384.6-3.278,2.98-3.278,6.556,0,3.874,1.49,6.258,4.172,6.854A35.031,35.031,0,0,0,39.1,16.393h3.576a8.421,8.421,0,0,1,4.768,1.192,5.353,5.353,0,0,1,1.192,3.874c0,2.384-.6,4.172-1.788,4.47q-1.788.894-6.258.894H37.018c-3.278,0-5.662-.3-6.556-1.192s-1.49-2.682-1.49-5.364H25.1v1.192c0,3.576,1.192,5.96,3.874,6.854A28.6,28.6,0,0,0,38.507,29.5h7.152q4.917-.447,6.258-2.682a22.2,22.2,0,0,0,.6-5.364c0-3.874-1.192-6.258-3.874-6.854a42.2,42.2,0,0,0-9.238-.894H34.634c-2.384,0-3.874-.6-4.47-1.49a6.355,6.355,0,0,1-.894-3.576V7.454c0-.6.3-.894.6-1.49a2.327,2.327,0,0,1,1.192-1.192c.6-.3,1.192-.3,1.788-.6.6,0,1.49-.3,2.086-.3H40.3c2.98,0,4.768.3,5.662,1.192.894.6,1.49,2.086,1.49,4.47h4.172Z" transform="translate(-24.204 -0.6)" fill="#fff"/>
    </g>
  </g>
</svg>
