<svg id="betsoft" xmlns="http://www.w3.org/2000/svg" width="309.623" height="100" viewBox="0 0 309.623 100">
  <path id="패스_97558" data-name="패스 97558" d="M9.067,42.7,28.431,61.287,9.067,79.938Z" transform="translate(-9.067 -11.296)" fill="#fff"/>
  <path id="패스_97547" data-name="패스 97547" d="M35.31,109.376V60.994H65.175a12.06,12.06,0,0,1,2.077,3.119A17.566,17.566,0,0,1,68.4,68.3V94.051S67.918,100.19,64,104.356a16.943,16.943,0,0,1-7.771,5.02Zm11.35-44.3V98.023h5.5A9.21,9.21,0,0,0,55.473,96.6,5.328,5.328,0,0,0,57.1,94.051V71a10.405,10.405,0,0,0-1.629-4.324,5.129,5.129,0,0,0-3.308-1.6Z" transform="translate(-6.318 -9.38)" fill="#fff"/>
  <path id="패스_97548" data-name="패스 97548" d="M53.056,14.274s4.023-.048,8.9,4.472,4.794,8.218,4.794,8.218V54.6s.431,6.922-2.487,8.057H35.306V14.274ZM46.62,58.565h5.215a6.707,6.707,0,0,0,2.674-1.331A8.206,8.206,0,0,0,56.291,54.6V29.646a8.5,8.5,0,0,0-1.782-2.682,6.9,6.9,0,0,0-2.674-1.4H46.62Z" transform="translate(-6.319 -14.274)" fill="#fff"/>
  <path id="패스_97551" data-name="패스 97551" d="M71.817,109.362V61h29v4.035H83.094V98.018h17.724v11.344Z" transform="translate(-2.494 -9.38)" fill="#fff"/>
  <path id="패스_97555" data-name="패스 97555" d="M100.805,14.288V25.552H83.194V58.559h17.611v4.067h-29V14.288Z" transform="translate(-2.495 -14.272)" fill="#fff"/>
  <path id="패스_97556" data-name="패스 97556" d="M136.188,14.276l.071,11.289h-9.773l.017,37.1H115.216v-37.1H103.926V14.276Z" transform="translate(0.869 -14.273)" fill="#fff"/>
  <path id="패스_97557" data-name="패스 97557" d="M114.145,109.38V61h11.289V109.38Z" transform="translate(1.94 -9.38)" fill="#fff"/>
  <path id="패스_97554" data-name="패스 97554" d="M150.177,61.833s-3.306-.551-6.928-5a15.685,15.685,0,0,1-3.582-9.171V38.37h11.216v9.293A4.885,4.885,0,0,0,155.8,51.4a4.776,4.776,0,0,0,4.849-3.736V30.208a17.649,17.649,0,0,0-3.262-7.926c-2.8-3.654-8.034-6.659-8.034-6.659V14.277H167.06a21.8,21.8,0,0,1,4.017,7.147,27.666,27.666,0,0,1,.833,8.784V47.663s-.25,5.755-3.25,9.171a20.246,20.246,0,0,1-7.332,5,22.01,22.01,0,0,1-5.53.823A23.2,23.2,0,0,1,150.177,61.833Z" transform="translate(4.613 37.335)" fill="#fff"/>
  <path id="패스_97552" data-name="패스 97552" d="M161.457,15.1s3.306.551,6.928,5a15.685,15.685,0,0,1,3.582,9.171v9.293H160.751V29.27a4.885,4.885,0,0,0-4.916-3.736,4.776,4.776,0,0,0-4.849,3.736V46.726a17.65,17.65,0,0,0,3.262,7.926c2.8,3.654,8.034,6.663,8.034,6.663v1.342H144.574a21.8,21.8,0,0,1-4.017-7.147,27.666,27.666,0,0,1-.833-8.784V29.27s.25-5.755,3.25-9.171a20.246,20.246,0,0,1,7.332-5,22.01,22.01,0,0,1,5.53-.823A23.2,23.2,0,0,1,161.457,15.1Z" transform="translate(4.613 -14.273)" fill="#fff"/>
  <path id="패스_97549" data-name="패스 97549" d="M161.451,15.1s3.306.551,6.928,5a15.685,15.685,0,0,1,3.582,9.171V62.657H160.746V29.27a4.885,4.885,0,0,0-4.916-3.736,4.776,4.776,0,0,0-4.849,3.736V62.657H139.718V29.27s.25-5.755,3.25-9.171a20.246,20.246,0,0,1,7.332-5,22.01,22.01,0,0,1,5.53-.823A23.2,23.2,0,0,1,161.451,15.1Z" transform="translate(43.284 -14.273)" fill="#fff"/>
  <path id="패스_97550" data-name="패스 97550" d="M161.451,61.833s3.306-.551,6.928-5a15.685,15.685,0,0,0,3.582-9.171V14.277H160.746V47.663A4.885,4.885,0,0,1,155.83,51.4a4.776,4.776,0,0,1-4.849-3.736V14.277H139.718V47.663s.25,5.755,3.25,9.171a20.246,20.246,0,0,0,7.332,5,22.009,22.009,0,0,0,5.53.823A23.2,23.2,0,0,0,161.451,61.833Z" transform="translate(43.284 37.335)" fill="#fff"/>
  <path id="패스_97559" data-name="패스 97559" d="M71.817,109.362V61h29v4.035H83.094v44.331Z" transform="translate(150.722 -9.38)" fill="#fff"/>
  <path id="패스_97560" data-name="패스 97560" d="M100.805,14.288V25.552H83.194V58.559h17.611v4.067h-29V14.288Z" transform="translate(150.721 -14.272)" fill="#fff"/>
  <path id="패스_97561" data-name="패스 97561" d="M136.188,14.276l.071,11.289h-9.773l.017,37.1H115.216v-37.1H103.926V14.276Z" transform="translate(150.828 -14.273)" fill="#fff"/>
  <path id="패스_97562" data-name="패스 97562" d="M114.145,109.38V61h11.289V109.38Z" transform="translate(151.899 -9.38)" fill="#fff"/>
  <path id="패스_97563" data-name="패스 97563" d="M28.169,42.745,8.8,61.287,28.169,79.982Z" transform="translate(281.454 -11.291)" fill="#fff"/>
</svg>
