<svg xmlns="http://www.w3.org/2000/svg" xmlns:xlink="http://www.w3.org/1999/xlink" width="301.053" height="86.083" viewBox="0 0 301.053 86.083">
  <defs>
    <linearGradient id="linear-gradient" x1="-0.324" y1="-0.289" x2="0.772" y2="1.384" gradientUnits="objectBoundingBox">
      <stop offset="0" stop-color="#fff"/>
      <stop offset="0.206" stop-color="#fff"/>
      <stop offset="0.326" stop-color="#fff"/>
      <stop offset="0.496" stop-color="#fff"/>
      <stop offset="0.622" stop-color="#fff"/>
      <stop offset="0.764" stop-color="#fff"/>
      <stop offset="1" stop-color="#fff"/>
    </linearGradient>
  </defs>
  <g id="dowinn" transform="translate(-19.792 0.5)">
    <path id="합치기_403" data-name="합치기 403" d="M31.8,81.4a15.261,15.261,0,0,1-2.215-1.97c-3.81-3.4-8.045-9.136-9.547-7.529l-2.817,2.776-1.069-.825-.127-2.316,1.292,1.06.718-1.1-.641-3.611-1.506-.127-.6,2.014L14,67.623,14.608,65l1.733-.71,2.628,1.894a41.383,41.383,0,0,0,7.567,8.151A27.283,27.283,0,0,0,46.656,79.18c8.332,1.618,11.891,3.107,18.523.98A39.508,39.508,0,0,1,46.6,85.084,29.307,29.307,0,0,1,31.8,81.4Zm16.851-7.09c-.429-.25-.855-.5-1.266-.781a34.223,34.223,0,0,0,37.2-15.216,24.407,24.407,0,0,1-35.934,16ZM41,77.353c-4.02,0-13.86-1.213-19.393-12.364-5.128-10.332-.629-24.3,9.2-30.613.659-.424,3.591-2.088,4.325-2.575,1.62-1.072,3.177-4.707,3.177-4.707s-.433,2.869-.877,5.213a5.858,5.858,0,0,1-1.534,2.835C29.626,40.123,24.5,46.552,24.5,55.117A22.484,22.484,0,0,0,42.977,77.234c.018.015-.036.025-.193.025A14.057,14.057,0,0,1,41,77.353ZM27.535,61.038a22.341,22.341,0,0,1-.98-7.386c1.22.356,35.05,9.037,49.469-11.947-3.494,9.882-9.152,14.98-20.058,18.615,3.081,3.3,7.641,5.671,14.323,4.857,0,0-10.033,5.622-22.924-.306,1.4,3.116,7.574,6.568,12.973,6.5.005,0-.33.048-.945.1C56.162,71.733,45.2,72,35.808,65c0,0,.185,5.612,9.795,10.443C45.6,75.444,31.762,74.21,27.535,61.038Zm188.327,7.578a3.819,3.819,0,0,1-1.678-1.988,8.648,8.648,0,0,1-.457-2.976V54.484a.834.834,0,0,0-.167-.561,1.215,1.215,0,0,0-.6-.31v-.386h5.107v.386a1.117,1.117,0,0,0-.6.3.841.841,0,0,0-.172.566v8.164a10.144,10.144,0,0,0,.159,2.092,2.375,2.375,0,0,0,.588,1.132q1.149,1.222,3.929,1.221,2.8,0,3.946-1.221a2.469,2.469,0,0,0,.574-1.132,10.309,10.309,0,0,0,.155-2.092V54.484a.82.82,0,0,0-.168-.561,1.172,1.172,0,0,0-.6-.31v-.386H230.7v.386a1.184,1.184,0,0,0-.6.31.806.806,0,0,0-.167.561v9.169a6.556,6.556,0,0,1-.959,3.9q-1.731,2.324-7.133,2.325A11.614,11.614,0,0,1,215.861,68.617Zm-21.313-1.054a8.069,8.069,0,0,1-2.037-2.959,8.516,8.516,0,0,1-.613-3.2,8.368,8.368,0,0,1,1.259-4.492q2.408-3.9,8.12-3.97a9.618,9.618,0,0,1,6.791,2.314,8.507,8.507,0,0,1,1.38,10.643q-2.488,3.981-8.147,3.981A9.561,9.561,0,0,1,194.548,67.562ZM197.39,57.11a5.92,5.92,0,0,0,0,8.6,6.225,6.225,0,0,0,7.837,0,5.45,5.45,0,0,0,1.415-2.022,5.839,5.839,0,0,0,.429-2.2,5.477,5.477,0,0,0-1.845-4.372,5.873,5.873,0,0,0-3.938-1.389A5.647,5.647,0,0,0,197.39,57.11ZM154.45,67.993A7.784,7.784,0,0,1,151.3,61.4a7.7,7.7,0,0,1,2.807-6.255,10.714,10.714,0,0,1,7.071-2.207,12.943,12.943,0,0,1,2.643.26,18.279,18.279,0,0,1,2.822.868,3.77,3.77,0,0,0,1.164.321.99.99,0,0,0,.588-.273l.335.178L166.8,58.212l-.346-.176a1.286,1.286,0,0,0-.109-.567,1.519,1.519,0,0,0-.431-.423,6.413,6.413,0,0,0-2.147-.937,10.022,10.022,0,0,0-2.669-.388,6.342,6.342,0,0,0-4.254,1.436,5.39,5.39,0,0,0-1.9,4.3,5.226,5.226,0,0,0,1.86,4.176,6.633,6.633,0,0,0,4.484,1.46,11.526,11.526,0,0,0,2.673-.31,8.693,8.693,0,0,0,2.275-.849V63.7h-4.039a.818.818,0,0,0-.557.168,1.235,1.235,0,0,0-.3.6h-.384V60.66h.384a1.231,1.231,0,0,0,.3.6.837.837,0,0,0,.559.161h7.756v.384a1.264,1.264,0,0,0-.6.31.823.823,0,0,0-.171.565v3.356a.83.83,0,0,0,.165.563,1.2,1.2,0,0,0,.6.31v.3a18.171,18.171,0,0,1-9.032,2.661A10.485,10.485,0,0,1,154.45,67.993Zm78.863,1.6V69.2a1.248,1.248,0,0,0,.6-.31.807.807,0,0,0,.167-.551V54.484a.813.813,0,0,0-.167-.561,1.2,1.2,0,0,0-.6-.31v-.386h10.212a13.241,13.241,0,0,1,2.836.241,4.935,4.935,0,0,1,1.852.825,4.173,4.173,0,0,1,1.295,1.605,5.262,5.262,0,0,1,.465,2.185,4.861,4.861,0,0,1-.886,2.9,4.13,4.13,0,0,1-2.029,1.516,10.958,10.958,0,0,1-3.532.453h-5.873v5.393a.82.82,0,0,0,.174.557,1.17,1.17,0,0,0,.592.3v.386Zm4.339-9.341h5.455A5.346,5.346,0,0,0,245.4,59.9a1.663,1.663,0,0,0,.674-.726,2.416,2.416,0,0,0,0-2.18,1.678,1.678,0,0,0-.674-.726,5.347,5.347,0,0,0-2.292-.347h-5.455ZM184.717,69.59V69.2c.408-.064.61-.208.61-.431a3.025,3.025,0,0,0-.562-1.043l-3.313-4.819h-4.368v5.431a.826.826,0,0,0,.171.557,1.191,1.191,0,0,0,.6.3v.386h-5.107V69.2a1.248,1.248,0,0,0,.6-.31.829.829,0,0,0,.168-.551V54.484a.834.834,0,0,0-.168-.561,1.2,1.2,0,0,0-.6-.31v-.386h10.237a15.936,15.936,0,0,1,2.963.215,5.243,5.243,0,0,1,1.916.756,3.8,3.8,0,0,1,1.413,1.689,5.48,5.48,0,0,1,.444,2.2q0,4.01-4.447,4.69l3.177,4.519a9.858,9.858,0,0,0,1.231,1.526,1.533,1.533,0,0,0,.949.377v.386Zm-7.633-9.374H182.6a13.977,13.977,0,0,0,1.724-.072,2.816,2.816,0,0,0,.923-.3,2.179,2.179,0,0,0,0-3.547,2.565,2.565,0,0,0-.916-.306,15.4,15.4,0,0,0-1.731-.067h-5.515ZM11.277,67.91l.491-2.262,1.184-.777.993.994-.394,1.6L14.6,69.452Zm1.88-7.455c-.875-.807-4.413-3.322-5.8-1.76l-1.526,1.73-.99-.663L4.6,57.739l1.188.851.57-1.005-.774-3.14-1.332-.021-.416,1.809-1.247-1.81.376-2.352,1.484-.722,2.423,1.519c1.389,1.213,5.836,5.587,7.871,6.49A13.906,13.906,0,0,0,16.5,62.69,26.878,26.878,0,0,1,13.158,60.455Zm52.761,1.556a20.929,20.929,0,0,1-4.6-.514c-.417-.093-.834-.2-1.235-.321A29.339,29.339,0,0,0,86.768,39.369,20.953,20.953,0,0,1,65.92,62.011Zm-49.8-9.8c-.351-3.762-.509-5.9,1.158-11.826.886-3.142,2.409-5.632,4.947-9.031,1.786-2.385,8.76-7.871,9.472-9.114.03-.062.242-.372.291-.466a4.24,4.24,0,0,0-.156-4.075,2.564,2.564,0,0,0-.29-.407c-1.843-.343-4.111,1.772-4.685,3.092-.265.618.306,1.845.306,1.845a4.872,4.872,0,0,1-1.422-1.589,3.315,3.315,0,0,1,.014-2.284c.6-2.232,3.7-4.947,5.017-5.7.025-.014.051-.031.089-.049a4.949,4.949,0,0,1,1.752-.555c.613-1.675,3.237-1.92,5.9-2.128,1.3-.372,3.483-.513,5.06-2.312C48,2.572,40.921,3.626,40.921,3.626a10.857,10.857,0,0,1,3.153-.609c4.456.008,1.638,5.7.005,8.05v0c-.789-.228-.775.9-1.3,1.309A5.42,5.42,0,0,0,46.006,10.1a10.211,10.211,0,0,0,1.482-6.408c1.361,2.959.383,6.132-.293,7.712a5.731,5.731,0,0,1-.483,1h0a5.272,5.272,0,0,1-1.019,1.2.617.617,0,0,0-.079-.023.436.436,0,0,0-.283,0c-.477.2-.472.654-.863.92a5.449,5.449,0,0,0,2.424-1.355c.484-.491,2.323-2.708,2.137-7.319,0,0,1.361,5.922-2.739,9.9v-.015a8.427,8.427,0,0,1-1.951,1.352,10.589,10.589,0,0,1-2.1.8,14.757,14.757,0,0,1-.86,2.724,12.2,12.2,0,0,1-2.452,2.911s-2.037,3.77-2.911,5.055a6.309,6.309,0,0,1-2.195,2.357A24.49,24.49,0,0,0,23.94,38.9,29.945,29.945,0,0,0,19.284,47.9a28.533,28.533,0,0,0-.808,12.668A29.99,29.99,0,0,1,16.123,52.208ZM34.268,15.14c.174.012.343.019.5.019A5.557,5.557,0,0,0,38.4,13.915a3.484,3.484,0,0,1,.923-1.34C34.974,13.215,34.268,15.14,34.268,15.14ZM0,54.986l.3-2.009.993-.755.928.819L1.969,54.46l1.042,1.687ZM2.966,36.217C5.094,43.932,9.9,42.828,9.9,42.828-.5,33.082,8.634,20.533,8.634,20.533,6.7,32.644,17.89,34.446,17.89,34.446c-5.522,8.705-3.808,18.566-3.808,18.566C-.643,50.72,2.966,36.217,2.966,36.217ZM45.043,52.86a73.8,73.8,0,0,1-17.4-2.174,29.4,29.4,0,0,1,8.017-6.264,47.605,47.605,0,0,1,16.3-5.427S43.527,42.106,38,46.969c0,0,18.243-1.488,28.619-13.838,0,0-.756,4.214-5.921,10.728,0,0,17.4-8.192,16.974-23.324,0,0,6.442,18.835-15.76,29.542-1.534.741-7.5,2.784-16.865,2.784Zm32.916-36.9a20.823,20.823,0,0,1-2.295,33.461c-.358.231-.725.442-1.093.647A29.183,29.183,0,0,0,77.959,15.955Zm-32.3,11.793C53.355,20.286,62.59,3.5,45.023,0c0,0,38.86,1.951,11.374,26.794,0,0,24.572-9.3,9.915-21.068,0,0,17.856,7.472,2.2,21.961,0,0-6.445,6.19-14.094,7.5-2.988.526-14.833,2.539-25.251,9.822C29.185,44.99,37.469,35.683,45.655,27.748Zm94.621,11.581a13.817,13.817,0,0,1-3.479-5.062,14.48,14.48,0,0,1-1.052-5.46,14.3,14.3,0,0,1,2.163-7.678q4.1-6.642,13.855-6.763,7.308,0,11.588,3.952a13.783,13.783,0,0,1,4.523,10.674,13.858,13.858,0,0,1-2.17,7.488q-4.23,6.791-13.9,6.8Q144.561,43.275,140.276,39.329Zm4.853-17.855a9.367,9.367,0,0,0-3.152,7.351,9.331,9.331,0,0,0,3.152,7.328,10.579,10.579,0,0,0,13.372,0,9.4,9.4,0,0,0,2.424-3.45,9.935,9.935,0,0,0,.732-3.752,9.349,9.349,0,0,0-3.156-7.477,10.06,10.06,0,0,0-6.721-2.366A9.654,9.654,0,0,0,145.129,21.474ZM300,42.783h-8.8v-.65c.572-.122.859-.42.859-.883,0-.279-.335-.744-1.006-1.437L275.4,23.654V40.635a1.4,1.4,0,0,0,.29.963,2.081,2.081,0,0,0,1.02.536v.65h-8.2v-.65a2.108,2.108,0,0,0,1.019-.536,1.42,1.42,0,0,0,.29-.963V16.982a1.364,1.364,0,0,0-.29-.939,2.108,2.108,0,0,0-1.019-.535v-.656H278v.656c-.583.157-.881.47-.881.944a1.678,1.678,0,0,0,.574,1.082l15.41,16.022V16.982a1.351,1.351,0,0,0-.289-.939,2.134,2.134,0,0,0-1.02-.535v-.656H300v.656a2.142,2.142,0,0,0-1.027.535,1.371,1.371,0,0,0-.284.939V40.635a1.427,1.427,0,0,0,.284.963,2.142,2.142,0,0,0,1.027.536v.65Zm-45.317,0v-.65c.568-.122.853-.42.853-.883,0-.279-.332-.744-1-1.437L238.878,23.654V40.635a1.435,1.435,0,0,0,.289.963,2.114,2.114,0,0,0,1.02.536v.65h-8.2v-.65A2.086,2.086,0,0,0,233,41.6a1.393,1.393,0,0,0,.29-.963V16.982a1.338,1.338,0,0,0-.29-.939,2.086,2.086,0,0,0-1.021-.535v-.656h9.494v.656c-.585.157-.872.47-.872.944a1.639,1.639,0,0,0,.567,1.082l15.411,16.022V16.982a1.357,1.357,0,0,0-.286-.939,2.13,2.13,0,0,0-1.026-.535v-.656h8.207v.656a2.06,2.06,0,0,0-1.023.535,1.338,1.338,0,0,0-.289.939V40.635a1.393,1.393,0,0,0,.289.963,2.06,2.06,0,0,0,1.023.536v.65Zm-27.71,0h-8.72v-.65a2.167,2.167,0,0,0,1.03-.536,1.442,1.442,0,0,0,.28-.963V16.982a1.384,1.384,0,0,0-.28-.939,2.167,2.167,0,0,0-1.03-.535v-.656h8.722v.656a1.992,1.992,0,0,0-1.026.52,1.449,1.449,0,0,0-.29.954V40.635a1.43,1.43,0,0,0,.3.974,2.03,2.03,0,0,0,1.015.525v.65Zm-29.46,0v-.65c.957-.159,1.436-.611,1.436-1.378a6.906,6.906,0,0,0-.634-1.838l-6.171-15.812-6.38,16.132a5.562,5.562,0,0,0-.552,1.563c0,.624.506,1.071,1.518,1.333v.65h-9v-.65c.912-.186,1.377-.645,1.377-1.4a8.962,8.962,0,0,0-.58-1.816l-8.008-20.6a7.7,7.7,0,0,0-1.072-2.084,2.5,2.5,0,0,0-1.4-.725v-.656h9.71v.656c-.861.194-1.292.593-1.292,1.206a4.289,4.289,0,0,0,.325,1.358l5.527,14.775,5.976-14.865a4.507,4.507,0,0,0,.4-1.268c0-.629-.459-1.027-1.381-1.206v-.656h10.15v.656c-.919.25-1.384.681-1.384,1.331a4.314,4.314,0,0,0,.349,1.233l5.7,14.775,5.512-14.53a5.055,5.055,0,0,0,.428-1.625c0-.6-.49-.99-1.471-1.184v-.656h9.6v.656a2.921,2.921,0,0,0-1.4.734,8.336,8.336,0,0,0-1.028,2.074l-8.012,20.6a7.275,7.275,0,0,0-.565,1.964c0,.674.484,1.083,1.447,1.253v.65Zm-96.238,0v-.65A2.138,2.138,0,0,0,102.3,41.6a1.406,1.406,0,0,0,.287-.963V17.008a1.4,1.4,0,0,0-.287-.965,2.137,2.137,0,0,0-1.024-.535v-.656h15.585a20.721,20.721,0,0,1,7.857,1.169,11.2,11.2,0,0,1,5.818,5.605,16.249,16.249,0,0,1,1.5,7.18q0,7.232-4.444,11.007a11.215,11.215,0,0,1-4.363,2.288,24.871,24.871,0,0,1-6.367.682Zm7.407-4.6h7.66a11.911,11.911,0,0,0,5.514-1q3.955-2.148,3.952-8.369c0-3-.715-5.295-2.129-6.889a6.509,6.509,0,0,0-2.872-1.9,14.5,14.5,0,0,0-4.465-.562h-7.66ZM10.667,21.6c.1-1.593,1.4-5.508,5.08-9.165a33.6,33.6,0,0,1,13.42-8.423C15.287,15.1,22.842,23.37,24.029,23.516c-.4-.036-10.555-.99-5.47,8.663C18.559,32.179,10.155,29.924,10.667,21.6Zm13.369,1.921-.008-.008.011.008Z" transform="translate(20.344 -0.001)" stroke="rgba(0,0,0,0)" stroke-miterlimit="10" stroke-width="1" fill="url(#linear-gradient)"/>
  </g>
</svg>
