<svg id="logo_MICROGAMINGPLUSSLOT" xmlns="http://www.w3.org/2000/svg" xmlns:xlink="http://www.w3.org/1999/xlink" width="300" height="74.036" viewBox="0 0 300 74.036">
  <defs>
    <linearGradient id="linear-gradient" x1="-0.078" y1="0.64" x2="3.958" y2="-0.334" gradientUnits="objectBoundingBox">
      <stop offset="0" stop-color="#fff"/>
      <stop offset="0.3" stop-color="#fff"/>
      <stop offset="0.976" stop-color="#fff"/>
    </linearGradient>
    <linearGradient id="linear-gradient-2" x1="-3.393" y1="1.376" x2="8.341" y2="-1.268" xlink:href="#linear-gradient"/>
    <linearGradient id="linear-gradient-3" x1="-32.726" y1="1.54" x2="51.889" y2="-1.11" xlink:href="#linear-gradient"/>
    <linearGradient id="linear-gradient-4" x1="-6.972" y1="1.945" x2="10.216" y2="-1.367" xlink:href="#linear-gradient"/>
    <linearGradient id="linear-gradient-5" x1="-12.033" y1="2.123" x2="13.401" y2="-1.253" xlink:href="#linear-gradient"/>
    <linearGradient id="linear-gradient-6" x1="-8.349" y1="2.298" x2="7.947" y2="-1.014" xlink:href="#linear-gradient"/>
    <linearGradient id="linear-gradient-7" x1="-9.85" y1="2.013" x2="7.204" y2="-0.482" xlink:href="#linear-gradient"/>
    <linearGradient id="linear-gradient-8" x1="-11.046" y1="2.769" x2="6.008" y2="-0.543" xlink:href="#linear-gradient"/>
    <linearGradient id="linear-gradient-9" x1="-7.361" y1="3.079" x2="2.919" y2="-0.284" xlink:href="#linear-gradient"/>
    <linearGradient id="linear-gradient-10" x1="-69.913" y1="2.705" x2="14.702" y2="0.055" xlink:href="#linear-gradient"/>
    <linearGradient id="linear-gradient-11" x1="-14.394" y1="3.456" x2="2.594" y2="0.092" xlink:href="#linear-gradient"/>
    <linearGradient id="linear-gradient-12" x1="-15.543" y1="2.845" x2="1.511" y2="0.351" xlink:href="#linear-gradient"/>
  </defs>
  <path id="패스_97481" data-name="패스 97481" d="M37.075,0A37.089,37.089,0,0,0,0,37.143,35.8,35.8,0,0,0,1.633,47.891c.68-.952,1.361-1.9,1.973-2.925,2.585-3.81,5.1-7.619,7.619-11.5l1.837-2.925c.612-.952,1.224-1.973,1.769-2.925Q16.667,24.66,18.3,21.7c.544-1.02,1.088-1.973,1.7-2.993s1.088-1.973,1.633-2.993,1.088-2.041,1.565-2.993l1.5-3.061.136-.2a3.443,3.443,0,0,1,4.49-1.565,3.672,3.672,0,0,1,1.9,3.4h0c0,1.769-.34,3.605-.476,5.374s-.2,3.605-.34,5.442c-.136,3.605-.2,7.279-.2,10.884s.2,7.211.544,10.68q.306,2.551.816,5.1a16.348,16.348,0,0,0,1.429,4.354,4.469,4.469,0,0,0,.816,1.156c.2.136.068.068.2.068h.136l.136-.068h.068l.2-.068h0c.068-.068.2-.136.272-.2a9.839,9.839,0,0,0,1.5-1.429,34.163,34.163,0,0,0,2.993-4.014c.952-1.429,1.837-2.993,2.721-4.558,1.769-3.129,3.4-6.327,4.966-9.592.748-1.633,1.565-3.265,2.313-4.966.748-1.633,1.5-3.333,2.177-4.966a3.359,3.359,0,0,1,4.354-1.837,3.239,3.239,0,0,1,2.041,2.517h0a13.523,13.523,0,0,0,.136,1.5l.2,1.565c.136,1.02.272,2.041.476,3.061A59.8,59.8,0,0,0,60,37.347a45.867,45.867,0,0,0,2.041,5.85A23.168,23.168,0,0,0,65.17,48.5h0a.927.927,0,0,1-.136,1.224.826.826,0,0,1-1.088,0,28.661,28.661,0,0,1-4.49-5.034,49.482,49.482,0,0,1-3.4-5.782c-.68-1.361-1.224-2.721-1.837-4.082-.408.816-.748,1.633-1.156,2.381-1.633,3.333-3.265,6.667-5.17,10-.952,1.769-1.9,3.4-2.993,5.034a42.447,42.447,0,0,1-3.605,4.83,20.84,20.84,0,0,1-2.517,2.381,3.858,3.858,0,0,1-.884.544l-.612.34-.34.136h-.068l-.2.068h-.136l-.272.068a1.6,1.6,0,0,1-.544.136l-1.224.2a6.956,6.956,0,0,1-2.653-.34,7.422,7.422,0,0,1-2.245-1.293,10.492,10.492,0,0,1-2.517-3.2,23.533,23.533,0,0,1-2.041-6.054,56.576,56.576,0,0,1-.884-5.782c-.408-3.81-.544-7.551-.612-11.361V27.551c-.68,1.293-1.361,2.585-2.041,3.81-.544,1.02-1.088,2.041-1.7,3.061l-1.7,3.061c-2.313,4.082-4.694,8.1-7.211,12.109-1.565,2.585-3.2,5.17-4.83,7.687A37.094,37.094,0,1,0,68.1,16.6,37.4,37.4,0,0,0,37.075,0Z" transform="translate(0 0)" fill="url(#linear-gradient)"/>
  <path id="패스_97482" data-name="패스 97482" d="M145.745,61.411V36.785h-.612l-7.891,24.694h-1.973l-7.891-24.694h-.612V61.411H123.5V34.2h5.782l7.007,21.633L143.16,34.2h5.85V61.479h-3.265Z" transform="translate(-39.486 -10.935)" fill="url(#linear-gradient-2)"/>
  <path id="패스_97483" data-name="패스 97483" d="M168,37.737V34.2h3.537v3.537Zm.068,23.673V40.39h3.469v21.02Z" transform="translate(-53.714 -10.935)" fill="url(#linear-gradient-3)"/>
  <path id="패스_97484" data-name="패스 97484" d="M195.915,57.258c0,4.082-1.565,7.211-8.367,7.211-8.571,0-9.048-4.9-9.048-10.884s.476-10.884,9.048-10.884c6.8,0,8.367,3.129,8.367,7.211H192.65c0-3.333-1.156-4.966-5.1-4.966-5.306,0-5.578,2.857-5.578,8.571s.272,8.571,5.578,8.571c3.946,0,5.1-1.633,5.1-4.966Z" transform="translate(-57.071 -13.652)" fill="url(#linear-gradient-4)"/>
  <path id="패스_97485" data-name="패스 97485" d="M212.5,45.417c1.633-1.02,3.741-2.381,5.714-2.449a7.394,7.394,0,0,1,1.224-.068,13.662,13.662,0,0,1,1.633.068l-.272,2.517a11.531,11.531,0,0,0-1.5-.068,8.674,8.674,0,0,0-1.293.068c-1.837.068-3.81,1.429-5.238,2.245V64.261H209.3V43.172h2.721Z" transform="translate(-66.919 -13.716)" fill="url(#linear-gradient-5)"/>
  <path id="패스_97486" data-name="패스 97486" d="M246.567,53.684c0,5.986-.476,10.884-9.184,10.884s-9.184-4.9-9.184-10.884.476-10.884,9.184-10.884S246.567,47.7,246.567,53.684Zm-14.9,0c0,5.714.272,8.571,5.714,8.571s5.714-2.789,5.714-8.571-.272-8.571-5.714-8.571-5.714,2.789-5.714,8.571Z" transform="translate(-72.962 -13.684)" fill="url(#linear-gradient-6)"/>
  <path id="패스_97487" data-name="패스 97487" d="M263,69.059c1.293.136,2.993.2,4.9.2,5.306,0,5.986-1.429,6.054-7.007a13.558,13.558,0,0,1-5.986,1.973c-7.687.136-8.163-4.014-8.163-10.544s.408-10.884,7.823-10.884a12.854,12.854,0,0,1,6.667,2.313l.34-1.9h2.721V61.848c0,7.551-1.7,9.864-8.639,9.864a44.5,44.5,0,0,1-6.054-.476ZM273.95,47.018a10.429,10.429,0,0,0-5.238-1.9c-5.1,0-5.442,2.857-5.442,8.571,0,5.578.34,8.231,5.442,8.231a12.289,12.289,0,0,0,5.238-1.769Z" transform="translate(-83.065 -13.684)" fill="url(#linear-gradient-7)"/>
  <path id="패스_97488" data-name="패스 97488" d="M306.3,64.161l-.34-1.9a12.284,12.284,0,0,1-6.395,2.313c-7.687.136-8.163-4.218-8.163-10.884s.408-10.884,8.027-10.884a12.828,12.828,0,0,1,6.463,2.177l.34-1.837h2.721v21.02Zm-.68-17.279a11.437,11.437,0,0,0-5.238-1.769c-5.1,0-5.442,2.857-5.442,8.571s.34,8.571,5.442,8.571a11.109,11.109,0,0,0,5.238-1.9Z" transform="translate(-93.169 -13.684)" fill="url(#linear-gradient-8)"/>
  <path id="패스_97489" data-name="패스 97489" d="M326.561,44.971a12.629,12.629,0,0,1,5.918-2.177c3.537-.136,5.374.816,6.259,2.313a12.809,12.809,0,0,1,6.19-2.313c7.211-.2,7.687,3.469,7.687,8.571V64.154h-3.469V51.569c0-4.354-.272-6.463-4.966-6.463-1.7,0-3.469,1.02-4.9,1.9a17.5,17.5,0,0,1,.408,4.626V64.223H336.7V51.569c0-4.354-.272-6.463-4.966-6.463-1.633,0-3.4,1.02-4.762,1.769V64.154H323.5V43.134h2.721Z" transform="translate(-103.432 -13.678)" fill="url(#linear-gradient-9)"/>
  <path id="패스_97490" data-name="패스 97490" d="M372.6,37.737V34.2h3.537v3.537Zm.068,23.673V40.39h3.469v21.02Z" transform="translate(-119.131 -10.935)" fill="url(#linear-gradient-10)"/>
  <path id="패스_97491" data-name="패스 97491" d="M387.161,44.973a14.277,14.277,0,0,1,6.395-2.177c7.687-.2,8.163,3.469,8.163,8.571V64.157H398.25V51.572c0-4.354-.34-6.463-5.442-6.463a11.51,11.51,0,0,0-5.238,1.837V64.225H384.1V43.136h2.721Z" transform="translate(-122.807 -13.681)" fill="url(#linear-gradient-11)"/>
  <path id="패스_97492" data-name="패스 97492" d="M418.4,69.059c1.292.136,2.993.2,4.9.2,5.306,0,5.986-1.429,6.054-7.007a13.558,13.558,0,0,1-5.986,1.973c-7.687.136-8.163-4.014-8.163-10.544s.408-10.884,7.823-10.884a12.854,12.854,0,0,1,6.667,2.313l.34-1.9h2.721V61.848c0,7.551-1.7,9.864-8.639,9.864a44.5,44.5,0,0,1-6.054-.476Zm10.884-22.041a10.429,10.429,0,0,0-5.238-1.9c-5.1,0-5.442,2.857-5.442,8.571,0,5.578.34,8.231,5.442,8.231a12.289,12.289,0,0,0,5.238-1.769Z" transform="translate(-132.751 -13.684)" fill="url(#linear-gradient-12)"/>
</svg>
