<svg xmlns="http://www.w3.org/2000/svg" width="181.372" height="100" viewBox="0 0 181.372 100">
  <g id="그룹_271790" data-name="그룹 271790" transform="translate(6111 -2758)">
    <path id="패스_102346" data-name="패스 102346" d="M150.49,370.5h-.245V358H159.8v3.186h-6.372v1.47h4.657v3.186h-4.657V370.5Zm-48.774,0H98.774v-4.657H97.059v1.716H95.588v-1.716H93.873V370.5H90.686V358H92.4v1.716h1.471v1.471h1.716v1.47h1.471v-1.47h1.716v-1.716h1.47V358h1.716v12.5Zm62.745,0v-9.314h-3.186V358h9.559v3.186h-3.186V370.5Zm-23.529,0v-1.47h-1.471v-9.314h1.471V358H147.3v1.716h1.47v9.314H147.3v1.47Zm1.471-3.186h3.186v-6.127H142.4ZM128.431,370.5v-3.186H134.8v-1.471h-4.657v-1.716h-1.716v-4.657H129.9V358h7.843v3.186h-6.127v1.471h4.657v1.716h1.47v4.657h-1.47v1.47Zm-13.97,0v-3.186h6.127v-1.471h-4.657v-1.716h-1.471v-4.657h1.471V358h7.843v3.186H117.4v1.471h4.9v1.716h1.471v4.657H122.3v1.47Zm-11.029,0V358h9.314v3.186h-6.127v1.471h4.657v3.186h-4.657v1.471h6.127V370.5Zm-17.4,0v-2.941H83.088V370.5H79.9V359.716h1.471V358h6.373v1.716h1.47V370.5Zm-2.941-6.127h2.941v-3.186H83.088Zm-12.5,6.127v-1.47H68.872v-9.314h1.716V358h6.127v3.186H72.059v6.127h3.186v-1.471H73.529v-3.186h4.657v6.373h-1.47v1.47Zm-12.5,0v-9.314H54.9V358h9.314v3.186H61.029V370.5Zm-14.216,0V358h9.314v3.186H47.059v1.471h4.657v3.186H47.059v1.716h6.127V370.5Zm-4.657,0v-4.657H36.029V370.5H32.843V358h3.186v4.657h3.186V358h2.941v4.657H40.686v3.186h1.471V370.5Zm-15.686,0v-1.47H21.814v-9.314h1.716V358h6.127v1.716h1.471v2.941H28.186v-1.471H25v6.127h3.186v-1.471h2.941v3.186H29.657v1.47Zm-11.029,0v-1.47H11.029v-9.314H12.5V358h6.373v1.716h1.47v9.314h-1.47v1.47Zm1.47-3.186h3.186v-6.127H13.97ZM0,370.5V358H7.843v1.716h1.47v4.412H7.843v1.716H3.186V370.5Zm3.186-7.843H6.373v-1.472H3.186Zm177.451.49v-2.941h-.49v.49H179.9v.49h-.245v.49h-.273v.49h-.953v-.49h-.245v-.49h-.245v-.49H177.7v-.49h-.49v2.941h-.735V358h.98v.49h.245v.49h.245v.49h.245v.49h.245v.49h.245v.49h.49v-.49h.245v-.49h.245v-.49h.245v-.49h.245v-.49h.245v-.478l.98-.012v5.147Zm-6.863,0v-4.412H172.3V358h3.431v.735H174.51v4.412Z" transform="translate(-6111 2487.5)" fill="#fff"/>
    <g id="그룹_20584" data-name="그룹 20584" transform="translate(-6017.618 2758)">
      <rect id="사각형_7712" data-name="사각형 7712" width="6.863" height="6.863" transform="translate(15.686)" fill="#fff"/>
      <rect id="사각형_7712-2" data-name="사각형 7712" width="6.863" height="6.863" transform="translate(23.529)" fill="#fff"/>
      <rect id="사각형_7712-3" data-name="사각형 7712" width="6.863" height="6.863" transform="translate(31.373)" fill="#fff"/>
      <rect id="사각형_7712-4" data-name="사각형 7712" width="6.863" height="6.863" transform="translate(39.216)" fill="#fff"/>
      <rect id="사각형_7712-5" data-name="사각형 7712" width="6.863" height="6.863" transform="translate(47.059)" fill="#fff"/>
      <rect id="사각형_7712-6" data-name="사각형 7712" width="6.863" height="6.863" transform="translate(7.843 7.843)" fill="#fff"/>
      <rect id="사각형_7712-7" data-name="사각형 7712" width="6.863" height="6.863" transform="translate(15.686 7.843)" fill="#fff"/>
      <rect id="사각형_7712-8" data-name="사각형 7712" width="6.863" height="6.863" transform="translate(23.529 7.843)" fill="#fff"/>
      <rect id="사각형_7712-9" data-name="사각형 7712" width="6.863" height="6.863" transform="translate(31.373 7.843)" fill="#fff"/>
      <rect id="사각형_7712-10" data-name="사각형 7712" width="6.863" height="6.863" transform="translate(39.216 7.843)" fill="#fff"/>
      <rect id="사각형_7712-11" data-name="사각형 7712" width="6.863" height="6.863" transform="translate(47.059 7.843)" fill="#fff"/>
      <rect id="사각형_7712-12" data-name="사각형 7712" width="6.863" height="6.863" transform="translate(54.902 7.843)" fill="#fff"/>
      <rect id="사각형_7712-13" data-name="사각형 7712" width="6.863" height="6.863" transform="translate(62.745 7.843)" fill="#fff"/>
      <rect id="사각형_7712-14" data-name="사각형 7712" width="6.863" height="6.863" transform="translate(0 15.686)" fill="#fff"/>
      <rect id="사각형_7712-15" data-name="사각형 7712" width="6.863" height="6.863" transform="translate(7.843 15.686)" fill="#fff"/>
      <rect id="사각형_7712-16" data-name="사각형 7712" width="6.863" height="6.863" transform="translate(15.686 15.686)" fill="#fff"/>
      <rect id="사각형_7712-17" data-name="사각형 7712" width="6.863" height="6.863" transform="translate(54.902 15.686)" fill="#fff"/>
      <rect id="사각형_7712-18" data-name="사각형 7712" width="6.863" height="6.863" transform="translate(62.745 15.686)" fill="#fff"/>
      <rect id="사각형_7712-19" data-name="사각형 7712" width="6.863" height="6.863" transform="translate(0 23.529)" fill="#fff"/>
      <rect id="사각형_7712-20" data-name="사각형 7712" width="6.863" height="6.863" transform="translate(7.843 23.529)" fill="#fff"/>
      <rect id="사각형_7712-21" data-name="사각형 7712" width="6.863" height="6.863" transform="translate(0 31.373)" fill="#fff"/>
      <rect id="사각형_7712-22" data-name="사각형 7712" width="6.863" height="6.863" transform="translate(7.843 31.373)" fill="#fff"/>
      <rect id="사각형_7712-23" data-name="사각형 7712" width="6.863" height="6.863" transform="translate(39.216 31.373)" fill="#fff"/>
      <rect id="사각형_7712-24" data-name="사각형 7712" width="6.863" height="6.863" transform="translate(47.059 31.373)" fill="#fff"/>
      <rect id="사각형_7712-25" data-name="사각형 7712" width="6.863" height="6.863" transform="translate(54.902 31.373)" fill="#fff"/>
      <rect id="사각형_7712-26" data-name="사각형 7712" width="6.863" height="6.863" transform="translate(62.745 31.373)" fill="#fff"/>
      <rect id="사각형_7712-27" data-name="사각형 7712" width="6.863" height="6.863" transform="translate(70.588 31.373)" fill="#fff"/>
      <rect id="사각형_7712-28" data-name="사각형 7712" width="6.863" height="6.863" transform="translate(0 39.216)" fill="#fff"/>
      <rect id="사각형_7712-29" data-name="사각형 7712" width="6.863" height="6.863" transform="translate(7.843 39.216)" fill="#fff"/>
      <rect id="사각형_7712-30" data-name="사각형 7712" width="6.863" height="6.863" transform="translate(39.216 39.216)" fill="#fff"/>
      <rect id="사각형_7712-31" data-name="사각형 7712" width="6.863" height="6.863" transform="translate(47.059 39.216)" fill="#fff"/>
      <rect id="사각형_7712-32" data-name="사각형 7712" width="6.863" height="6.863" transform="translate(54.902 39.216)" fill="#fff"/>
      <rect id="사각형_7712-33" data-name="사각형 7712" width="6.863" height="6.863" transform="translate(62.745 39.216)" fill="#fff"/>
      <rect id="사각형_7712-34" data-name="사각형 7712" width="6.863" height="6.863" transform="translate(70.588 39.216)" fill="#fff"/>
      <rect id="사각형_7712-35" data-name="사각형 7712" width="6.863" height="6.863" transform="translate(0 47.059)" fill="#fff"/>
      <rect id="사각형_7712-36" data-name="사각형 7712" width="6.863" height="6.863" transform="translate(7.843 47.059)" fill="#fff"/>
      <rect id="사각형_7712-37" data-name="사각형 7712" width="6.863" height="6.863" transform="translate(62.745 47.059)" fill="#fff"/>
      <rect id="사각형_7712-38" data-name="사각형 7712" width="6.863" height="6.863" transform="translate(70.588 47.059)" fill="#fff"/>
      <rect id="사각형_7712-39" data-name="사각형 7712" width="6.863" height="6.863" transform="translate(0 54.902)" fill="#fff"/>
      <rect id="사각형_7712-40" data-name="사각형 7712" width="6.863" height="6.863" transform="translate(7.843 54.902)" fill="#fff"/>
      <rect id="사각형_7712-41" data-name="사각형 7712" width="6.863" height="6.863" transform="translate(15.686 54.902)" fill="#fff"/>
      <rect id="사각형_7712-42" data-name="사각형 7712" width="6.863" height="6.863" transform="translate(54.902 54.902)" fill="#fff"/>
      <rect id="사각형_7712-43" data-name="사각형 7712" width="6.863" height="6.863" transform="translate(62.745 54.902)" fill="#fff"/>
      <rect id="사각형_7712-44" data-name="사각형 7712" width="6.863" height="6.863" transform="translate(70.588 54.902)" fill="#fff"/>
      <rect id="사각형_7712-45" data-name="사각형 7712" width="6.863" height="6.863" transform="translate(7.843 62.745)" fill="#fff"/>
      <rect id="사각형_7712-46" data-name="사각형 7712" width="6.863" height="6.863" transform="translate(15.686 62.745)" fill="#fff"/>
      <rect id="사각형_7712-47" data-name="사각형 7712" width="6.863" height="6.863" transform="translate(23.529 62.745)" fill="#fff"/>
      <rect id="사각형_7712-48" data-name="사각형 7712" width="6.863" height="6.863" transform="translate(31.373 62.745)" fill="#fff"/>
      <rect id="사각형_7712-49" data-name="사각형 7712" width="6.863" height="6.863" transform="translate(39.216 62.745)" fill="#fff"/>
      <rect id="사각형_7712-50" data-name="사각형 7712" width="6.863" height="6.863" transform="translate(47.059 62.745)" fill="#fff"/>
      <rect id="사각형_7712-51" data-name="사각형 7712" width="6.863" height="6.863" transform="translate(54.902 62.745)" fill="#fff"/>
      <rect id="사각형_7712-52" data-name="사각형 7712" width="6.863" height="6.863" transform="translate(62.745 62.745)" fill="#fff"/>
      <rect id="사각형_7712-53" data-name="사각형 7712" width="6.863" height="6.863" transform="translate(15.686 70.588)" fill="#fff"/>
      <rect id="사각형_7712-54" data-name="사각형 7712" width="6.863" height="6.863" transform="translate(23.529 70.588)" fill="#fff"/>
      <rect id="사각형_7712-55" data-name="사각형 7712" width="6.863" height="6.863" transform="translate(31.373 70.588)" fill="#fff"/>
      <rect id="사각형_7712-56" data-name="사각형 7712" width="6.863" height="6.863" transform="translate(39.216 70.588)" fill="#fff"/>
      <rect id="사각형_7712-57" data-name="사각형 7712" width="6.863" height="6.863" transform="translate(47.059 70.588)" fill="#fff"/>
      <rect id="사각형_7712-58" data-name="사각형 7712" width="6.863" height="6.863" transform="translate(54.902 70.588)" fill="#fff"/>
    </g>
    <g id="그룹_20583" data-name="그룹 20583" transform="translate(-6111 2758)">
      <rect id="사각형_7712-59" data-name="사각형 7712" width="6.863" height="6.863" transform="translate(0 7.598)" fill="#fff"/>
      <rect id="사각형_7712-60" data-name="사각형 7712" width="6.863" height="6.863" transform="translate(0 15.441)" fill="#fff"/>
      <rect id="사각형_7712-61" data-name="사각형 7712" width="6.863" height="6.863" transform="translate(0 23.284)" fill="#fff"/>
      <rect id="사각형_7712-62" data-name="사각형 7712" width="6.863" height="6.863" transform="translate(0 31.127)" fill="#fff"/>
      <rect id="사각형_7712-63" data-name="사각형 7712" width="6.863" height="6.863" transform="translate(0 38.971)" fill="#fff"/>
      <rect id="사각형_7712-64" data-name="사각형 7712" width="6.863" height="6.863" transform="translate(0 46.814)" fill="#fff"/>
      <rect id="사각형_7712-65" data-name="사각형 7712" width="6.863" height="6.863" transform="translate(0 54.657)" fill="#fff"/>
      <rect id="사각형_7712-66" data-name="사각형 7712" width="6.863" height="6.863" transform="translate(0 62.5)" fill="#fff"/>
      <rect id="사각형_7712-67" data-name="사각형 7712" width="6.863" height="6.863" transform="translate(0 70.343)" fill="#fff"/>
      <rect id="사각형_7713" data-name="사각형 7713" width="6.863" height="6.863" transform="translate(7.843 62.99)"/>
      <rect id="사각형_7712-68" data-name="사각형 7712" width="6.863" height="6.863" transform="translate(7.843)" fill="#fff"/>
      <rect id="사각형_7712-69" data-name="사각형 7712" width="6.863" height="6.863" transform="translate(7.843 7.843)" fill="#fff"/>
      <rect id="사각형_7712-70" data-name="사각형 7712" width="6.863" height="6.863" transform="translate(7.843 15.686)" fill="#fff"/>
      <rect id="사각형_7712-71" data-name="사각형 7712" width="6.863" height="6.863" transform="translate(7.843 23.529)" fill="#fff"/>
      <rect id="사각형_7712-72" data-name="사각형 7712" width="6.863" height="6.863" transform="translate(7.843 31.373)" fill="#fff"/>
      <rect id="사각형_7712-73" data-name="사각형 7712" width="6.863" height="6.863" transform="translate(7.843 39.216)" fill="#fff"/>
      <rect id="사각형_7712-74" data-name="사각형 7712" width="6.863" height="6.863" transform="translate(7.843 47.059)" fill="#fff"/>
      <rect id="사각형_7712-75" data-name="사각형 7712" width="6.863" height="6.863" transform="translate(7.843 54.902)" fill="#fff"/>
      <rect id="사각형_7715" data-name="사각형 7715" width="6.863" height="6.863" transform="translate(7.843 70.343)" fill="#fff"/>
      <rect id="사각형_7712-76" data-name="사각형 7712" width="6.863" height="6.863" transform="translate(55.147 15.686)" fill="#fff"/>
      <rect id="사각형_7712-77" data-name="사각형 7712" width="6.863" height="6.863" transform="translate(62.99 15.686)" fill="#fff"/>
      <rect id="사각형_7712-78" data-name="사각형 7712" width="6.863" height="6.863" transform="translate(70.833 15.686)" fill="#fff"/>
      <rect id="사각형_7712-79" data-name="사각형 7712" width="6.863" height="6.863" transform="translate(62.99 23.529)" fill="#fff"/>
      <rect id="사각형_7712-80" data-name="사각형 7712" width="6.863" height="6.863" transform="translate(70.833 23.529)" fill="#fff"/>
      <rect id="사각형_7712-81" data-name="사각형 7712" width="6.863" height="6.863" transform="translate(62.99 31.373)" fill="#fff"/>
      <rect id="사각형_7712-82" data-name="사각형 7712" width="6.863" height="6.863" transform="translate(70.833 31.373)" fill="#fff"/>
      <rect id="사각형_7712-83" data-name="사각형 7712" width="6.863" height="6.863" transform="translate(55.147 39.216)" fill="#fff"/>
      <rect id="사각형_7712-84" data-name="사각형 7712" width="6.863" height="6.863" transform="translate(62.99 39.216)" fill="#fff"/>
      <rect id="사각형_7712-85" data-name="사각형 7712" width="6.863" height="6.863" transform="translate(70.833 39.216)" fill="#fff"/>
      <rect id="사각형_7712-86" data-name="사각형 7712" width="6.863" height="6.863" transform="translate(55.147 47.059)" fill="#fff"/>
      <rect id="사각형_7712-87" data-name="사각형 7712" width="6.863" height="6.863" transform="translate(62.99 47.059)" fill="#fff"/>
      <rect id="사각형_7712-88" data-name="사각형 7712" width="6.863" height="6.863" transform="translate(15.686 47.059)" fill="#fff"/>
      <rect id="사각형_7712-89" data-name="사각형 7712" width="6.863" height="6.863" transform="translate(23.529 47.059)" fill="#fff"/>
      <rect id="사각형_7712-90" data-name="사각형 7712" width="6.863" height="6.863" transform="translate(31.373 47.059)" fill="#fff"/>
      <rect id="사각형_7712-91" data-name="사각형 7712" width="6.863" height="6.863" transform="translate(39.216 47.059)" fill="#fff"/>
      <rect id="사각형_7712-92" data-name="사각형 7712" width="6.863" height="6.863" transform="translate(47.059 47.059)" fill="#fff"/>
      <rect id="사각형_7712-93" data-name="사각형 7712" width="6.863" height="6.863" transform="translate(15.686 54.902)" fill="#fff"/>
      <rect id="사각형_7712-94" data-name="사각형 7712" width="6.863" height="6.863" transform="translate(23.529 54.902)" fill="#fff"/>
      <rect id="사각형_7712-95" data-name="사각형 7712" width="6.863" height="6.863" transform="translate(31.373 54.902)" fill="#fff"/>
      <rect id="사각형_7712-96" data-name="사각형 7712" width="6.863" height="6.863" transform="translate(39.216 54.902)" fill="#fff"/>
      <rect id="사각형_7712-97" data-name="사각형 7712" width="6.863" height="6.863" transform="translate(47.059 54.902)" fill="#fff"/>
      <rect id="사각형_7712-98" data-name="사각형 7712" width="6.863" height="6.863" transform="translate(15.686)" fill="#fff"/>
      <rect id="사각형_7712-99" data-name="사각형 7712" width="6.863" height="6.863" transform="translate(23.529)" fill="#fff"/>
      <rect id="사각형_7712-100" data-name="사각형 7712" width="6.863" height="6.863" transform="translate(31.373)" fill="#fff"/>
      <rect id="사각형_7712-101" data-name="사각형 7712" width="6.863" height="6.863" transform="translate(39.216)" fill="#fff"/>
      <rect id="사각형_7712-102" data-name="사각형 7712" width="6.863" height="6.863" transform="translate(47.059)" fill="#fff"/>
      <rect id="사각형_7712-103" data-name="사각형 7712" width="6.863" height="6.863" transform="translate(54.902)" fill="#fff"/>
      <rect id="사각형_7712-104" data-name="사각형 7712" width="6.863" height="6.863" transform="translate(62.745)" fill="#fff"/>
      <rect id="사각형_7712-105" data-name="사각형 7712" width="6.863" height="6.863" transform="translate(15.686 7.843)" fill="#fff"/>
      <rect id="사각형_7712-106" data-name="사각형 7712" width="6.863" height="6.863" transform="translate(23.529 7.843)" fill="#fff"/>
      <rect id="사각형_7712-107" data-name="사각형 7712" width="6.863" height="6.863" transform="translate(31.373 7.843)" fill="#fff"/>
      <rect id="사각형_7712-108" data-name="사각형 7712" width="6.863" height="6.863" transform="translate(39.216 7.843)" fill="#fff"/>
      <rect id="사각형_7712-109" data-name="사각형 7712" width="6.863" height="6.863" transform="translate(47.059 7.843)" fill="#fff"/>
      <rect id="사각형_7712-110" data-name="사각형 7712" width="6.863" height="6.863" transform="translate(54.902 7.843)" fill="#fff"/>
      <rect id="사각형_7712-111" data-name="사각형 7712" width="6.863" height="6.863" transform="translate(62.745 7.843)" fill="#fff"/>
    </g>
  </g>
</svg>
